Georama-XCn-XBk.ufo
<glyph name="exclam" format="2">
	<advance width="200"/>
	<unicode hex="0021"/>
	<outline>
		<contour>
			<point x="23" y="259" type="line"/>
			<point x="175" y="259" type="line"/>
			<point x="191" y="740" type="line"/>
			<point x="10" y="740" type="line"/>
		</contour>
		<contour>
			<point x="7" y="107" type="curve" smooth="yes"/>
			<point x="7" y="29"/>
			<point x="35" y="-10"/>
			<point x="100" y="-10" type="curve" smooth="yes"/>
			<point x="165" y="-10"/>
			<point x="193" y="29"/>
			<point x="193" y="107" type="curve" smooth="yes"/>
			<point x="193" y="186"/>
			<point x="165" y="225"/>
			<point x="100" y="225" type="curve" smooth="yes"/>
			<point x="35" y="225"/>
			<point x="7" y="186"/>
		</contour>
	</outline>
</glyph>
<glyph name="dollar" format="2">
	<advance width="420"/>
	<unicode hex="0024"/>
	<outline>
		<contour>
			<point x="184" y="-10" type="curve" smooth="yes"/>
			<point x="288" y="-10"/>
			<point x="405" y="38"/>
			<point x="405" y="206" type="curve" smooth="yes"/>
			<point x="405" y="333"/>
			<point x="333" y="382"/>
			<point x="273" y="419" type="curve" smooth="yes"/>
			<point x="231" y="445"/>
			<point x="195" y="466"/>
			<point x="195" y="502" type="curve" smooth="yes"/>
			<point x="195" y="527"/>
			<point x="211" y="536"/>
			<point x="252" y="536" type="curve" smooth="yes"/>
			<point x="287" y="536"/>
			<point x="323" y="529"/>
			<point x="358" y="515" type="curve"/>
			<point x="392" y="674" type="line"/>
			<point x="358" y="694"/>
			<point x="289" y="710"/>
			<point x="217" y="710" type="curve" smooth="yes"/>
			<point x="97" y="710"/>
			<point x="22" y="628"/>
			<point x="22" y="502" type="curve" smooth="yes"/>
			<point x="22" y="389"/>
			<point x="79" y="331"/>
			<point x="134" y="292" type="curve" smooth="yes"/>
			<point x="186" y="255"/>
			<point x="236" y="234"/>
			<point x="236" y="199" type="curve" smooth="yes"/>
			<point x="236" y="173"/>
			<point x="215" y="158"/>
			<point x="176" y="158" type="curve" smooth="yes"/>
			<point x="144" y="158"/>
			<point x="104" y="168"/>
			<point x="48" y="189" type="curve"/>
			<point x="15" y="33" type="line"/>
			<point x="58" y="9"/>
			<point x="126" y="-10"/>
		</contour>
		<contour>
			<point x="125" y="-105" type="line"/>
			<point x="286" y="-105" type="line"/>
			<point x="286" y="24" type="line"/>
			<point x="125" y="12" type="line"/>
		</contour>
		<contour>
			<point x="125" y="673" type="line"/>
			<point x="286" y="689" type="line"/>
			<point x="286" y="803" type="line"/>
			<point x="125" y="803" type="line"/>
		</contour>
	</outline>
</glyph>
<glyph name="quotesingle" format="2">
	<advance width="197"/>
	<unicode hex="0027"/>
	<outline>
		<contour>
			<point x="22" y="427" type="line"/>
			<point x="172" y="427" type="line"/>
			<point x="181" y="700" type="line"/>
			<point x="16" y="700" type="line"/>
		</contour>
	</outline>
</glyph>
<glyph name="parenright" format="2">
  <advance width="239"/>
  <unicode hex="0029"/>
  <outline>
    <contour>
      <point x="8" y="-62" type="curve"/>
      <point x="8" y="-220" type="line"/>
      <point x="165" y="-197"/>
      <point x="225" y="-20"/>
      <point x="225" y="265" type="curve" smooth="yes"/>
      <point x="225" y="550"/>
      <point x="165" y="727"/>
      <point x="8" y="750" type="curve"/>
      <point x="8" y="592" type="line"/>
      <point x="61" y="560"/>
      <point x="85" y="510"/>
      <point x="85" y="265" type="curve" smooth="yes"/>
      <point x="85" y="20"/>
      <point x="61" y="-30"/>
    </contour>
  </outline>
</glyph>
<glyph name="asterisk" format="2">
	<advance width="340"/>
	<unicode hex="002A"/>
	<outline>
		<contour>
			<point x="109" y="428" type="line"/>
			<point x="170" y="493" type="line"/>
			<point x="231" y="428" type="line"/>
			<point x="297" y="474" type="line"/>
			<point x="255" y="552" type="line"/>
			<point x="334" y="591" type="line"/>
			<point x="309" y="668" type="line"/>
			<point x="222" y="652" type="line"/>
			<point x="211" y="740" type="line"/>
			<point x="129" y="740" type="line"/>
			<point x="118" y="652" type="line"/>
			<point x="31" y="668" type="line"/>
			<point x="6" y="591" type="line"/>
			<point x="85" y="552" type="line"/>
			<point x="43" y="474" type="line"/>
		</contour>
	</outline>
</glyph>
<glyph name="plus" format="2">
	<advance width="420"/>
	<unicode hex="002B"/>
	<outline>
		<contour>
			<point x="130" y="163" type="line"/>
			<point x="290" y="163" type="line"/>
			<point x="290" y="251" type="line"/>
			<point x="378" y="251" type="line"/>
			<point x="378" y="411" type="line"/>
			<point x="290" y="411" type="line"/>
			<point x="290" y="499" type="line"/>
			<point x="130" y="499" type="line"/>
			<point x="130" y="411" type="line"/>
			<point x="42" y="411" type="line"/>
			<point x="42" y="251" type="line"/>
			<point x="130" y="251" type="line"/>
		</contour>
	</outline>
</glyph>
<glyph name="zero" format="2">
	<advance width="420"/>
	<unicode hex="0030"/>
	<outline>
		<contour>
			<point x="15" y="350" type="curve" smooth="yes"/>
			<point x="15" y="84"/>
			<point x="63" y="-10"/>
			<point x="210" y="-10" type="curve" smooth="yes"/>
			<point x="354" y="-10"/>
			<point x="405" y="88"/>
			<point x="405" y="350" type="curve" smooth="yes"/>
			<point x="405" y="613"/>
			<point x="369" y="710"/>
			<point x="210" y="710" type="curve" smooth="yes"/>
			<point x="60" y="710"/>
			<point x="15" y="621"/>
		</contour>
		<contour>
			<point x="192" y="337" type="curve" smooth="yes"/>
			<point x="192" y="544"/>
			<point x="195" y="544"/>
			<point x="210" y="544" type="curve" smooth="yes"/>
			<point x="225" y="544"/>
			<point x="228" y="545"/>
			<point x="228" y="337" type="curve" smooth="yes"/>
			<point x="228" y="162"/>
			<point x="228" y="156"/>
			<point x="210" y="156" type="curve" smooth="yes"/>
			<point x="192" y="156"/>
			<point x="192" y="161"/>
		</contour>
	</outline>
</glyph>
<glyph name="one" format="2">
	<advance width="420"/>
	<unicode hex="0031"/>
	<outline>
		<contour>
			<point x="60" y="0" type="line"/>
			<point x="387" y="0" type="line"/>
			<point x="387" y="160" type="line"/>
			<point x="317" y="160" type="line"/>
			<point x="317" y="700" type="line"/>
			<point x="228" y="700" type="line"/>
			<point x="42" y="650" type="line"/>
			<point x="69" y="465" type="line"/>
			<point x="141" y="480" type="line"/>
			<point x="141" y="160" type="line"/>
			<point x="60" y="160" type="line"/>
		</contour>
	</outline>
</glyph>
<glyph name="two" format="2">
	<advance width="420"/>
	<unicode hex="0032"/>
	<outline>
		<contour>
			<point x="45" y="145" type="curve"/>
			<point x="45" y="0" type="line"/>
			<point x="382" y="0" type="line"/>
			<point x="382" y="160" type="line"/>
			<point x="240" y="160" type="line"/>
			<point x="344" y="307"/>
			<point x="374" y="379"/>
			<point x="374" y="504" type="curve" smooth="yes"/>
			<point x="374" y="637"/>
			<point x="315" y="710"/>
			<point x="198" y="710" type="curve" smooth="yes"/>
			<point x="130" y="710"/>
			<point x="73" y="690"/>
			<point x="19" y="650" type="curve"/>
			<point x="82" y="466" type="line"/>
			<point x="107" y="483"/>
			<point x="126" y="490"/>
			<point x="151" y="490" type="curve" smooth="yes"/>
			<point x="180" y="490"/>
			<point x="197" y="471"/>
			<point x="197" y="432" type="curve" smooth="yes"/>
			<point x="197" y="376"/>
			<point x="132" y="261"/>
		</contour>
	</outline>
</glyph>
<glyph name="three" format="2">
	<advance width="420"/>
	<unicode hex="0033"/>
	<outline>
		<contour>
			<point x="16" y="38" type="line"/>
			<point x="78" y="2"/>
			<point x="118" y="-10"/>
			<point x="181" y="-10" type="curve" smooth="yes"/>
			<point x="308" y="-10"/>
			<point x="384" y="71"/>
			<point x="384" y="206" type="curve" smooth="yes"/>
			<point x="384" y="279"/>
			<point x="352" y="340"/>
			<point x="295" y="375" type="curve"/>
			<point x="345" y="417"/>
			<point x="376" y="479"/>
			<point x="376" y="537" type="curve" smooth="yes"/>
			<point x="376" y="643"/>
			<point x="303" y="710"/>
			<point x="187" y="710" type="curve" smooth="yes"/>
			<point x="120" y="710"/>
			<point x="59" y="690"/>
			<point x="12" y="651" type="curve"/>
			<point x="69" y="496" type="line"/>
			<point x="87" y="506"/>
			<point x="118" y="514"/>
			<point x="142" y="514" type="curve" smooth="yes"/>
			<point x="180" y="514"/>
			<point x="202" y="497"/>
			<point x="202" y="469" type="curve" smooth="yes"/>
			<point x="202" y="444"/>
			<point x="184" y="426"/>
			<point x="151" y="426" type="curve" smooth="yes"/>
			<point x="105" y="426" type="line"/>
			<point x="105" y="275" type="line"/>
			<point x="152" y="275" type="line" smooth="yes"/>
			<point x="188" y="275"/>
			<point x="209" y="256"/>
			<point x="209" y="222" type="curve" smooth="yes"/>
			<point x="209" y="193"/>
			<point x="187" y="174"/>
			<point x="153" y="174" type="curve" smooth="yes"/>
			<point x="128" y="174"/>
			<point x="109" y="180"/>
			<point x="78" y="196" type="curve"/>
		</contour>
	</outline>
</glyph>
<glyph name="five" format="2">
	<advance width="420"/>
	<unicode hex="0035"/>
	<outline>
		<contour>
			<point x="28" y="29" type="line"/>
			<point x="74" y="3"/>
			<point x="115" y="-10"/>
			<point x="177" y="-10" type="curve" smooth="yes"/>
			<point x="307" y="-10"/>
			<point x="400" y="78"/>
			<point x="400" y="238" type="curve" smooth="yes"/>
			<point x="400" y="364"/>
			<point x="343" y="426"/>
			<point x="257" y="433" type="curve" smooth="yes"/>
			<point x="234" y="435" type="line"/>
			<point x="242" y="533" type="line"/>
			<point x="386" y="533" type="line"/>
			<point x="386" y="700" type="line"/>
			<point x="101" y="700" type="line"/>
			<point x="62" y="300" type="line"/>
			<point x="70" y="287" type="line"/>
			<point x="151" y="287" type="line" smooth="yes"/>
			<point x="199" y="287"/>
			<point x="222" y="271"/>
			<point x="222" y="230" type="curve" smooth="yes"/>
			<point x="222" y="198"/>
			<point x="205" y="172"/>
			<point x="152" y="172" type="curve" smooth="yes"/>
			<point x="113" y="172"/>
			<point x="85" y="180"/>
			<point x="61" y="191" type="curve"/>
		</contour>
	</outline>
</glyph>
<glyph name="six" format="2">
	<advance width="420"/>
	<unicode hex="0036"/>
	<outline>
		<contour>
			<point x="214" y="-10" type="curve" smooth="yes"/>
			<point x="348" y="-10"/>
			<point x="411" y="73"/>
			<point x="411" y="249" type="curve" smooth="yes"/>
			<point x="411" y="384"/>
			<point x="361" y="465"/>
			<point x="277" y="465" type="curve" smooth="yes"/>
			<point x="240" y="465"/>
			<point x="214" y="457"/>
			<point x="187" y="435" type="curve"/>
			<point x="180" y="296" type="line"/>
			<point x="192" y="311"/>
			<point x="201" y="321"/>
			<point x="214" y="321" type="curve" smooth="yes"/>
			<point x="227" y="321"/>
			<point x="235" y="296"/>
			<point x="235" y="243" type="curve" smooth="yes"/>
			<point x="235" y="173"/>
			<point x="229" y="151"/>
			<point x="218" y="151" type="curve" smooth="yes"/>
			<point x="203" y="151"/>
			<point x="202" y="163"/>
			<point x="202" y="364" type="curve" smooth="yes"/>
			<point x="202" y="473"/>
			<point x="197" y="537"/>
			<point x="289" y="537" type="curve" smooth="yes"/>
			<point x="313" y="537"/>
			<point x="340" y="528"/>
			<point x="355" y="515" type="curve"/>
			<point x="409" y="670" type="line"/>
			<point x="380" y="692"/>
			<point x="311" y="710"/>
			<point x="257" y="710" type="curve" smooth="yes"/>
			<point x="102" y="710"/>
			<point x="18" y="575"/>
			<point x="18" y="325" type="curve" smooth="yes"/>
			<point x="18" y="96"/>
			<point x="80" y="-10"/>
		</contour>
	</outline>
</glyph>
<glyph name="seven" format="2">
	<advance width="420"/>
	<unicode hex="0037"/>
	<outline>
		<contour>
			<point x="78" y="0" type="curve"/>
			<point x="267" y="0" type="line"/>
			<point x="267" y="119"/>
			<point x="281" y="196"/>
			<point x="324" y="340" type="curve" smooth="yes"/>
			<point x="394" y="572" type="line"/>
			<point x="394" y="700" type="line"/>
			<point x="25" y="700" type="line"/>
			<point x="25" y="535" type="line"/>
			<point x="210" y="535" type="line"/>
			<point x="141" y="361" type="line" smooth="yes"/>
			<point x="95" y="244"/>
			<point x="78" y="137"/>
		</contour>
	</outline>
</glyph>
<glyph name="less" format="2">
	<advance width="420"/>
	<unicode hex="003C"/>
	<outline>
		<contour>
			<point x="399" y="108" type="line"/>
			<point x="399" y="250" type="line"/>
			<point x="185" y="312" type="line"/>
			<point x="399" y="375" type="line"/>
			<point x="399" y="516" type="line"/>
			<point x="21" y="391" type="line"/>
			<point x="21" y="233" type="line"/>
		</contour>
	</outline>
</glyph>
<glyph name="equal" format="2">
  <advance width="400"/>
  <unicode hex="003D"/>
  <outline>
    <contour>
      <point x="358" y="281" type="line"/>
      <point x="42" y="281" type="line"/>
      <point x="42" y="121" type="line"/>
      <point x="358" y="121" type="line"/>
    </contour>
    <contour>
      <point x="358" y="504" type="line"/>
      <point x="42" y="504" type="line"/>
      <point x="42" y="344" type="line"/>
      <point x="358" y="344" type="line"/>
    </contour>
  </outline>
</glyph>
<glyph name="question" format="2">
	<advance width="362"/>
	<unicode hex="003F"/>
	<outline>
		<contour>
			<point x="92" y="259" type="line"/>
			<point x="245" y="259" type="line"/>
			<point x="245" y="332" type="line"/>
			<point x="322" y="370"/>
			<point x="353" y="455"/>
			<point x="353" y="549" type="curve" smooth="yes"/>
			<point x="353" y="677"/>
			<point x="285" y="749"/>
			<point x="153" y="749" type="curve" smooth="yes"/>
			<point x="95" y="749"/>
			<point x="42" y="729"/>
			<point x="6" y="701" type="curve"/>
			<point x="69" y="535" type="line"/>
			<point x="96" y="555"/>
			<point x="108" y="555"/>
			<point x="124" y="555" type="curve" smooth="yes"/>
			<point x="156" y="555"/>
			<point x="171" y="535"/>
			<point x="171" y="511" type="curve" smooth="yes"/>
			<point x="171" y="483"/>
			<point x="159" y="444"/>
			<point x="88" y="410" type="curve"/>
		</contour>
		<contour>
			<point x="76" y="107" type="curve" smooth="yes"/>
			<point x="76" y="29"/>
			<point x="103" y="-10"/>
			<point x="169" y="-10" type="curve" smooth="yes"/>
			<point x="233" y="-10"/>
			<point x="262" y="29"/>
			<point x="262" y="107" type="curve" smooth="yes"/>
			<point x="262" y="186"/>
			<point x="233" y="225"/>
			<point x="169" y="225" type="curve" smooth="yes"/>
			<point x="103" y="225"/>
			<point x="76" y="186"/>
		</contour>
	</outline>
</glyph>
<glyph name="at" format="2">
	<advance width="814"/>
	<unicode hex="0040"/>
	<outline>
		<contour>
			<point x="416" y="-125" type="curve" smooth="yes"/>
			<point x="467" y="-125"/>
			<point x="550" y="-111"/>
			<point x="591" y="-89" type="curve"/>
			<point x="569" y="-19" type="line"/>
			<point x="519" y="-34"/>
			<point x="465" y="-42"/>
			<point x="415" y="-42" type="curve" smooth="yes"/>
			<point x="252" y="-42"/>
			<point x="118" y="36"/>
			<point x="118" y="262" type="curve" smooth="yes"/>
			<point x="118" y="481"/>
			<point x="228" y="632"/>
			<point x="430" y="632" type="curve" smooth="yes"/>
			<point x="628" y="632"/>
			<point x="706" y="529"/>
			<point x="706" y="331" type="curve" smooth="yes"/>
			<point x="706" y="227"/>
			<point x="661" y="152"/>
			<point x="626" y="152" type="curve" smooth="yes"/>
			<point x="593" y="152"/>
			<point x="574" y="175"/>
			<point x="580" y="243" type="curve" smooth="yes"/>
			<point x="606" y="524" type="line"/>
			<point x="547" y="550"/>
			<point x="500" y="562"/>
			<point x="425" y="562" type="curve" smooth="yes"/>
			<point x="272" y="562"/>
			<point x="203" y="427"/>
			<point x="203" y="247" type="curve" smooth="yes"/>
			<point x="203" y="93"/>
			<point x="262" y="42"/>
			<point x="326" y="42" type="curve" smooth="yes"/>
			<point x="375" y="42"/>
			<point x="414" y="63"/>
			<point x="453" y="125" type="curve"/>
			<point x="471" y="77"/>
			<point x="510" y="32"/>
			<point x="590" y="32" type="curve" smooth="yes"/>
			<point x="713" y="32"/>
			<point x="794" y="162"/>
			<point x="794" y="349" type="curve" smooth="yes"/>
			<point x="794" y="597"/>
			<point x="637" y="710"/>
			<point x="446" y="710" type="curve" smooth="yes"/>
			<point x="168" y="710"/>
			<point x="22" y="534"/>
			<point x="22" y="276" type="curve" smooth="yes"/>
			<point x="22" y="6"/>
			<point x="182" y="-125"/>
		</contour>
		<contour>
			<point x="397" y="212" type="curve" smooth="yes"/>
			<point x="390" y="212"/>
			<point x="381" y="221"/>
			<point x="381" y="237" type="curve" smooth="yes"/>
			<point x="381" y="329"/>
			<point x="401" y="441"/>
			<point x="428" y="441" type="curve" smooth="yes"/>
			<point x="433" y="441"/>
			<point x="439" y="437"/>
			<point x="442" y="435" type="curve"/>
			<point x="420" y="223" type="line"/>
			<point x="415" y="220"/>
			<point x="409" y="212"/>
		</contour>
	</outline>
</glyph>
<glyph name="A" format="2">
	<advance width="441"/>
	<unicode hex="0041"/>
	<anchor x="439" y="0" name="ogonek"/>
	<anchor x="219" y="0" name="bottom"/>
	<anchor x="219" y="700" name="top"/>
	<outline>
		<contour>
			<point x="2" y="0" type="line"/>
			<point x="178" y="0" type="line"/>
			<point x="185" y="91" type="line"/>
			<point x="252" y="91" type="line"/>
			<point x="261" y="0" type="line"/>
			<point x="439" y="0" type="line"/>
			<point x="346" y="700" type="line"/>
			<point x="90" y="700" type="line"/>
		</contour>
		<contour>
			<point x="200" y="281" type="line"/>
			<point x="219" y="577" type="line"/>
			<point x="237" y="281" type="line"/>
		</contour>
	</outline>
</glyph>
<glyph name="C" format="2">
  <advance width="368"/>
  <unicode hex="0043"/>
  <anchor x="213" y="700" name="top"/>
  <anchor x="222" y="0" name="bottom"/>
  <outline>
    <contour>
      <point x="9" y="350" type="curve" smooth="yes"/>
      <point x="9" y="90"/>
      <point x="69" y="-10"/>
      <point x="225" y="-10" type="curve" smooth="yes"/>
      <point x="276" y="-10"/>
      <point x="321" y="-1"/>
      <point x="359" y="18" type="curve"/>
      <point x="329" y="185" type="line"/>
      <point x="309" y="176"/>
      <point x="281" y="169"/>
      <point x="260" y="169" type="curve" smooth="yes"/>
      <point x="201" y="169"/>
      <point x="186" y="205"/>
      <point x="186" y="345" type="curve" smooth="yes"/>
      <point x="186" y="492"/>
      <point x="203" y="532"/>
      <point x="257" y="532" type="curve" smooth="yes"/>
      <point x="282" y="532"/>
      <point x="301" y="527"/>
      <point x="329" y="516" type="curve"/>
      <point x="364" y="681" type="line"/>
      <point x="334" y="699"/>
      <point x="282" y="710"/>
      <point x="230" y="710" type="curve" smooth="yes"/>
      <point x="73" y="710"/>
      <point x="9" y="609"/>
    </contour>
  </outline>
</glyph>
<glyph name="E" format="2">
  <advance width="362"/>
  <unicode hex="0045"/>
  <anchor x="350" y="0" name="ogonek"/>
  <anchor x="185" y="0" name="bottom"/>
  <anchor x="185" y="700" name="top"/>
  <outline>
    <contour>
      <point x="22" y="0" type="line"/>
      <point x="350" y="0" type="line"/>
      <point x="350" y="178" type="line"/>
      <point x="198" y="178" type="line"/>
      <point x="198" y="264" type="line"/>
      <point x="316" y="264" type="line"/>
      <point x="316" y="432" type="line"/>
      <point x="198" y="432" type="line"/>
      <point x="198" y="517" type="line"/>
      <point x="339" y="517" type="line"/>
      <point x="339" y="700" type="line"/>
      <point x="22" y="700" type="line"/>
    </contour>
  </outline>
</glyph>
<glyph name="F" format="2">
	<advance width="350"/>
	<unicode hex="0046"/>
	<outline>
		<contour>
			<point x="22" y="0" type="line"/>
			<point x="199" y="0" type="line"/>
			<point x="199" y="208" type="line"/>
			<point x="316" y="208" type="line"/>
			<point x="316" y="391" type="line"/>
			<point x="197" y="391" type="line"/>
			<point x="197" y="517" type="line"/>
			<point x="338" y="517" type="line"/>
			<point x="338" y="700" type="line"/>
			<point x="22" y="700" type="line"/>
		</contour>
	</outline>
</glyph>
<glyph name="H" format="2">
  <advance width="433"/>
  <unicode hex="0048"/>
  <anchor x="217" y="700" name="top"/>
  <outline>
    <contour>
      <point x="22" y="0" type="line"/>
      <point x="197" y="0" type="line"/>
      <point x="197" y="228" type="line"/>
      <point x="236" y="228" type="line"/>
      <point x="236" y="0" type="line"/>
      <point x="411" y="0" type="line"/>
      <point x="411" y="700" type="line"/>
      <point x="236" y="700" type="line"/>
      <point x="236" y="413" type="line"/>
      <point x="197" y="413" type="line"/>
      <point x="197" y="700" type="line"/>
      <point x="22" y="700" type="line"/>
    </contour>
  </outline>
</glyph>
<glyph name="I" format="2">
  <advance width="219"/>
  <unicode hex="0049"/>
  <anchor x="197" y="0" name="ogonek"/>
  <anchor x="110" y="0" name="bottom"/>
  <anchor x="110" y="700" name="top"/>
  <outline>
    <contour>
      <point x="22" y="0" type="line"/>
      <point x="197" y="0" type="line"/>
      <point x="197" y="700" type="line"/>
      <point x="22" y="700" type="line"/>
    </contour>
  </outline>
</glyph>
<glyph name="L" format="2">
  <advance width="345"/>
  <unicode hex="004C"/>
  <anchor x="173" y="350" name="center"/>
  <anchor x="110" y="700" name="top"/>
  <anchor x="225" y="700" name="topright"/>
  <anchor x="178" y="0" name="bottom"/>
  <outline>
    <contour>
      <point x="22" y="0" type="line"/>
      <point x="335" y="0" type="line"/>
      <point x="335" y="178" type="line"/>
      <point x="198" y="178" type="line"/>
      <point x="198" y="700" type="line"/>
      <point x="22" y="700" type="line"/>
    </contour>
  </outline>
</glyph>
<glyph name="P" format="2">
  <advance width="436"/>
  <unicode hex="0050"/>
  <outline>
    <contour>
      <point x="22" y="0" type="line"/>
      <point x="198" y="0" type="line"/>
      <point x="198" y="157" type="line"/>
      <point x="226" y="153"/>
      <point x="230" y="153"/>
      <point x="252" y="153" type="curve" smooth="yes"/>
      <point x="374" y="153"/>
      <point x="427" y="248"/>
      <point x="427" y="438" type="curve" smooth="yes"/>
      <point x="427" y="620"/>
      <point x="373" y="710"/>
      <point x="212" y="710" type="curve" smooth="yes"/>
      <point x="187" y="710"/>
      <point x="122" y="709"/>
      <point x="22" y="702" type="curve"/>
    </contour>
    <contour>
      <point x="199" y="539" type="line"/>
      <point x="210" y="542"/>
      <point x="220" y="542"/>
      <point x="224" y="542" type="curve" smooth="yes"/>
      <point x="244" y="542"/>
      <point x="251" y="513"/>
      <point x="251" y="450" type="curve" smooth="yes"/>
      <point x="251" y="351"/>
      <point x="243" y="318"/>
      <point x="219" y="318" type="curve" smooth="yes"/>
      <point x="210" y="318"/>
      <point x="205" y="318"/>
      <point x="199" y="320" type="curve"/>
    </contour>
  </outline>
</glyph>
<glyph name="Q" format="2">
  <advance width="421"/>
  <unicode hex="0051"/>
  <outline>
    <contour>
      <point x="340" y="58" type="curve"/>
      <point x="213" y="13" type="line"/>
      <point x="228" y="-104"/>
      <point x="256" y="-160"/>
      <point x="341" y="-160" type="curve" smooth="yes"/>
      <point x="367" y="-160"/>
      <point x="392" y="-154"/>
      <point x="410" y="-147" type="curve"/>
      <point x="392" y="31" type="line"/>
      <point x="386" y="28"/>
      <point x="378" y="25"/>
      <point x="369" y="25" type="curve" smooth="yes"/>
      <point x="353" y="25"/>
      <point x="347" y="42"/>
    </contour>
    <contour>
      <point x="211" y="161" type="curve" smooth="yes"/>
      <point x="189" y="161"/>
      <point x="189" y="188"/>
      <point x="189" y="349" type="curve" smooth="yes"/>
      <point x="189" y="510"/>
      <point x="190" y="539"/>
      <point x="211" y="539" type="curve" smooth="yes"/>
      <point x="233" y="539"/>
      <point x="233" y="512"/>
      <point x="233" y="351" type="curve" smooth="yes"/>
      <point x="233" y="190"/>
      <point x="232" y="161"/>
    </contour>
    <contour>
      <point x="210" y="-10" type="curve" smooth="yes"/>
      <point x="351" y="-10"/>
      <point x="412" y="77"/>
      <point x="412" y="352" type="curve" smooth="yes"/>
      <point x="412" y="625"/>
      <point x="352" y="710"/>
      <point x="211" y="710" type="curve" smooth="yes"/>
      <point x="70" y="710"/>
      <point x="9" y="623"/>
      <point x="9" y="348" type="curve" smooth="yes"/>
      <point x="9" y="75"/>
      <point x="69" y="-10"/>
    </contour>
  </outline>
</glyph>
<glyph name="R" format="2">
  <advance width="446"/>
  <unicode hex="0052"/>
  <anchor x="225" y="700" name="top"/>
  <anchor x="225" y="0" name="bottom"/>
  <outline>
    <contour>
      <point x="377" y="-10" type="curve" smooth="yes"/>
      <point x="406" y="-10"/>
      <point x="421" y="-8"/>
      <point x="432" y="-5" type="curve"/>
      <point x="432" y="195" type="line"/>
      <point x="428" y="195"/>
      <point x="425" y="195"/>
      <point x="421" y="195" type="curve" smooth="yes"/>
      <point x="387" y="195"/>
      <point x="366" y="216"/>
      <point x="348" y="268" type="curve"/>
      <point x="404" y="298"/>
      <point x="426" y="385"/>
      <point x="426" y="480" type="curve" smooth="yes"/>
      <point x="426" y="635"/>
      <point x="350" y="709"/>
      <point x="227" y="709" type="curve" smooth="yes"/>
      <point x="147" y="709"/>
      <point x="85" y="705"/>
      <point x="22" y="699" type="curve"/>
      <point x="22" y="0" type="line"/>
      <point x="196" y="0" type="line"/>
      <point x="196" y="204" type="line"/>
      <point x="197" y="204"/>
      <point x="197" y="204"/>
      <point x="198" y="204" type="curve"/>
      <point x="199" y="204"/>
      <point x="199" y="204"/>
      <point x="200" y="204" type="curve"/>
      <point x="260" y="0"/>
      <point x="307" y="-10"/>
    </contour>
    <contour>
      <point x="215" y="338" type="curve" smooth="yes"/>
      <point x="205" y="338"/>
      <point x="202" y="339"/>
      <point x="196" y="340" type="curve"/>
      <point x="196" y="538" type="line"/>
      <point x="207" y="541"/>
      <point x="217" y="542"/>
      <point x="221" y="542" type="curve" smooth="yes"/>
      <point x="241" y="542"/>
      <point x="250" y="513"/>
      <point x="250" y="450" type="curve" smooth="yes"/>
      <point x="250" y="372"/>
      <point x="237" y="338"/>
    </contour>
  </outline>
</glyph>
<glyph name="T" format="2">
  <advance width="396"/>
  <unicode hex="0054"/>
  <anchor x="198" y="700" name="top"/>
  <anchor x="198" y="0" name="bottom"/>
  <outline>
    <contour>
      <point x="386" y="518" type="line"/>
      <point x="386" y="700" type="line"/>
      <point x="10" y="700" type="line"/>
      <point x="10" y="518" type="line"/>
      <point x="111" y="518" type="line"/>
      <point x="111" y="0" type="line"/>
      <point x="286" y="0" type="line"/>
      <point x="286" y="518" type="line"/>
    </contour>
  </outline>
</glyph>
<glyph name="V" format="2">
	<advance width="445"/>
	<unicode hex="0056"/>
	<outline>
		<contour>
			<point x="107" y="0" type="line"/>
			<point x="345" y="0" type="line"/>
			<point x="447" y="700" type="line"/>
			<point x="255" y="700" type="line"/>
			<point x="226" y="162" type="line"/>
			<point x="191" y="700" type="line"/>
			<point x="-2" y="700" type="line"/>
		</contour>
	</outline>
</glyph>
<glyph name="X" format="2">
	<advance width="474"/>
	<unicode hex="0058"/>
	<outline>
		<contour>
			<point x="-5" y="0" type="line"/>
			<point x="205" y="0" type="line"/>
			<point x="238" y="240" type="line"/>
			<point x="268" y="0" type="line"/>
			<point x="479" y="0" type="line"/>
			<point x="377" y="355" type="line"/>
			<point x="471" y="700" type="line"/>
			<point x="265" y="700" type="line"/>
			<point x="237" y="467" type="line"/>
			<point x="209" y="700" type="line"/>
			<point x="4" y="700" type="line"/>
			<point x="97" y="353" type="line"/>
		</contour>
	</outline>
</glyph>
<glyph name="Y" format="2">
	<advance width="446"/>
	<unicode hex="0059"/>
	<anchor x="223" y="700" name="top"/>
	<anchor x="223" y="0" name="bottom"/>
	<outline>
		<contour>
			<point x="135" y="0" type="line"/>
			<point x="310" y="0" type="line"/>
			<point x="310" y="208" type="line"/>
			<point x="448" y="700" type="line"/>
			<point x="247" y="700" type="line"/>
			<point x="223" y="334" type="line"/>
			<point x="199" y="700" type="line"/>
			<point x="-2" y="700" type="line"/>
			<point x="135" y="208" type="line"/>
		</contour>
	</outline>
</glyph>
<glyph name="Z" format="2">
	<advance width="400"/>
	<unicode hex="005A"/>
	<anchor x="199" y="350" name="center"/>
	<anchor x="199" y="0" name="bottom"/>
	<anchor x="205" y="700" name="top"/>
	<outline>
		<contour>
			<point x="10" y="0" type="line"/>
			<point x="387" y="0" type="line"/>
			<point x="387" y="172" type="line"/>
			<point x="193" y="172" type="line"/>
			<point x="193" y="173" type="line"/>
			<point x="387" y="520" type="line"/>
			<point x="387" y="700" type="line"/>
			<point x="20" y="700" type="line"/>
			<point x="20" y="528" type="line"/>
			<point x="205" y="528" type="line"/>
			<point x="205" y="527" type="line"/>
			<point x="10" y="180" type="line"/>
		</contour>
	</outline>
</glyph>
<glyph name="bracketleft" format="2">
	<advance width="239"/>
	<unicode hex="005B"/>
	<outline>
		<contour>
			<point x="147" y="-62" type="line"/>
			<point x="147" y="592" type="line"/>
			<point x="231" y="592" type="line"/>
			<point x="231" y="740" type="line"/>
			<point x="14" y="740" type="line"/>
			<point x="14" y="-210" type="line"/>
			<point x="231" y="-210" type="line"/>
			<point x="231" y="-62" type="line"/>
		</contour>
	</outline>
</glyph>
<glyph name="bracketright" format="2">
  <advance width="239"/>
  <unicode hex="005D"/>
  <outline>
    <contour>
      <point x="8" y="-62" type="line"/>
      <point x="8" y="-210" type="line"/>
      <point x="225" y="-210" type="line"/>
      <point x="225" y="740" type="line"/>
      <point x="8" y="740" type="line"/>
      <point x="8" y="592" type="line"/>
      <point x="92" y="592" type="line"/>
      <point x="92" y="-62" type="line"/>
    </contour>
  </outline>
</glyph>
<glyph name="asciicircum" format="2">
	<advance width="420"/>
	<unicode hex="005E"/>
	<outline>
		<contour>
			<point x="51" y="242" type="line"/>
			<point x="176" y="242" type="line"/>
			<point x="210" y="516" type="line"/>
			<point x="245" y="242" type="line"/>
			<point x="369" y="242" type="line"/>
			<point x="299" y="700" type="line"/>
			<point x="121" y="700" type="line"/>
		</contour>
	</outline>
</glyph>
<glyph name="underscore" format="2">
	<advance width="626"/>
	<unicode hex="005F"/>
	<outline>
		<contour>
			<point x="20" y="-209" type="line"/>
			<point x="606" y="-209" type="line"/>
			<point x="606" y="-41" type="line"/>
			<point x="20" y="-41" type="line"/>
		</contour>
	</outline>
</glyph>
<glyph name="d" format="2">
  <advance width="416"/>
  <unicode hex="0064"/>
  <anchor x="206" y="275" name="center"/>
  <anchor x="201" y="740" name="top"/>
  <anchor x="427" y="740" name="topright"/>
  <anchor x="206" y="0" name="bottom"/>
  <outline>
    <contour>
      <point x="238" y="0" type="line"/>
      <point x="397" y="0" type="line"/>
      <point x="397" y="740" type="line"/>
      <point x="221" y="740" type="line"/>
      <point x="221" y="555" type="line"/>
      <point x="211" y="558"/>
      <point x="195" y="560"/>
      <point x="184" y="560" type="curve" smooth="yes"/>
      <point x="72" y="560"/>
      <point x="10" y="455"/>
      <point x="10" y="265" type="curve" smooth="yes"/>
      <point x="10" y="82"/>
      <point x="55" y="-10"/>
      <point x="145" y="-10" type="curve" smooth="yes"/>
      <point x="175" y="-10"/>
      <point x="207" y="1"/>
      <point x="226" y="17" type="curve"/>
    </contour>
    <contour>
      <point x="221" y="160" type="line"/>
      <point x="220" y="159"/>
      <point x="215" y="157"/>
      <point x="212" y="157" type="curve" smooth="yes"/>
      <point x="199" y="157"/>
      <point x="197" y="180"/>
      <point x="197" y="294" type="curve" smooth="yes"/>
      <point x="197" y="394"/>
      <point x="199" y="411"/>
      <point x="211" y="411" type="curve" smooth="yes"/>
      <point x="215" y="411"/>
      <point x="217" y="410"/>
      <point x="221" y="405" type="curve"/>
    </contour>
  </outline>
</glyph>
<glyph name="e" format="2">
  <advance width="406"/>
  <unicode hex="0065"/>
  <anchor x="345" y="11" name="ogonek"/>
  <anchor x="205" y="0" name="bottom"/>
  <anchor x="210" y="550" name="top"/>
  <outline>
    <contour>
      <point x="207" y="-10" type="curve" smooth="yes"/>
      <point x="279" y="-10"/>
      <point x="334" y="2"/>
      <point x="392" y="28" type="curve"/>
      <point x="368" y="181" type="line"/>
      <point x="332" y="171"/>
      <point x="292" y="161"/>
      <point x="256" y="161" type="curve" smooth="yes"/>
      <point x="200" y="161"/>
      <point x="190" y="178"/>
      <point x="190" y="200" type="curve" smooth="yes"/>
      <point x="190" y="203"/>
      <point x="190" y="205"/>
      <point x="190" y="208" type="curve"/>
      <point x="231" y="211"/>
      <point x="342" y="224"/>
      <point x="393" y="231" type="curve"/>
      <point x="394" y="252"/>
      <point x="395" y="284"/>
      <point x="395" y="299" type="curve" smooth="yes"/>
      <point x="395" y="485"/>
      <point x="342" y="560"/>
      <point x="215" y="560" type="curve" smooth="yes"/>
      <point x="74" y="560"/>
      <point x="10" y="476"/>
      <point x="10" y="267" type="curve" smooth="yes"/>
      <point x="10" y="77"/>
      <point x="75" y="-10"/>
    </contour>
    <contour>
      <point x="190" y="318" type="curve"/>
      <point x="190" y="401"/>
      <point x="194" y="415"/>
      <point x="206" y="415" type="curve" smooth="yes"/>
      <point x="217" y="415"/>
      <point x="223" y="402"/>
      <point x="223" y="320" type="curve"/>
      <point x="212" y="319"/>
      <point x="197" y="318"/>
    </contour>
  </outline>
</glyph>
<glyph name="i" format="2">
	<advance width="213"/>
	<unicode hex="0069"/>
	<anchor x="194" y="0" name="ogonek"/>
	<anchor x="107" y="0" name="bottom"/>
	<outline>
		<contour>
			<point x="107" y="569" type="curve" smooth="yes"/>
			<point x="171" y="569"/>
			<point x="205" y="606"/>
			<point x="205" y="679" type="curve" smooth="yes"/>
			<point x="205" y="754"/>
			<point x="169" y="790"/>
			<point x="107" y="790" type="curve" smooth="yes"/>
			<point x="44" y="790"/>
			<point x="8" y="754"/>
			<point x="8" y="679" type="curve" smooth="yes"/>
			<point x="8" y="605"/>
			<point x="44" y="569"/>
		</contour>
		<contour>
			<point x="19" y="0" type="line"/>
			<point x="194" y="0" type="line"/>
			<point x="194" y="550" type="line"/>
			<point x="19" y="550" type="line"/>
		</contour>
	</outline>
</glyph>
<glyph name="j" format="2">
	<advance width="213"/>
	<unicode hex="006A"/>
	<outline>
		<contour>
			<point x="194" y="550" type="line"/>
			<point x="19" y="550" type="line"/>
			<point x="19" y="21" type="line" smooth="yes"/>
			<point x="19" y="-21"/>
			<point x="12" y="-33"/>
			<point x="-10" y="-33" type="curve" smooth="yes"/>
			<point x="-22" y="-33"/>
			<point x="-32" y="-30"/>
			<point x="-47" y="-25" type="curve"/>
			<point x="-74" y="-202" type="line"/>
			<point x="-38" y="-214"/>
			<point x="-6" y="-220"/>
			<point x="24" y="-220" type="curve" smooth="yes"/>
			<point x="149" y="-220"/>
			<point x="194" y="-146"/>
			<point x="194" y="5" type="curve" smooth="yes"/>
		</contour>
		<contour>
			<point x="107" y="569" type="curve" smooth="yes"/>
			<point x="171" y="569"/>
			<point x="205" y="606"/>
			<point x="205" y="679" type="curve" smooth="yes"/>
			<point x="205" y="754"/>
			<point x="169" y="790"/>
			<point x="107" y="790" type="curve" smooth="yes"/>
			<point x="44" y="790"/>
			<point x="8" y="754"/>
			<point x="8" y="679" type="curve" smooth="yes"/>
			<point x="8" y="605"/>
			<point x="44" y="569"/>
		</contour>
	</outline>
</glyph>
<glyph name="k" format="2">
  <advance width="400"/>
  <unicode hex="006B"/>
  <anchor x="101" y="740" name="top"/>
  <anchor x="205" y="0" name="bottom"/>
  <outline>
    <contour>
      <point x="344" y="-10" type="curve" smooth="yes"/>
      <point x="359" y="-10"/>
      <point x="373" y="-9"/>
      <point x="389" y="-5" type="curve"/>
      <point x="389" y="183" type="line"/>
      <point x="386" y="183"/>
      <point x="384" y="183"/>
      <point x="381" y="183" type="curve" smooth="yes"/>
      <point x="354" y="183"/>
      <point x="333" y="197"/>
      <point x="278" y="284" type="curve" smooth="yes"/>
      <point x="183" y="434" type="line"/>
      <point x="183" y="740" type="line"/>
      <point x="19" y="740" type="line"/>
      <point x="19" y="0" type="line"/>
      <point x="183" y="0" type="line"/>
      <point x="183" y="152" type="line"/>
      <point x="231" y="69" type="line" smooth="yes"/>
      <point x="265" y="11"/>
      <point x="295" y="-10"/>
    </contour>
    <contour>
      <point x="270" y="212" type="line"/>
      <point x="346" y="323"/>
      <point x="397" y="454"/>
      <point x="403" y="549" type="curve"/>
      <point x="235" y="559" type="line"/>
      <point x="235" y="466"/>
      <point x="216" y="403"/>
      <point x="163" y="326" type="curve"/>
    </contour>
  </outline>
</glyph>
<glyph name="p" format="2">
  <advance width="416"/>
  <unicode hex="0070"/>
  <outline>
    <contour>
      <point x="19" y="-210" type="line"/>
      <point x="195" y="-210" type="line"/>
      <point x="195" y="-5" type="line"/>
      <point x="207" y="-8"/>
      <point x="223" y="-10"/>
      <point x="232" y="-10" type="curve" smooth="yes"/>
      <point x="344" y="-10"/>
      <point x="406" y="96"/>
      <point x="406" y="286" type="curve" smooth="yes"/>
      <point x="406" y="469"/>
      <point x="361" y="560"/>
      <point x="271" y="560" type="curve" smooth="yes"/>
      <point x="239" y="560"/>
      <point x="215" y="552"/>
      <point x="190" y="533" type="curve"/>
      <point x="178" y="550" type="line"/>
      <point x="19" y="550" type="line"/>
    </contour>
    <contour>
      <point x="205" y="140" type="curve" smooth="yes"/>
      <point x="201" y="140"/>
      <point x="198" y="142"/>
      <point x="195" y="146" type="curve"/>
      <point x="195" y="391" type="line"/>
      <point x="197" y="393"/>
      <point x="201" y="394"/>
      <point x="204" y="394" type="curve" smooth="yes"/>
      <point x="217" y="394"/>
      <point x="219" y="374"/>
      <point x="219" y="257" type="curve" smooth="yes"/>
      <point x="219" y="158"/>
      <point x="217" y="140"/>
    </contour>
  </outline>
</glyph>
<glyph name="s" format="2">
	<advance width="358"/>
	<unicode hex="0073"/>
	<anchor x="182" y="550" name="top"/>
	<anchor x="186" y="0" name="bottom"/>
	<outline>
		<contour>
			<point x="13" y="21" type="line"/>
			<point x="58" y="0"/>
			<point x="102" y="-10"/>
			<point x="162" y="-10" type="curve" smooth="yes"/>
			<point x="290" y="-10"/>
			<point x="353" y="58"/>
			<point x="353" y="178" type="curve" smooth="yes"/>
			<point x="353" y="308"/>
			<point x="290" y="339"/>
			<point x="232" y="353" type="curve" smooth="yes"/>
			<point x="191" y="363"/>
			<point x="160" y="364"/>
			<point x="160" y="380" type="curve" smooth="yes"/>
			<point x="160" y="393"/>
			<point x="175" y="393"/>
			<point x="197" y="393" type="curve" smooth="yes"/>
			<point x="232" y="393"/>
			<point x="273" y="386"/>
			<point x="311" y="373" type="curve"/>
			<point x="335" y="531" type="line"/>
			<point x="302" y="548"/>
			<point x="242" y="560"/>
			<point x="192" y="560" type="curve" smooth="yes"/>
			<point x="72" y="560"/>
			<point x="5" y="494"/>
			<point x="5" y="367" type="curve" smooth="yes"/>
			<point x="5" y="280"/>
			<point x="38" y="224"/>
			<point x="104" y="205" type="curve" smooth="yes"/>
			<point x="148" y="192"/>
			<point x="189" y="193"/>
			<point x="189" y="170" type="curve" smooth="yes"/>
			<point x="189" y="162"/>
			<point x="180" y="154"/>
			<point x="153" y="154" type="curve" smooth="yes"/>
			<point x="116" y="154"/>
			<point x="59" y="163"/>
			<point x="29" y="174" type="curve"/>
		</contour>
	</outline>
</glyph>
<glyph name="u" format="2">
  <advance width="433"/>
  <unicode hex="0075"/>
  <anchor x="431" y="15" name="ogonek"/>
  <anchor x="207" y="550" name="top"/>
  <anchor x="397" y="550" name="topright"/>
  <anchor x="217" y="0" name="bottom"/>
  <outline>
    <contour>
      <point x="133" y="-10" type="curve" smooth="yes"/>
      <point x="175" y="-10"/>
      <point x="211" y="6"/>
      <point x="241" y="33" type="curve"/>
      <point x="262" y="9"/>
      <point x="290" y="-10"/>
      <point x="332" y="-10" type="curve" smooth="yes"/>
      <point x="378" y="-10"/>
      <point x="407" y="2"/>
      <point x="431" y="15" type="curve"/>
      <point x="420" y="176" type="line"/>
      <point x="417" y="175"/>
      <point x="411" y="174"/>
      <point x="407" y="174" type="curve" smooth="yes"/>
      <point x="400" y="174"/>
      <point x="397" y="178"/>
      <point x="397" y="199" type="curve" smooth="yes"/>
      <point x="397" y="550" type="line"/>
      <point x="222" y="550" type="line"/>
      <point x="222" y="170" type="line"/>
      <point x="217" y="165"/>
      <point x="211" y="163"/>
      <point x="205" y="163" type="curve" smooth="yes"/>
      <point x="201" y="163"/>
      <point x="193" y="165"/>
      <point x="193" y="179" type="curve" smooth="yes"/>
      <point x="193" y="550" type="line"/>
      <point x="17" y="550" type="line"/>
      <point x="17" y="149" type="line" smooth="yes"/>
      <point x="17" y="28"/>
      <point x="68" y="-10"/>
    </contour>
  </outline>
</glyph>
<glyph name="w" format="2">
	<advance width="640"/>
	<unicode hex="0077"/>
	<anchor x="320" y="550" name="top"/>
	<anchor x="320" y="0" name="bottom"/>
	<outline>
		<contour>
			<point x="71" y="0" type="line"/>
			<point x="301" y="0" type="line"/>
			<point x="322" y="329" type="line"/>
			<point x="339" y="0" type="line"/>
			<point x="568" y="0" type="line"/>
			<point x="635" y="550" type="line"/>
			<point x="458" y="550" type="line"/>
			<point x="439" y="161" type="line"/>
			<point x="415" y="550" type="line"/>
			<point x="225" y="550" type="line"/>
			<point x="200" y="161" type="line"/>
			<point x="183" y="550" type="line"/>
			<point x="5" y="550" type="line"/>
		</contour>
	</outline>
</glyph>
<glyph name="x" format="2">
	<advance width="434"/>
	<unicode hex="0078"/>
	<outline>
		<contour>
			<point x="3" y="0" type="line"/>
			<point x="195" y="0" type="line"/>
			<point x="218" y="192" type="line"/>
			<point x="242" y="0" type="line"/>
			<point x="433" y="0" type="line"/>
			<point x="357" y="279" type="line"/>
			<point x="428" y="550" type="line"/>
			<point x="240" y="550" type="line"/>
			<point x="218" y="348" type="line"/>
			<point x="196" y="550" type="line"/>
			<point x="9" y="550" type="line"/>
			<point x="79" y="279" type="line"/>
		</contour>
	</outline>
</glyph>
<glyph name="cent" format="2">
	<advance width="420"/>
	<unicode hex="00A2"/>
	<outline>
		<contour>
			<point x="244" y="-11" type="curve" smooth="yes"/>
			<point x="293" y="-11"/>
			<point x="344" y="-1"/>
			<point x="376" y="16" type="curve"/>
			<point x="339" y="192" type="line"/>
			<point x="320" y="185"/>
			<point x="304" y="182"/>
			<point x="290" y="182" type="curve" smooth="yes"/>
			<point x="259" y="182"/>
			<point x="241" y="212"/>
			<point x="241" y="272" type="curve" smooth="yes"/>
			<point x="241" y="342"/>
			<point x="257" y="367"/>
			<point x="296" y="367" type="curve" smooth="yes"/>
			<point x="314" y="367"/>
			<point x="327" y="363"/>
			<point x="339" y="360" type="curve"/>
			<point x="370" y="543" type="line"/>
			<point x="350" y="549"/>
			<point x="296" y="562"/>
			<point x="243" y="562" type="curve" smooth="yes"/>
			<point x="92" y="562"/>
			<point x="55" y="424"/>
			<point x="55" y="266" type="curve" smooth="yes"/>
			<point x="55" y="81"/>
			<point x="115" y="-11"/>
		</contour>
		<contour>
			<point x="156" y="-106" type="line"/>
			<point x="317" y="-106" type="line"/>
			<point x="317" y="14" type="line"/>
			<point x="156" y="23" type="line"/>
		</contour>
		<contour>
			<point x="156" y="525" type="line"/>
			<point x="317" y="539" type="line"/>
			<point x="317" y="654" type="line"/>
			<point x="156" y="654" type="line"/>
		</contour>
	</outline>
</glyph>
<glyph name="yen" format="2">
	<advance width="420"/>
	<unicode hex="00A5"/>
	<outline>
		<contour>
			<point x="32" y="285" type="line"/>
			<point x="122" y="285" type="line"/>
			<point x="122" y="263" type="line"/>
			<point x="32" y="263" type="line"/>
			<point x="32" y="172" type="line"/>
			<point x="122" y="172" type="line"/>
			<point x="122" y="0" type="line"/>
			<point x="297" y="0" type="line"/>
			<point x="297" y="172" type="line"/>
			<point x="387" y="172" type="line"/>
			<point x="387" y="263" type="line"/>
			<point x="297" y="263" type="line"/>
			<point x="297" y="285" type="line"/>
			<point x="387" y="285" type="line"/>
			<point x="387" y="376" type="line"/>
			<point x="297" y="376" type="line"/>
			<point x="430" y="700" type="line"/>
			<point x="234" y="700" type="line"/>
			<point x="210" y="492" type="line"/>
			<point x="186" y="700" type="line"/>
			<point x="-10" y="700" type="line"/>
			<point x="122" y="376" type="line"/>
			<point x="32" y="376" type="line"/>
		</contour>
	</outline>
</glyph>
<glyph name="ordfeminine" format="2">
  <advance width="294"/>
  <unicode hex="00AA"/>
  <outline>
    <contour>
      <point x="24" y="241" type="line"/>
      <point x="269" y="241" type="line"/>
      <point x="269" y="327" type="line"/>
      <point x="24" y="327" type="line"/>
    </contour>
    <contour>
      <point x="17" y="463" type="curve" smooth="yes"/>
      <point x="17" y="415"/>
      <point x="36" y="364"/>
      <point x="91" y="364" type="curve" smooth="yes"/>
      <point x="122" y="364"/>
      <point x="134" y="371"/>
      <point x="153" y="386" type="curve"/>
      <point x="166" y="371"/>
      <point x="181" y="364"/>
      <point x="212" y="364" type="curve" smooth="yes"/>
      <point x="242" y="364"/>
      <point x="259" y="371"/>
      <point x="275" y="379" type="curve"/>
      <point x="268" y="475" type="line"/>
      <point x="266" y="475"/>
      <point x="263" y="474"/>
      <point x="259" y="474" type="curve" smooth="yes"/>
      <point x="257" y="474"/>
      <point x="253" y="477"/>
      <point x="253" y="489" type="curve" smooth="yes"/>
      <point x="253" y="567" type="line" smooth="yes"/>
      <point x="253" y="642"/>
      <point x="220" y="689"/>
      <point x="125" y="689" type="curve" smooth="yes"/>
      <point x="98" y="689"/>
      <point x="55" y="681"/>
      <point x="27" y="670" type="curve"/>
      <point x="51" y="573" type="line"/>
      <point x="86" y="584"/>
      <point x="106" y="584"/>
      <point x="115" y="584" type="curve" smooth="yes"/>
      <point x="128" y="584"/>
      <point x="141" y="580"/>
      <point x="141" y="568" type="curve" smooth="yes"/>
      <point x="141" y="567" type="line"/>
      <point x="60" y="558"/>
      <point x="17" y="540"/>
    </contour>
    <contour>
      <point x="124" y="474" type="curve" smooth="yes"/>
      <point x="124" y="487"/>
      <point x="126" y="503"/>
      <point x="142" y="503" type="curve"/>
      <point x="142" y="454" type="line"/>
      <point x="140" y="452"/>
      <point x="137" y="451"/>
      <point x="135" y="451" type="curve" smooth="yes"/>
      <point x="129" y="451"/>
      <point x="124" y="457"/>
    </contour>
  </outline>
</glyph>
<glyph name="periodcentered" format="2">
	<advance width="200"/>
	<unicode hex="00B7"/>
	<outline>
		<contour>
			<point x="7" y="328" type="curve" smooth="yes"/>
			<point x="7" y="250"/>
			<point x="35" y="211"/>
			<point x="100" y="211" type="curve" smooth="yes"/>
			<point x="165" y="211"/>
			<point x="193" y="250"/>
			<point x="193" y="328" type="curve" smooth="yes"/>
			<point x="193" y="407"/>
			<point x="165" y="446"/>
			<point x="100" y="446" type="curve" smooth="yes"/>
			<point x="35" y="446"/>
			<point x="7" y="407"/>
		</contour>
	</outline>
</glyph>
<glyph name="uni00B9" format="2">
	<advance width="241"/>
	<unicode hex="00B9"/>
	<outline>
		<contour>
			<point x="25" y="370" type="line"/>
			<point x="230" y="370" type="line"/>
			<point x="230" y="461" type="line"/>
			<point x="186" y="461" type="line"/>
			<point x="186" y="769" type="line"/>
			<point x="131" y="769" type="line"/>
			<point x="14" y="740" type="line"/>
			<point x="31" y="635" type="line"/>
			<point x="76" y="644" type="line"/>
			<point x="76" y="461" type="line"/>
			<point x="25" y="461" type="line"/>
		</contour>
	</outline>
</glyph>
<glyph name="ordmasculine" format="2">
  <advance width="290"/>
  <unicode hex="00BA"/>
  <outline>
    <contour>
      <point x="27" y="241" type="line"/>
      <point x="272" y="241" type="line"/>
      <point x="272" y="327" type="line"/>
      <point x="27" y="327" type="line"/>
    </contour>
    <contour>
      <point x="18" y="527" type="curve" smooth="yes"/>
      <point x="18" y="438"/>
      <point x="37" y="362"/>
      <point x="142" y="362" type="curve" smooth="yes"/>
      <point x="247" y="362"/>
      <point x="267" y="438"/>
      <point x="267" y="527" type="curve" smooth="yes"/>
      <point x="267" y="617"/>
      <point x="247" y="689"/>
      <point x="142" y="689" type="curve" smooth="yes"/>
      <point x="37" y="689"/>
      <point x="18" y="617"/>
    </contour>
    <contour>
      <point x="134" y="527" type="curve" smooth="yes"/>
      <point x="134" y="589"/>
      <point x="134" y="593"/>
      <point x="142" y="593" type="curve" smooth="yes"/>
      <point x="149" y="593"/>
      <point x="151" y="589"/>
      <point x="151" y="527" type="curve" smooth="yes"/>
      <point x="151" y="465"/>
      <point x="149" y="459"/>
      <point x="142" y="459" type="curve" smooth="yes"/>
      <point x="134" y="459"/>
      <point x="134" y="465"/>
    </contour>
  </outline>
</glyph>
<glyph name="AE" format="2">
  <advance width="640"/>
  <unicode hex="00C6"/>
  <guideline x="298" y="580" angle="259.9275"/>
  <anchor x="369" y="700" name="top"/>
  <outline>
    <contour>
      <point x="2" y="0" type="line"/>
      <point x="195" y="0" type="line"/>
      <point x="213" y="101" type="line"/>
      <point x="300" y="101" type="line"/>
      <point x="300" y="0" type="line"/>
      <point x="628" y="0" type="line"/>
      <point x="628" y="178" type="line"/>
      <point x="469" y="178" type="line"/>
      <point x="469" y="264" type="line"/>
      <point x="594" y="264" type="line"/>
      <point x="594" y="432" type="line"/>
      <point x="469" y="432" type="line"/>
      <point x="469" y="517" type="line"/>
      <point x="617" y="517" type="line"/>
      <point x="617" y="700" type="line"/>
      <point x="176" y="700" type="line"/>
    </contour>
    <contour>
      <point x="244" y="276" type="line"/>
      <point x="298" y="580" type="line"/>
      <point x="298" y="276" type="line"/>
    </contour>
  </outline>
</glyph>
<glyph name="Oslash" format="2">
	<advance width="421"/>
	<unicode hex="00D8"/>
	<anchor x="213" y="700" name="top"/>
	<outline>
		<contour>
			<point x="86" y="-10" type="line"/>
			<point x="141" y="117" type="line"/>
			<point x="147" y="116" type="line"/>
			<point x="334" y="567" type="line"/>
			<point x="340" y="565" type="line"/>
			<point x="407" y="720" type="line"/>
			<point x="340" y="720" type="line"/>
			<point x="292" y="609" type="line"/>
			<point x="286" y="610" type="line"/>
			<point x="96" y="155" type="line"/>
			<point x="90" y="157" type="line"/>
			<point x="18" y="-10" type="line"/>
		</contour>
		<contour>
			<point x="213" y="150" type="curve" smooth="yes"/>
			<point x="183" y="150"/>
			<point x="183" y="179"/>
			<point x="183" y="349" type="curve" smooth="yes"/>
			<point x="183" y="519"/>
			<point x="184" y="550"/>
			<point x="213" y="550" type="curve" smooth="yes"/>
			<point x="243" y="550"/>
			<point x="243" y="521"/>
			<point x="243" y="351" type="curve" smooth="yes"/>
			<point x="243" y="181"/>
			<point x="242" y="150"/>
		</contour>
		<contour>
			<point x="212" y="-10" type="curve" smooth="yes"/>
			<point x="353" y="-10"/>
			<point x="414" y="77"/>
			<point x="414" y="352" type="curve" smooth="yes"/>
			<point x="414" y="625"/>
			<point x="354" y="710"/>
			<point x="213" y="710" type="curve" smooth="yes"/>
			<point x="72" y="710"/>
			<point x="11" y="623"/>
			<point x="11" y="348" type="curve" smooth="yes"/>
			<point x="11" y="75"/>
			<point x="71" y="-10"/>
		</contour>
	</outline>
</glyph>
<glyph name="germandbls" format="2">
  <advance width="574"/>
  <unicode hex="00DF"/>
  <outline>
    <contour>
      <point x="46.0" y="0.0" type="line"/>
      <point x="221.0" y="0.0" type="line"/>
      <point x="221.0" y="499.0" type="line" smooth="yes"/>
      <point x="221.0" y="549.0"/>
      <point x="247.0" y="587.0"/>
      <point x="302.0" y="587.0" type="curve" smooth="yes"/>
      <point x="340.0" y="587.0"/>
      <point x="355.0" y="579.0"/>
      <point x="355.0" y="554.0" type="curve" smooth="yes"/>
      <point x="355.0" y="533.0"/>
      <point x="341.0" y="527.0"/>
      <point x="308.0" y="506.0" type="curve" smooth="yes"/>
      <point x="265.0" y="479.0"/>
      <point x="242.0" y="439.0"/>
      <point x="242.0" y="367.0" type="curve" smooth="yes"/>
      <point x="242.0" y="259.0"/>
      <point x="284.0" y="213.0"/>
      <point x="355.0" y="196.0" type="curve" smooth="yes"/>
      <point x="399.0" y="185.0"/>
      <point x="406.0" y="186.0"/>
      <point x="406.0" y="173.0" type="curve" smooth="yes"/>
      <point x="406.0" y="161.0"/>
      <point x="393.0" y="154.0"/>
      <point x="370.0" y="154.0" type="curve" smooth="yes"/>
      <point x="332.0" y="154.0"/>
      <point x="288.0" y="161.0"/>
      <point x="250.0" y="171.0" type="curve"/>
      <point x="234.0" y="18.0" type="line"/>
      <point x="273.0" y="-1.0"/>
      <point x="327.0" y="-10.0"/>
      <point x="379.0" y="-10.0" type="curve" smooth="yes"/>
      <point x="503.0" y="-10.0"/>
      <point x="571.0" y="59.0"/>
      <point x="571.0" y="183.0" type="curve" smooth="yes"/>
      <point x="571.0" y="276.0"/>
      <point x="539.0" y="330.0"/>
      <point x="455.0" y="350.0" type="curve" smooth="yes"/>
      <point x="414.0" y="360.0"/>
      <point x="407.0" y="368.0"/>
      <point x="407.0" y="380.0" type="curve" smooth="yes"/>
      <point x="407.0" y="393.0"/>
      <point x="413.0" y="397.0"/>
      <point x="443.0" y="409.0" type="curve" smooth="yes"/>
      <point x="518.0" y="440.0"/>
      <point x="544.0" y="482.0"/>
      <point x="544.0" y="555.0" type="curve" smooth="yes"/>
      <point x="544.0" y="681.0"/>
      <point x="455.0" y="750.0"/>
      <point x="292.0" y="750.0" type="curve" smooth="yes"/>
      <point x="137.0" y="750.0"/>
      <point x="46.0" y="674.0"/>
      <point x="46.0" y="537.0" type="curve" smooth="yes"/>
      <point x="46.0" y="529.0" type="line"/>
      <point x="5.0" y="522.0" type="line"/>
      <point x="5.0" y="379.0" type="line"/>
      <point x="46.0" y="379.0" type="line"/>
    </contour>
  </outline>
</glyph>
<glyph name="eth" format="2">
	<advance width="410"/>
	<unicode hex="00F0"/>
	<outline>
		<contour>
			<point x="243" y="399" type="curve"/>
			<point x="252" y="526" type="line"/>
			<point x="229" y="534"/>
			<point x="205" y="539"/>
			<point x="184" y="539" type="curve" smooth="yes"/>
			<point x="55" y="539"/>
			<point x="10" y="446"/>
			<point x="10" y="245" type="curve" smooth="yes"/>
			<point x="10" y="71"/>
			<point x="69" y="-10"/>
			<point x="197" y="-10" type="curve" smooth="yes"/>
			<point x="350" y="-10"/>
			<point x="400" y="79"/>
			<point x="400" y="351" type="curve" smooth="yes"/>
			<point x="400" y="617"/>
			<point x="312" y="750"/>
			<point x="137" y="750" type="curve" smooth="yes"/>
			<point x="91" y="750"/>
			<point x="47" y="737"/>
			<point x="15" y="723" type="curve"/>
			<point x="34" y="608" type="line"/>
			<point x="51" y="614"/>
			<point x="73" y="621"/>
			<point x="95" y="621" type="curve" smooth="yes"/>
			<point x="198" y="621"/>
			<point x="221" y="577"/>
			<point x="221" y="381" type="curve" smooth="yes"/>
			<point x="221" y="139"/>
			<point x="219" y="119"/>
			<point x="205" y="119" type="curve" smooth="yes"/>
			<point x="192" y="119"/>
			<point x="191" y="145"/>
			<point x="191" y="246" type="curve" smooth="yes"/>
			<point x="191" y="392"/>
			<point x="197" y="405"/>
			<point x="216" y="405" type="curve" smooth="yes"/>
			<point x="222" y="405"/>
			<point x="231" y="403"/>
		</contour>
		<contour>
			<point x="137" y="553" type="line"/>
			<point x="234" y="628" type="line"/>
			<point x="235" y="631" type="line"/>
			<point x="389" y="749" type="line"/>
			<point x="278" y="750" type="line"/>
			<point x="182" y="676" type="line"/>
			<point x="183" y="671" type="line"/>
			<point x="31" y="554" type="line"/>
		</contour>
	</outline>
</glyph>
<glyph name="Dcroat" format="2">
  <advance width="435"/>
  <unicode hex="0110"/>
  <outline>
    <contour>
      <point x="-3" y="268" type="line"/>
      <point x="218" y="268" type="line"/>
      <point x="218" y="431" type="line"/>
      <point x="-3" y="431" type="line"/>
    </contour>
    <contour>
      <point x="191" y="-10" type="curve" smooth="yes"/>
      <point x="360" y="-10"/>
      <point x="426" y="93"/>
      <point x="426" y="354" type="curve" smooth="yes"/>
      <point x="426" y="605"/>
      <point x="374" y="710"/>
      <point x="195" y="710" type="curve" smooth="yes"/>
      <point x="127" y="710"/>
      <point x="77" y="707"/>
      <point x="22" y="698" type="curve"/>
      <point x="22" y="0" type="line"/>
      <point x="69" y="-7"/>
      <point x="127" y="-10"/>
    </contour>
    <contour>
      <point x="215" y="159" type="curve" smooth="yes"/>
      <point x="205" y="159"/>
      <point x="202" y="160"/>
      <point x="197" y="161" type="curve"/>
      <point x="197" y="536" type="line"/>
      <point x="202" y="538"/>
      <point x="209" y="539"/>
      <point x="215" y="539" type="curve" smooth="yes"/>
      <point x="240" y="539"/>
      <point x="244" y="514"/>
      <point x="244" y="350" type="curve" smooth="yes"/>
      <point x="244" y="197"/>
      <point x="238" y="159"/>
    </contour>
  </outline>
</glyph>
<glyph name="dcroat" format="2">
  <advance width="423"/>
  <unicode hex="0111"/>
  <outline>
    <contour>
      <point x="144" y="605" type="line"/>
      <point x="435" y="605" type="line"/>
      <point x="435" y="709" type="line"/>
      <point x="144" y="709" type="line"/>
    </contour>
    <contour>
      <point x="238" y="0" type="line"/>
      <point x="397" y="0" type="line"/>
      <point x="397" y="740" type="line"/>
      <point x="221" y="740" type="line"/>
      <point x="221" y="555" type="line"/>
      <point x="211" y="558"/>
      <point x="195" y="560"/>
      <point x="184" y="560" type="curve" smooth="yes"/>
      <point x="72" y="560"/>
      <point x="10" y="455"/>
      <point x="10" y="265" type="curve" smooth="yes"/>
      <point x="10" y="82"/>
      <point x="55" y="-10"/>
      <point x="145" y="-10" type="curve" smooth="yes"/>
      <point x="175" y="-10"/>
      <point x="207" y="1"/>
      <point x="226" y="17" type="curve"/>
    </contour>
    <contour>
      <point x="221" y="160" type="line"/>
      <point x="220" y="159"/>
      <point x="215" y="157"/>
      <point x="212" y="157" type="curve" smooth="yes"/>
      <point x="199" y="157"/>
      <point x="197" y="180"/>
      <point x="197" y="294" type="curve" smooth="yes"/>
      <point x="197" y="394"/>
      <point x="199" y="411"/>
      <point x="211" y="411" type="curve" smooth="yes"/>
      <point x="215" y="411"/>
      <point x="217" y="410"/>
      <point x="221" y="405" type="curve"/>
    </contour>
  </outline>
</glyph>
<glyph name="Hbar" format="2">
	<advance width="433"/>
	<unicode hex="0126"/>
	<outline>
		<contour>
			<point x="-3" y="503" type="line"/>
			<point x="22" y="503" type="line"/>
			<point x="22" y="0" type="line"/>
			<point x="197" y="0" type="line"/>
			<point x="197" y="228" type="line"/>
			<point x="236" y="228" type="line"/>
			<point x="236" y="0" type="line"/>
			<point x="411" y="0" type="line"/>
			<point x="411" y="503" type="line"/>
			<point x="436" y="503" type="line"/>
			<point x="436" y="650" type="line"/>
			<point x="411" y="650" type="line"/>
			<point x="411" y="700" type="line"/>
			<point x="236" y="700" type="line"/>
			<point x="236" y="650" type="line"/>
			<point x="197" y="650" type="line"/>
			<point x="197" y="700" type="line"/>
			<point x="22" y="700" type="line"/>
			<point x="22" y="650" type="line"/>
			<point x="-3" y="650" type="line"/>
		</contour>
		<contour>
			<point x="197" y="413" type="line"/>
			<point x="197" y="503" type="line"/>
			<point x="236" y="503" type="line"/>
			<point x="236" y="413" type="line"/>
		</contour>
	</outline>
</glyph>
<glyph name="hbar" format="2">
  <advance width="416"/>
  <unicode hex="0127"/>
  <outline>
    <contour>
      <point x="-8" y="605" type="line"/>
      <point x="262" y="605" type="line"/>
      <point x="262" y="709" type="line"/>
      <point x="-8" y="709" type="line"/>
    </contour>
    <contour>
      <point x="19" y="0" type="line"/>
      <point x="194" y="0" type="line"/>
      <point x="194" y="380" type="line"/>
      <point x="200" y="385"/>
      <point x="204" y="387"/>
      <point x="211" y="387" type="curve" smooth="yes"/>
      <point x="215" y="387"/>
      <point x="223" y="385"/>
      <point x="223" y="371" type="curve" smooth="yes"/>
      <point x="223" y="0" type="line"/>
      <point x="399" y="0" type="line"/>
      <point x="399" y="421" type="line" smooth="yes"/>
      <point x="399" y="522"/>
      <point x="357" y="560"/>
      <point x="292" y="560" type="curve" smooth="yes"/>
      <point x="262" y="560"/>
      <point x="224" y="547"/>
      <point x="194" y="514" type="curve"/>
      <point x="194" y="740" type="line"/>
      <point x="19" y="740" type="line"/>
    </contour>
  </outline>
</glyph>
<glyph name="Idotaccent" format="2">
  <advance width="219"/>
  <unicode hex="0130"/>
  <outline>
    <contour>
      <point x="111" y="719" type="curve" smooth="yes"/>
      <point x="175" y="719"/>
      <point x="209" y="756"/>
      <point x="209" y="829" type="curve" smooth="yes"/>
      <point x="209" y="904"/>
      <point x="173" y="940"/>
      <point x="111" y="940" type="curve" smooth="yes"/>
      <point x="48" y="940"/>
      <point x="12" y="904"/>
      <point x="12" y="829" type="curve" smooth="yes"/>
      <point x="12" y="755"/>
      <point x="48" y="719"/>
    </contour>
    <component base="I"/>
  </outline>
</glyph>
<glyph name="kgreenlandic" format="2">
  <advance width="400"/>
  <unicode hex="0138"/>
  <anchor x="205" y="550" name="top"/>
  <anchor x="205" y="0" name="bottom"/>
  <outline>
    <contour>
      <point x="344" y="-10" type="curve" smooth="yes"/>
      <point x="359" y="-10"/>
      <point x="373" y="-9"/>
      <point x="389" y="-5" type="curve"/>
      <point x="389" y="183" type="line"/>
      <point x="386" y="183"/>
      <point x="384" y="183"/>
      <point x="381" y="183" type="curve" smooth="yes"/>
      <point x="354" y="183"/>
      <point x="333" y="197"/>
      <point x="278" y="284" type="curve" smooth="yes"/>
      <point x="183" y="434" type="line"/>
      <point x="183" y="550" type="line"/>
      <point x="19" y="550" type="line"/>
      <point x="19" y="0" type="line"/>
      <point x="183" y="0" type="line"/>
      <point x="183" y="152" type="line"/>
      <point x="231" y="69" type="line" smooth="yes"/>
      <point x="265" y="11"/>
      <point x="295" y="-10"/>
    </contour>
    <contour>
      <point x="270" y="212" type="line"/>
      <point x="346" y="323"/>
      <point x="397" y="449"/>
      <point x="403" y="544" type="curve"/>
      <point x="235" y="554" type="line"/>
      <point x="235" y="461"/>
      <point x="216" y="403"/>
      <point x="163" y="326" type="curve"/>
    </contour>
  </outline>
</glyph>
<glyph name="Ldot" format="2">
  <advance width="345"/>
  <unicode hex="013F"/>
  <outline>
    <contour>
      <point x="224" y="396" type="curve" smooth="yes"/>
      <point x="224" y="346"/>
      <point x="242" y="321"/>
      <point x="283" y="321" type="curve" smooth="yes"/>
      <point x="325" y="321"/>
      <point x="343" y="346"/>
      <point x="343" y="396" type="curve" smooth="yes"/>
      <point x="343" y="447"/>
      <point x="325" y="472"/>
      <point x="283" y="472" type="curve" smooth="yes"/>
      <point x="242" y="472"/>
      <point x="224" y="447"/>
    </contour>
    <contour>
      <point x="22" y="0" type="line"/>
      <point x="335" y="0" type="line"/>
      <point x="335" y="178" type="line"/>
      <point x="198" y="178" type="line"/>
      <point x="198" y="700" type="line"/>
      <point x="22" y="700" type="line"/>
    </contour>
  </outline>
</glyph>
<glyph name="ldot" format="2">
  <advance width="361"/>
  <unicode hex="0140"/>
  <outline>
    <contour>
      <point x="286" y="299" type="curve" smooth="yes"/>
      <point x="323" y="299"/>
      <point x="347" y="322"/>
      <point x="347" y="376" type="curve" smooth="yes"/>
      <point x="347" y="431"/>
      <point x="323" y="454"/>
      <point x="286" y="454" type="curve" smooth="yes"/>
      <point x="250" y="454"/>
      <point x="226" y="431"/>
      <point x="226" y="376" type="curve" smooth="yes"/>
      <point x="226" y="322"/>
      <point x="250" y="299"/>
    </contour>
    <contour>
      <point x="194" y="740" type="line"/>
      <point x="19" y="740" type="line"/>
      <point x="19" y="177" type="line" smooth="yes"/>
      <point x="19" y="45"/>
      <point x="61" y="-10"/>
      <point x="156" y="-10" type="curve" smooth="yes"/>
      <point x="191" y="-10"/>
      <point x="222" y="4"/>
      <point x="238" y="16" type="curve"/>
      <point x="228" y="169" type="line"/>
      <point x="223" y="168"/>
      <point x="217" y="167"/>
      <point x="213" y="167" type="curve" smooth="yes"/>
      <point x="202" y="167"/>
      <point x="194" y="174"/>
      <point x="194" y="204" type="curve" smooth="yes"/>
    </contour>
  </outline>
</glyph>
<glyph name="lslash" format="2">
	<advance width="263"/>
	<unicode hex="0142"/>
	<guideline x="32" y="364" angle="41.0091"/>
	<outline>
		<contour>
			<point x="169" y="-10" type="curve" smooth="yes"/>
			<point x="204" y="-10"/>
			<point x="235" y="4"/>
			<point x="251" y="16" type="curve"/>
			<point x="241" y="189" type="line"/>
			<point x="236" y="188"/>
			<point x="230" y="187"/>
			<point x="226" y="187" type="curve" smooth="yes"/>
			<point x="215" y="187"/>
			<point x="207" y="194"/>
			<point x="207" y="224" type="curve" smooth="yes"/>
			<point x="207" y="365" type="line"/>
			<point x="251" y="403" type="line"/>
			<point x="251" y="554" type="line"/>
			<point x="207" y="516" type="line"/>
			<point x="207" y="740" type="line"/>
			<point x="32" y="740" type="line"/>
			<point x="32" y="364" type="line"/>
			<point x="3" y="339" type="line"/>
			<point x="3" y="188" type="line"/>
			<point x="32" y="213" type="line"/>
			<point x="32" y="177" type="line" smooth="yes"/>
			<point x="32" y="45"/>
			<point x="74" y="-10"/>
		</contour>
	</outline>
</glyph>
<glyph name="eng" format="2">
  <advance width="417"/>
  <unicode hex="014B"/>
  <outline>
    <contour>
      <point x="400" y="19" type="curve"/>
      <point x="400" y="431" type="line" smooth="yes"/>
      <point x="400" y="510"/>
      <point x="366" y="560"/>
      <point x="293" y="560" type="curve" smooth="yes"/>
      <point x="249" y="560"/>
      <point x="210" y="544"/>
      <point x="178" y="514" type="curve"/>
      <point x="178" y="550" type="line"/>
      <point x="19" y="550" type="line"/>
      <point x="19" y="0" type="line"/>
      <point x="195" y="0" type="line"/>
      <point x="195" y="380" type="line"/>
      <point x="199" y="383"/>
      <point x="204" y="387"/>
      <point x="212" y="387" type="curve" smooth="yes"/>
      <point x="219" y="387"/>
      <point x="224" y="382"/>
      <point x="224" y="371" type="curve" smooth="yes"/>
      <point x="224" y="13" type="line" smooth="yes"/>
      <point x="224" y="-7"/>
      <point x="221" y="-15"/>
      <point x="214" y="-15" type="curve" smooth="yes"/>
      <point x="211" y="-15"/>
      <point x="205" y="-14"/>
      <point x="203" y="-13" type="curve"/>
      <point x="195" y="-213" type="line"/>
      <point x="213" y="-218"/>
      <point x="233" y="-220"/>
      <point x="258" y="-220" type="curve" smooth="yes"/>
      <point x="347" y="-220"/>
      <point x="400" y="-131"/>
    </contour>
  </outline>
</glyph>
<glyph name="Tbar" format="2">
  <advance width="396"/>
  <unicode hex="0166"/>
  <outline>
    <contour>
      <point x="52" y="243" type="line"/>
      <point x="111" y="243" type="line"/>
      <point x="111" y="0" type="line"/>
      <point x="286" y="0" type="line"/>
      <point x="286" y="243" type="line"/>
      <point x="342" y="243" type="line"/>
      <point x="342" y="407" type="line"/>
      <point x="286" y="407" type="line"/>
      <point x="286" y="518" type="line"/>
      <point x="386" y="518" type="line"/>
      <point x="386" y="700" type="line"/>
      <point x="10" y="700" type="line"/>
      <point x="10" y="518" type="line"/>
      <point x="111" y="518" type="line"/>
      <point x="111" y="407" type="line"/>
      <point x="52" y="407" type="line"/>
    </contour>
  </outline>
</glyph>
<glyph name="tbar" format="2">
  <advance width="287"/>
  <unicode hex="0167"/>
  <outline>
    <contour>
      <point x="216" y="239" type="line"/>
      <point x="264" y="239" type="line"/>
      <point x="264" y="363" type="line"/>
      <point x="216" y="363" type="line"/>
      <point x="216" y="400" type="line"/>
      <point x="270" y="400" type="line"/>
      <point x="270" y="550" type="line"/>
      <point x="216" y="550" type="line"/>
      <point x="216" y="654" type="line"/>
      <point x="64" y="654" type="line"/>
      <point x="41" y="550" type="line"/>
      <point x="5" y="544" type="line"/>
      <point x="5" y="401" type="line"/>
      <point x="41" y="401" type="line"/>
      <point x="41" y="363" type="line"/>
      <point x="8" y="363" type="line"/>
      <point x="8" y="239" type="line"/>
      <point x="41" y="239" type="line"/>
      <point x="41" y="186" type="line" smooth="yes"/>
      <point x="41" y="54"/>
      <point x="86" y="-10"/>
      <point x="172" y="-10" type="curve" smooth="yes"/>
      <point x="203" y="-10"/>
      <point x="249" y="-7"/>
      <point x="291" y="15" type="curve"/>
      <point x="265" y="162" type="line"/>
      <point x="249" y="159"/>
      <point x="241" y="159"/>
      <point x="240" y="159" type="curve" smooth="yes"/>
      <point x="227" y="159"/>
      <point x="216" y="166"/>
      <point x="216" y="208" type="curve" smooth="yes"/>
    </contour>
  </outline>
</glyph>
<glyph name="uogonek" format="2">
  <advance width="433"/>
  <unicode hex="0173"/>
  <outline>
    <contour>
      <point x="365" y="-205" type="curve" smooth="yes"/>
      <point x="397" y="-205"/>
      <point x="417" y="-201"/>
      <point x="435" y="-193" type="curve"/>
      <point x="427" y="-56" type="line"/>
      <point x="424" y="-57"/>
      <point x="419" y="-58"/>
      <point x="412" y="-58" type="curve" smooth="yes"/>
      <point x="399" y="-58"/>
      <point x="389" y="-49"/>
      <point x="389" y="-35" type="curve" smooth="yes"/>
      <point x="389" y="-16"/>
      <point x="399" y="-5"/>
      <point x="431" y="15" type="curve"/>
      <point x="420" y="176" type="line"/>
      <point x="417" y="175"/>
      <point x="411" y="174"/>
      <point x="407" y="174" type="curve" smooth="yes"/>
      <point x="400" y="174"/>
      <point x="397" y="178"/>
      <point x="397" y="199" type="curve" smooth="yes"/>
      <point x="397" y="550" type="line"/>
      <point x="222" y="550" type="line"/>
      <point x="222" y="170" type="line"/>
      <point x="217" y="165"/>
      <point x="211" y="163"/>
      <point x="205" y="163" type="curve" smooth="yes"/>
      <point x="201" y="163"/>
      <point x="193" y="165"/>
      <point x="193" y="179" type="curve" smooth="yes"/>
      <point x="193" y="550" type="line"/>
      <point x="17" y="550" type="line"/>
      <point x="17" y="149" type="line" smooth="yes"/>
      <point x="17" y="28"/>
      <point x="68" y="-10"/>
      <point x="133" y="-10" type="curve" smooth="yes"/>
      <point x="175" y="-10"/>
      <point x="211" y="6"/>
      <point x="241" y="33" type="curve"/>
      <point x="262" y="9"/>
      <point x="290" y="-10"/>
      <point x="332" y="-10" type="curve" smooth="yes"/>
      <point x="346" y="-10"/>
      <point x="359" y="-9"/>
      <point x="370" y="-7" type="curve"/>
      <point x="337" y="7" type="line"/>
      <point x="282" y="-9"/>
      <point x="246" y="-51"/>
      <point x="246" y="-101" type="curve" smooth="yes"/>
      <point x="246" y="-168"/>
      <point x="290" y="-205"/>
    </contour>
  </outline>
</glyph>
<glyph name="longs" format="2">
  <advance width="246"/>
  <unicode hex="017F"/>
  <outline>
    <contour>
      <point x="221" y="529" type="line"/>
      <point x="221" y="571"/>
      <point x="233" y="583"/>
      <point x="251" y="583" type="curve" smooth="yes"/>
      <point x="256" y="583"/>
      <point x="280" y="579"/>
      <point x="289" y="575" type="curve"/>
      <point x="316" y="721" type="line"/>
      <point x="282" y="737"/>
      <point x="246" y="750"/>
      <point x="192" y="750" type="curve" smooth="yes"/>
      <point x="98" y="750"/>
      <point x="46" y="676"/>
      <point x="46" y="544" type="curve" smooth="yes"/>
      <point x="46" y="529" type="line"/>
      <point x="5" y="522" type="line"/>
      <point x="5" y="379" type="line"/>
      <point x="46" y="379" type="line"/>
      <point x="46" y="0" type="line"/>
      <point x="221" y="0" type="line"/>
    </contour>
  </outline>
</glyph>
<glyph name="uni018F" format="2">
  <advance width="394"/>
  <unicode hex="018F"/>
  <outline>
    <contour>
      <point x="56" y="506" type="line"/>
      <point x="95" y="523"/>
      <point x="120" y="529"/>
      <point x="146" y="529" type="curve" smooth="yes"/>
      <point x="177" y="529"/>
      <point x="197" y="502"/>
      <point x="201" y="454" type="curve" smooth="yes"/>
      <point x="202" y="447"/>
      <point x="202" y="441"/>
      <point x="202" y="433" type="curve"/>
      <point x="139" y="423"/>
      <point x="80" y="414"/>
      <point x="15" y="404" type="curve"/>
      <point x="14" y="375"/>
      <point x="13" y="337"/>
      <point x="13" y="319" type="curve" smooth="yes"/>
      <point x="13" y="92"/>
      <point x="70" y="-10"/>
      <point x="197" y="-10" type="curve" smooth="yes"/>
      <point x="325" y="-10"/>
      <point x="385" y="107"/>
      <point x="385" y="359" type="curve" smooth="yes"/>
      <point x="385" y="588"/>
      <point x="320" y="709"/>
      <point x="198" y="709" type="curve" smooth="yes"/>
      <point x="134" y="709"/>
      <point x="80" y="694"/>
      <point x="30" y="661" type="curve"/>
    </contour>
    <contour>
      <point x="208" y="297" type="curve"/>
      <point x="208" y="196"/>
      <point x="202" y="150"/>
      <point x="189" y="150" type="curve" smooth="yes"/>
      <point x="177" y="150"/>
      <point x="175" y="172"/>
      <point x="175" y="292" type="curve"/>
      <point x="185" y="294"/>
      <point x="197" y="296"/>
    </contour>
  </outline>
</glyph>
<glyph name="tildecomb" format="2">
	<advance width="0"/>
	<unicode hex="0303"/>
	<anchor x="-214" y="771" name="top"/>
	<anchor x="-214" y="550" name="_top"/>
	<outline>
		<contour>
			<point x="-368" y="595" type="curve"/>
			<point x="-275" y="595" type="line"/>
			<point x="-275" y="597"/>
			<point x="-274" y="603"/>
			<point x="-274" y="605" type="curve" smooth="yes"/>
			<point x="-274" y="618"/>
			<point x="-268" y="628"/>
			<point x="-256" y="628" type="curve" smooth="yes"/>
			<point x="-243" y="628"/>
			<point x="-177" y="603"/>
			<point x="-150" y="603" type="curve" smooth="yes"/>
			<point x="-95" y="603"/>
			<point x="-58" y="635"/>
			<point x="-58" y="731" type="curve" smooth="yes"/>
			<point x="-58" y="747"/>
			<point x="-59" y="764"/>
			<point x="-61" y="781" type="curve"/>
			<point x="-154" y="781" type="line"/>
			<point x="-154" y="780"/>
			<point x="-154" y="774"/>
			<point x="-154" y="772" type="curve" smooth="yes"/>
			<point x="-154" y="758"/>
			<point x="-162" y="749"/>
			<point x="-172" y="749" type="curve" smooth="yes"/>
			<point x="-187" y="749"/>
			<point x="-227" y="774"/>
			<point x="-277" y="774" type="curve" smooth="yes"/>
			<point x="-335" y="774"/>
			<point x="-371" y="736"/>
			<point x="-371" y="645" type="curve" smooth="yes"/>
			<point x="-371" y="630"/>
			<point x="-371" y="613"/>
		</contour>
	</outline>
</glyph>
<glyph name="uni0304" format="2">
	<advance width="0"/>
	<unicode hex="0304"/>
	<anchor x="-214" y="764" name="top"/>
	<anchor x="-214" y="550" name="_top"/>
	<outline>
		<contour>
			<point x="-339" y="600" type="line"/>
			<point x="-89" y="600" type="line"/>
			<point x="-89" y="744" type="line"/>
			<point x="-339" y="744" type="line"/>
		</contour>
	</outline>
</glyph>
<glyph name="uni0306" format="2">
	<advance width="0"/>
	<unicode hex="0306"/>
	<anchor x="-214" y="762" name="top"/>
	<anchor x="-214" y="550" name="_top"/>
	<outline>
		<contour>
			<point x="-213" y="600" type="curve" smooth="yes"/>
			<point x="-101" y="600"/>
			<point x="-59" y="635"/>
			<point x="-59" y="745" type="curve" smooth="yes"/>
			<point x="-59" y="754"/>
			<point x="-59" y="764"/>
			<point x="-60" y="774" type="curve"/>
			<point x="-158" y="774" type="line"/>
			<point x="-158" y="772"/>
			<point x="-158" y="771"/>
			<point x="-158" y="769" type="curve" smooth="yes"/>
			<point x="-158" y="750"/>
			<point x="-162" y="725"/>
			<point x="-213" y="725" type="curve" smooth="yes"/>
			<point x="-265" y="725"/>
			<point x="-269" y="750"/>
			<point x="-269" y="769" type="curve" smooth="yes"/>
			<point x="-269" y="771"/>
			<point x="-269" y="772"/>
			<point x="-269" y="774" type="curve"/>
			<point x="-368" y="774" type="line"/>
			<point x="-369" y="764"/>
			<point x="-369" y="754"/>
			<point x="-369" y="745" type="curve" smooth="yes"/>
			<point x="-369" y="617"/>
			<point x="-303" y="600"/>
		</contour>
	</outline>
</glyph>
<glyph name="uni0308" format="2">
	<advance width="0"/>
	<unicode hex="0308"/>
	<anchor x="-214" y="749" name="top"/>
	<anchor x="-214" y="550" name="_top"/>
	<outline>
		<contour>
			<point x="-129" y="595" type="curve" smooth="yes"/>
			<point x="-87" y="595"/>
			<point x="-58" y="611"/>
			<point x="-58" y="681" type="curve" smooth="yes"/>
			<point x="-58" y="752"/>
			<point x="-87" y="769"/>
			<point x="-129" y="769" type="curve" smooth="yes"/>
			<point x="-171" y="769"/>
			<point x="-201" y="752"/>
			<point x="-201" y="681" type="curve" smooth="yes"/>
			<point x="-201" y="611"/>
			<point x="-171" y="595"/>
		</contour>
		<contour>
			<point x="-299" y="595" type="curve" smooth="yes"/>
			<point x="-257" y="595"/>
			<point x="-227" y="611"/>
			<point x="-227" y="681" type="curve" smooth="yes"/>
			<point x="-227" y="752"/>
			<point x="-257" y="769"/>
			<point x="-299" y="769" type="curve" smooth="yes"/>
			<point x="-341" y="769"/>
			<point x="-370" y="752"/>
			<point x="-370" y="681" type="curve" smooth="yes"/>
			<point x="-370" y="611"/>
			<point x="-341" y="595"/>
		</contour>
	</outline>
</glyph>
<glyph name="uni030B" format="2">
	<advance width="0"/>
	<unicode hex="030B"/>
	<anchor x="-183" y="789" name="top"/>
	<anchor x="-214" y="550" name="_top"/>
	<outline>
		<contour>
			<point x="-186" y="595" type="line"/>
			<point x="-77" y="595" type="line"/>
			<point x="-17" y="789" type="line"/>
			<point x="-161" y="789" type="line"/>
		</contour>
		<contour>
			<point x="-349" y="595" type="line"/>
			<point x="-240" y="595" type="line"/>
			<point x="-180" y="789" type="line"/>
			<point x="-324" y="789" type="line"/>
		</contour>
	</outline>
</glyph>
<glyph name="uni030F" format="2">
	<advance width="0"/>
	<unicode hex="030F"/>
	<anchor x="-245" y="789" name="top"/>
	<anchor x="-214" y="550" name="_top"/>
	<outline>
		<contour>
			<point x="-351" y="595" type="line"/>
			<point x="-242" y="595" type="line"/>
			<point x="-267" y="789" type="line"/>
			<point x="-411" y="789" type="line"/>
		</contour>
		<contour>
			<point x="-188" y="595" type="line"/>
			<point x="-79" y="595" type="line"/>
			<point x="-104" y="789" type="line"/>
			<point x="-248" y="789" type="line"/>
		</contour>
	</outline>
</glyph>
<glyph name="uni0312" format="2">
	<advance width="0"/>
	<unicode hex="0312"/>
	<anchor x="-214" y="550" name="_top"/>
	<outline>
		<contour>
			<point x="-144" y="592" type="line"/>
			<point x="-145" y="602"/>
			<point x="-146" y="613"/>
			<point x="-146" y="624" type="curve" smooth="yes"/>
			<point x="-146" y="662"/>
			<point x="-139" y="699"/>
			<point x="-118" y="739" type="curve"/>
			<point x="-233" y="739" type="line"/>
			<point x="-269" y="704"/>
			<point x="-290" y="658"/>
			<point x="-290" y="604" type="curve" smooth="yes"/>
			<point x="-290" y="600"/>
			<point x="-290" y="596"/>
			<point x="-290" y="592" type="curve"/>
		</contour>
	</outline>
</glyph>
<glyph name="uni031B" format="2">
	<advance width="0"/>
	<unicode hex="031B"/>
	<anchor x="-131" y="550" name="_topright"/>
	<anchor x="9" y="655" name="topright"/>
	<outline>
		<contour>
			<point x="-201" y="428" type="line"/>
			<point x="-191" y="428" type="line"/>
			<point x="-51" y="428"/>
			<point x="6" y="495"/>
			<point x="-11" y="655" type="curve"/>
			<point x="-147" y="655" type="line"/>
			<point x="-142" y="569"/>
			<point x="-151" y="550"/>
			<point x="-191" y="550" type="curve"/>
			<point x="-201" y="550" type="line"/>
		</contour>
	</outline>
</glyph>
<glyph name="uni0327" format="2">
	<advance width="0"/>
	<unicode hex="0327"/>
	<anchor x="-214" y="0" name="_bottom"/>
	<anchor x="-233" y="-220" name="bottom"/>
	<outline>
		<contour>
			<point x="-329" y="-93" type="curve"/>
			<point x="-328" y="-210" type="line"/>
			<point x="-304" y="-218"/>
			<point x="-283" y="-220"/>
			<point x="-261" y="-220" type="curve" smooth="yes"/>
			<point x="-174" y="-220"/>
			<point x="-147" y="-172"/>
			<point x="-147" y="-106" type="curve" smooth="yes"/>
			<point x="-147" y="-72"/>
			<point x="-163" y="-16"/>
			<point x="-174" y="6" type="curve"/>
			<point x="-274" y="6" type="line"/>
			<point x="-262" y="-11"/>
			<point x="-252" y="-45"/>
			<point x="-252" y="-60" type="curve" smooth="yes"/>
			<point x="-252" y="-84"/>
			<point x="-271" y="-97"/>
			<point x="-291" y="-97" type="curve" smooth="yes"/>
			<point x="-302" y="-97"/>
			<point x="-311" y="-96"/>
		</contour>
	</outline>
</glyph>
<glyph name="uni0335" format="2">
	<advance width="0"/>
	<unicode hex="0335"/>
	<anchor x="-109" y="350" name="_center"/>
	<outline>
		<contour>
			<point x="-282" y="268" type="line"/>
			<point x="63" y="268" type="line"/>
			<point x="63" y="432" type="line"/>
			<point x="-282" y="432" type="line"/>
		</contour>
	</outline>
</glyph>
<glyph name="pi" format="2">
	<advance width="487"/>
	<unicode hex="03C0"/>
	<outline>
		<contour>
			<point x="372" y="-10" type="curve" smooth="yes"/>
			<point x="418" y="-10"/>
			<point x="447" y="2"/>
			<point x="471" y="15" type="curve"/>
			<point x="460" y="185" type="line"/>
			<point x="457" y="184"/>
			<point x="451" y="183"/>
			<point x="447" y="183" type="curve" smooth="yes"/>
			<point x="440" y="183"/>
			<point x="437" y="187"/>
			<point x="437" y="208" type="curve" smooth="yes"/>
			<point x="437" y="361" type="line"/>
			<point x="470" y="361" type="line"/>
			<point x="470" y="550" type="line"/>
			<point x="192" y="550" type="line" smooth="yes"/>
			<point x="97" y="550"/>
			<point x="73" y="534"/>
			<point x="32" y="498" type="curve"/>
			<point x="30" y="339" type="line"/>
			<point x="38" y="345"/>
			<point x="52" y="351"/>
			<point x="66" y="355" type="curve"/>
			<point x="55" y="237"/>
			<point x="43" y="118"/>
			<point x="32" y="0" type="curve"/>
			<point x="214" y="0" type="line"/>
			<point x="224" y="119"/>
			<point x="232" y="231"/>
			<point x="243" y="361" type="curve"/>
			<point x="262" y="361" type="line"/>
			<point x="262" y="146" type="line" smooth="yes"/>
			<point x="262" y="29"/>
			<point x="288" y="-10"/>
		</contour>
	</outline>
</glyph>
<glyph name="endash" format="2">
	<advance width="421"/>
	<unicode hex="2013"/>
	<outline>
		<contour>
			<point x="20" y="234" type="line"/>
			<point x="401" y="234" type="line"/>
			<point x="401" y="402" type="line"/>
			<point x="20" y="402" type="line"/>
		</contour>
	</outline>
</glyph>
<glyph name="quoteright" format="2">
	<advance width="194"/>
	<unicode hex="2019"/>
	<outline>
		<contour>
			<point x="142" y="430" type="line"/>
			<point x="173" y="497"/>
			<point x="188" y="566"/>
			<point x="188" y="665" type="curve" smooth="yes"/>
			<point x="188" y="676"/>
			<point x="188" y="688"/>
			<point x="187" y="700" type="curve"/>
			<point x="20" y="700" type="line"/>
			<point x="22" y="675"/>
			<point x="23" y="651"/>
			<point x="23" y="626" type="curve" smooth="yes"/>
			<point x="23" y="576"/>
			<point x="18" y="523"/>
			<point x="6" y="452" type="curve"/>
		</contour>
	</outline>
</glyph>
<glyph name="dagger" format="2">
	<advance width="400"/>
	<unicode hex="2020"/>
	<outline>
		<contour>
			<point x="109" y="-210" type="line"/>
			<point x="291" y="-210" type="line"/>
			<point x="291" y="372" type="line"/>
			<point x="376" y="372" type="line"/>
			<point x="376" y="550" type="line"/>
			<point x="291" y="550" type="line"/>
			<point x="291" y="740" type="line"/>
			<point x="109" y="740" type="line"/>
			<point x="109" y="550" type="line"/>
			<point x="24" y="550" type="line"/>
			<point x="24" y="372" type="line"/>
			<point x="109" y="372" type="line"/>
		</contour>
	</outline>
</glyph>
<glyph name="fraction" format="2">
  <advance width="98"/>
  <unicode hex="2044"/>
  <outline>
    <contour>
      <point x="-25" y="0" type="line"/>
      <point x="213" y="700" type="line"/>
      <point x="123" y="700" type="line"/>
      <point x="-115" y="0" type="line"/>
    </contour>
  </outline>
</glyph>
<glyph name="uni2052" format="2">
  <advance width="420"/>
  <unicode hex="2052"/>
  <outline>
    <contour>
      <point x="-9" y="0" type="line"/>
      <point x="132" y="0" type="line"/>
      <point x="429" y="700" type="line"/>
      <point x="288" y="700" type="line"/>
    </contour>
    <contour>
      <point x="5" y="588" type="curve" smooth="yes"/>
      <point x="5" y="510"/>
      <point x="33" y="471"/>
      <point x="98" y="471" type="curve" smooth="yes"/>
      <point x="163" y="471"/>
      <point x="191" y="510"/>
      <point x="191" y="588" type="curve" smooth="yes"/>
      <point x="191" y="667"/>
      <point x="163" y="706"/>
      <point x="98" y="706" type="curve" smooth="yes"/>
      <point x="33" y="706"/>
      <point x="5" y="667"/>
    </contour>
    <contour>
      <point x="229" y="110" type="curve" smooth="yes"/>
      <point x="229" y="32"/>
      <point x="257" y="-7"/>
      <point x="322" y="-7" type="curve" smooth="yes"/>
      <point x="387" y="-7"/>
      <point x="415" y="32"/>
      <point x="415" y="110" type="curve" smooth="yes"/>
      <point x="415" y="189"/>
      <point x="387" y="228"/>
      <point x="322" y="228" type="curve" smooth="yes"/>
      <point x="257" y="228"/>
      <point x="229" y="189"/>
    </contour>
  </outline>
</glyph>
<glyph name="uni2075" format="2">
	<advance width="266"/>
	<unicode hex="2075"/>
	<outline>
		<contour>
			<point x="16" y="390" type="line"/>
			<point x="45" y="374"/>
			<point x="70" y="367"/>
			<point x="110" y="367" type="curve" smooth="yes"/>
			<point x="191" y="367"/>
			<point x="248" y="416"/>
			<point x="248" y="508" type="curve" smooth="yes"/>
			<point x="248" y="579"/>
			<point x="212" y="615"/>
			<point x="159" y="620" type="curve" smooth="yes"/>
			<point x="145" y="620" type="line"/>
			<point x="150" y="671" type="line"/>
			<point x="241" y="671" type="line"/>
			<point x="241" y="777" type="line"/>
			<point x="61" y="777" type="line"/>
			<point x="37" y="543" type="line"/>
			<point x="43" y="536" type="line"/>
			<point x="93" y="536" type="line" smooth="yes"/>
			<point x="123" y="536"/>
			<point x="137" y="526"/>
			<point x="137" y="503" type="curve" smooth="yes"/>
			<point x="137" y="485"/>
			<point x="127" y="470"/>
			<point x="92" y="470" type="curve" smooth="yes"/>
			<point x="69" y="470"/>
			<point x="51" y="476"/>
			<point x="36" y="481" type="curve"/>
		</contour>
	</outline>
</glyph>
<glyph name="uni2076" format="2">
  <advance width="281"/>
  <unicode hex="2076"/>
  <outline>
    <contour>
      <point x="141" y="366" type="curve" smooth="yes"/>
      <point x="231" y="366"/>
      <point x="264" y="422"/>
      <point x="264" y="514" type="curve" smooth="yes"/>
      <point x="264" y="609"/>
      <point x="220" y="637"/>
      <point x="176" y="637" type="curve" smooth="yes"/>
      <point x="148" y="637"/>
      <point x="135" y="628"/>
      <point x="122" y="618" type="curve"/>
      <point x="122" y="541" type="line"/>
      <point x="127" y="550"/>
      <point x="134" y="555"/>
      <point x="141" y="555" type="curve" smooth="yes"/>
      <point x="149" y="555"/>
      <point x="153" y="543"/>
      <point x="153" y="511" type="curve" smooth="yes"/>
      <point x="153" y="467"/>
      <point x="149" y="458"/>
      <point x="143" y="458" type="curve" smooth="yes"/>
      <point x="135" y="458"/>
      <point x="131" y="466"/>
      <point x="131" y="591" type="curve" smooth="yes"/>
      <point x="131" y="660"/>
      <point x="147" y="678"/>
      <point x="187" y="678" type="curve" smooth="yes"/>
      <point x="205" y="678"/>
      <point x="221" y="671"/>
      <point x="229" y="666" type="curve"/>
      <point x="263" y="754" type="line"/>
      <point x="245" y="767"/>
      <point x="201" y="777"/>
      <point x="167" y="777" type="curve" smooth="yes"/>
      <point x="82" y="777"/>
      <point x="18" y="718"/>
      <point x="18" y="557" type="curve" smooth="yes"/>
      <point x="18" y="411"/>
      <point x="66" y="366"/>
    </contour>
  </outline>
</glyph>
<glyph name="uni2077" format="2">
	<advance width="269"/>
	<unicode hex="2077"/>
	<outline>
		<contour>
			<point x="47" y="370" type="curve"/>
			<point x="166" y="370" type="line"/>
			<point x="166" y="429"/>
			<point x="170" y="470"/>
			<point x="200" y="559" type="curve" smooth="yes"/>
			<point x="245" y="696" type="line"/>
			<point x="245" y="769" type="line"/>
			<point x="23" y="769" type="line"/>
			<point x="23" y="678" type="line"/>
			<point x="129" y="678" type="line"/>
			<point x="91" y="584" type="line" smooth="yes"/>
			<point x="55" y="496"/>
			<point x="47" y="433"/>
		</contour>
	</outline>
</glyph>
<glyph name="uni2078" format="2">
	<advance width="301"/>
	<unicode hex="2078"/>
	<outline>
		<contour>
			<point x="147" y="366" type="curve" smooth="yes"/>
			<point x="227" y="366"/>
			<point x="271" y="407"/>
			<point x="271" y="480" type="curve" smooth="yes"/>
			<point x="271" y="607"/>
			<point x="136" y="609"/>
			<point x="136" y="666" type="curve" smooth="yes"/>
			<point x="136" y="678"/>
			<point x="141" y="685"/>
			<point x="151" y="685" type="curve" smooth="yes"/>
			<point x="161" y="685"/>
			<point x="165" y="677"/>
			<point x="165" y="660" type="curve" smooth="yes"/>
			<point x="165" y="634"/>
			<point x="161" y="625"/>
			<point x="145" y="615" type="curve"/>
			<point x="196" y="572" type="line"/>
			<point x="240" y="604"/>
			<point x="262" y="639"/>
			<point x="262" y="678" type="curve" smooth="yes"/>
			<point x="262" y="739"/>
			<point x="220" y="777"/>
			<point x="153" y="777" type="curve" smooth="yes"/>
			<point x="75" y="777"/>
			<point x="32" y="737"/>
			<point x="32" y="665" type="curve" smooth="yes"/>
			<point x="32" y="543"/>
			<point x="167" y="537"/>
			<point x="167" y="478" type="curve" smooth="yes"/>
			<point x="167" y="463"/>
			<point x="162" y="455"/>
			<point x="153" y="455" type="curve" smooth="yes"/>
			<point x="142" y="455"/>
			<point x="136" y="465"/>
			<point x="136" y="484" type="curve" smooth="yes"/>
			<point x="136" y="509"/>
			<point x="140" y="519"/>
			<point x="158" y="535" type="curve"/>
			<point x="92" y="579" type="line"/>
			<point x="49" y="554"/>
			<point x="27" y="519"/>
			<point x="27" y="476" type="curve" smooth="yes"/>
			<point x="27" y="406"/>
			<point x="71" y="366"/>
		</contour>
	</outline>
</glyph>
<glyph name="uni2079" format="2">
  <advance width="282"/>
  <unicode hex="2079"/>
  <outline>
    <contour>
      <point x="105" y="366" type="curve" smooth="yes"/>
      <point x="209" y="366"/>
      <point x="264" y="425"/>
      <point x="264" y="586" type="curve" smooth="yes"/>
      <point x="264" y="732"/>
      <point x="217" y="777"/>
      <point x="141" y="777" type="curve" smooth="yes"/>
      <point x="52" y="777"/>
      <point x="18" y="721"/>
      <point x="18" y="629" type="curve" smooth="yes"/>
      <point x="18" y="534"/>
      <point x="66" y="506"/>
      <point x="111" y="506" type="curve" smooth="yes"/>
      <point x="125" y="506"/>
      <point x="137" y="508"/>
      <point x="148" y="515" type="curve"/>
      <point x="143" y="473"/>
      <point x="127" y="465"/>
      <point x="98" y="465" type="curve" smooth="yes"/>
      <point x="79" y="465"/>
      <point x="67" y="470"/>
      <point x="53" y="477" type="curve"/>
      <point x="19" y="389" type="line"/>
      <point x="42" y="373"/>
      <point x="75" y="366"/>
    </contour>
    <contour>
      <point x="142" y="588" type="curve" smooth="yes"/>
      <point x="135" y="588"/>
      <point x="129" y="595"/>
      <point x="129" y="632" type="curve" smooth="yes"/>
      <point x="129" y="680"/>
      <point x="134" y="685"/>
      <point x="140" y="685" type="curve" smooth="yes"/>
      <point x="147" y="685"/>
      <point x="149" y="682"/>
      <point x="149" y="590" type="curve"/>
      <point x="147" y="589"/>
      <point x="144" y="588"/>
    </contour>
  </outline>
</glyph>
<glyph name="uni207A" format="2">
	<advance width="265"/>
	<unicode hex="207A"/>
	<outline>
		<contour>
			<point x="83" y="458" type="line"/>
			<point x="184" y="458" type="line"/>
			<point x="184" y="507" type="line"/>
			<point x="230" y="507" type="line"/>
			<point x="230" y="607" type="line"/>
			<point x="184" y="607" type="line"/>
			<point x="184" y="653" type="line"/>
			<point x="83" y="653" type="line"/>
			<point x="83" y="607" type="line"/>
			<point x="35" y="607" type="line"/>
			<point x="35" y="507" type="line"/>
			<point x="83" y="507" type="line"/>
		</contour>
	</outline>
</glyph>
<glyph name="uni207B" format="2">
	<advance width="265"/>
	<unicode hex="207B"/>
	<outline>
		<contour>
			<point x="35" y="507" type="line"/>
			<point x="230" y="507" type="line"/>
			<point x="230" y="607" type="line"/>
			<point x="35" y="607" type="line"/>
		</contour>
	</outline>
</glyph>
<glyph name="uni207C" format="2">
	<advance width="265"/>
	<unicode hex="207C"/>
	<outline>
		<contour>
			<point x="230" y="542" type="line"/>
			<point x="35" y="542" type="line"/>
			<point x="35" y="442" type="line"/>
			<point x="230" y="442" type="line"/>
		</contour>
		<contour>
			<point x="230" y="667" type="line"/>
			<point x="35" y="667" type="line"/>
			<point x="35" y="567" type="line"/>
			<point x="230" y="567" type="line"/>
		</contour>
	</outline>
</glyph>
<glyph name="uni207D" format="2">
	<advance width="170"/>
	<unicode hex="207D"/>
	<outline>
		<contour>
			<point x="24" y="559" type="curve" smooth="yes"/>
			<point x="24" y="388"/>
			<point x="67" y="297"/>
			<point x="156" y="284" type="curve"/>
			<point x="156" y="380" type="line"/>
			<point x="127" y="399"/>
			<point x="116" y="421"/>
			<point x="116" y="560" type="curve" smooth="yes"/>
			<point x="116" y="699"/>
			<point x="127" y="722"/>
			<point x="156" y="740" type="curve"/>
			<point x="156" y="835" type="line"/>
			<point x="67" y="822"/>
			<point x="24" y="731"/>
		</contour>
	</outline>
</glyph>
<glyph name="uni20A6" format="2">
	<advance width="420"/>
	<unicode hex="20A6"/>
	<outline>
		<contour>
			<point x="48" y="0" type="line"/>
			<point x="170" y="0" type="line"/>
			<point x="170" y="307" type="line"/>
			<point x="234" y="0" type="line"/>
			<point x="372" y="0" type="line"/>
			<point x="372" y="700" type="line"/>
			<point x="250" y="700" type="line"/>
			<point x="250" y="363" type="line"/>
			<point x="186" y="700" type="line"/>
			<point x="48" y="700" type="line"/>
		</contour>
		<contour>
			<point x="6" y="305" type="line"/>
			<point x="82" y="305" type="line"/>
			<point x="82" y="396" type="line"/>
			<point x="6" y="396" type="line"/>
		</contour>
		<contour>
			<point x="338" y="305" type="line"/>
			<point x="414" y="305" type="line"/>
			<point x="414" y="396" type="line"/>
			<point x="338" y="396" type="line"/>
		</contour>
	</outline>
</glyph>
<glyph name="dong" format="2">
	<advance width="420"/>
	<unicode hex="20AB"/>
	<outline>
		<contour>
			<point x="142" y="125" type="curve" smooth="yes"/>
			<point x="172" y="125"/>
			<point x="204" y="136"/>
			<point x="223" y="152" type="curve"/>
			<point x="235" y="135" type="line"/>
			<point x="394" y="135" type="line"/>
			<point x="394" y="740" type="line"/>
			<point x="218" y="740" type="line"/>
			<point x="218" y="560" type="line"/>
			<point x="208" y="563"/>
			<point x="192" y="565"/>
			<point x="181" y="565" type="curve" smooth="yes"/>
			<point x="67" y="565"/>
			<point x="17" y="479"/>
			<point x="17" y="339" type="curve" smooth="yes"/>
			<point x="17" y="194"/>
			<point x="67" y="125"/>
		</contour>
		<contour>
			<point x="36" y="0" type="line"/>
			<point x="409" y="0" type="line"/>
			<point x="409" y="108" type="line"/>
			<point x="36" y="108" type="line"/>
		</contour>
		<contour>
			<point x="209" y="262" type="curve" smooth="yes"/>
			<point x="196" y="262"/>
			<point x="194" y="285"/>
			<point x="194" y="349" type="curve" smooth="yes"/>
			<point x="194" y="419"/>
			<point x="196" y="436"/>
			<point x="208" y="436" type="curve" smooth="yes"/>
			<point x="212" y="436"/>
			<point x="214" y="435"/>
			<point x="218" y="430" type="curve"/>
			<point x="218" y="265" type="line"/>
			<point x="217" y="264"/>
			<point x="212" y="262"/>
		</contour>
		<contour>
			<point x="73" y="592" type="line"/>
			<point x="431" y="592" type="line"/>
			<point x="431" y="700" type="line"/>
			<point x="73" y="700" type="line"/>
		</contour>
	</outline>
</glyph>
<glyph name="uni20B1" format="2">
	<advance width="420"/>
	<unicode hex="20B1"/>
	<outline>
		<contour>
			<point x="35" y="0" type="line"/>
			<point x="192" y="0" type="line"/>
			<point x="192" y="177" type="line"/>
			<point x="217" y="173"/>
			<point x="221" y="173"/>
			<point x="241" y="173" type="curve" smooth="yes"/>
			<point x="341" y="173"/>
			<point x="385" y="252"/>
			<point x="385" y="448" type="curve" smooth="yes"/>
			<point x="385" y="646"/>
			<point x="339" y="710"/>
			<point x="195" y="710" type="curve" smooth="yes"/>
			<point x="160" y="710"/>
			<point x="107" y="707"/>
			<point x="35" y="702" type="curve"/>
		</contour>
		<contour>
			<point x="2" y="444" type="line"/>
			<point x="101" y="444" type="line"/>
			<point x="101" y="548" type="line"/>
			<point x="2" y="548" type="line"/>
		</contour>
		<contour>
			<point x="206" y="318" type="curve" smooth="yes"/>
			<point x="200" y="318"/>
			<point x="196" y="319"/>
			<point x="192" y="321" type="curve"/>
			<point x="192" y="559" type="line"/>
			<point x="197" y="561"/>
			<point x="205" y="562"/>
			<point x="209" y="562" type="curve" smooth="yes"/>
			<point x="224" y="562"/>
			<point x="228" y="535"/>
			<point x="228" y="445" type="curve" smooth="yes"/>
			<point x="228" y="344"/>
			<point x="223" y="318"/>
		</contour>
		<contour>
			<point x="330" y="444" type="line"/>
			<point x="418" y="444" type="line"/>
			<point x="418" y="548" type="line"/>
			<point x="330" y="548" type="line"/>
		</contour>
		<contour>
			<point x="2" y="304" type="line"/>
			<point x="101" y="304" type="line"/>
			<point x="101" y="408" type="line"/>
			<point x="2" y="408" type="line"/>
		</contour>
		<contour>
			<point x="330" y="304" type="line"/>
			<point x="418" y="304" type="line"/>
			<point x="418" y="408" type="line"/>
			<point x="330" y="408" type="line"/>
		</contour>
	</outline>
</glyph>
<glyph name="uni20B9" format="2">
	<advance width="420"/>
	<unicode hex="20B9"/>
	<guideline x="63" y="795" angle="90"/>
	<outline>
		<contour>
			<point x="184" y="0" type="line"/>
			<point x="397" y="0" type="line"/>
			<point x="163" y="312" type="line"/>
			<point x="108" y="230" type="line"/>
			<point x="108" y="230" type="line"/>
			<point x="257" y="230"/>
			<point x="355" y="313"/>
			<point x="355" y="454" type="curve" smooth="yes"/>
			<point x="355" y="510"/>
			<point x="337" y="554"/>
			<point x="309" y="585" type="curve"/>
			<point x="397" y="585" type="line"/>
			<point x="397" y="700" type="line"/>
			<point x="23" y="700" type="line"/>
			<point x="23" y="585" type="line"/>
			<point x="103" y="585" type="line" smooth="yes"/>
			<point x="163" y="585"/>
			<point x="185" y="554"/>
			<point x="185" y="467" type="curve" smooth="yes"/>
			<point x="185" y="380"/>
			<point x="163" y="344"/>
			<point x="103" y="344" type="curve" smooth="yes"/>
			<point x="23" y="344" type="line"/>
			<point x="23" y="229" type="line"/>
		</contour>
		<contour>
			<point x="23" y="407" type="line"/>
			<point x="397" y="407" type="line"/>
			<point x="397" y="522" type="line"/>
			<point x="23" y="522" type="line"/>
		</contour>
	</outline>
</glyph>
<glyph name="uni20BA" format="2">
	<advance width="420"/>
	<unicode hex="20BA"/>
	<outline>
		<contour>
			<point x="58" y="0" type="line"/>
			<point x="147" y="0" type="line" smooth="yes"/>
			<point x="319" y="0"/>
			<point x="423" y="72"/>
			<point x="423" y="307" type="curve"/>
			<point x="293" y="307" type="line"/>
			<point x="291" y="216"/>
			<point x="266" y="153"/>
			<point x="203" y="153" type="curve" smooth="yes"/>
			<point x="199" y="153" type="line"/>
			<point x="199" y="700" type="line"/>
			<point x="58" y="700" type="line"/>
		</contour>
		<contour>
			<point x="9" y="319" type="line"/>
			<point x="316" y="503" type="line"/>
			<point x="316" y="597" type="line"/>
			<point x="9" y="413" type="line"/>
		</contour>
		<contour>
			<point x="9" y="187" type="line"/>
			<point x="316" y="371" type="line"/>
			<point x="316" y="465" type="line"/>
			<point x="9" y="281" type="line"/>
		</contour>
	</outline>
</glyph>
<glyph name="uni20BD" format="2">
	<advance width="420"/>
	<unicode hex="20BD"/>
	<outline>
		<contour>
			<point x="59" y="0" type="line"/>
			<point x="208" y="0" type="line"/>
			<point x="208" y="225" type="line"/>
			<point x="231" y="225" type="line" smooth="yes"/>
			<point x="357" y="225"/>
			<point x="414" y="296"/>
			<point x="414" y="461" type="curve" smooth="yes"/>
			<point x="414" y="623"/>
			<point x="365" y="710"/>
			<point x="219" y="710" type="curve" smooth="yes"/>
			<point x="194" y="710"/>
			<point x="129" y="709"/>
			<point x="59" y="702" type="curve"/>
		</contour>
		<contour>
			<point x="209" y="339" type="line"/>
			<point x="209" y="579" type="line"/>
			<point x="217" y="582"/>
			<point x="222" y="582"/>
			<point x="227" y="582" type="curve" smooth="yes"/>
			<point x="246" y="582"/>
			<point x="256" y="555"/>
			<point x="256" y="463" type="curve" smooth="yes"/>
			<point x="256" y="371"/>
			<point x="248" y="339"/>
			<point x="217" y="339" type="curve" smooth="yes"/>
		</contour>
		<contour>
			<point x="10" y="225" type="line"/>
			<point x="99" y="225" type="line"/>
			<point x="99" y="339" type="line"/>
			<point x="10" y="339" type="line"/>
		</contour>
		<contour>
			<point x="10" y="95" type="line"/>
			<point x="340" y="95" type="line"/>
			<point x="340" y="199" type="line"/>
			<point x="10" y="199" type="line"/>
		</contour>
	</outline>
</glyph>
<glyph name="uni2120" format="2">
  <advance width="552"/>
  <unicode hex="2120"/>
  <outline>
    <contour>
      <point x="217" y="693" type="line"/>
      <point x="205" y="701"/>
      <point x="164" y="710"/>
      <point x="134" y="710" type="curve" smooth="yes"/>
      <point x="50" y="710"/>
      <point x="23" y="654"/>
      <point x="23" y="608" type="curve" smooth="yes"/>
      <point x="23" y="556"/>
      <point x="51" y="531"/>
      <point x="78" y="512" type="curve" smooth="yes"/>
      <point x="104" y="494"/>
      <point x="132" y="485"/>
      <point x="132" y="467" type="curve" smooth="yes"/>
      <point x="132" y="457"/>
      <point x="127" y="450"/>
      <point x="107" y="450" type="curve" smooth="yes"/>
      <point x="92" y="450"/>
      <point x="69" y="455"/>
      <point x="41" y="464" type="curve"/>
      <point x="25" y="387" type="line"/>
      <point x="56" y="370"/>
      <point x="89" y="365"/>
      <point x="119" y="365" type="curve" smooth="yes"/>
      <point x="189" y="365"/>
      <point x="228" y="412"/>
      <point x="228" y="471" type="curve" smooth="yes"/>
      <point x="228" y="528"/>
      <point x="199" y="551"/>
      <point x="169" y="567" type="curve" smooth="yes"/>
      <point x="146" y="579"/>
      <point x="120" y="588"/>
      <point x="120" y="606" type="curve" smooth="yes"/>
      <point x="120" y="618"/>
      <point x="127" y="624"/>
      <point x="145" y="624" type="curve" smooth="yes"/>
      <point x="158" y="624"/>
      <point x="178" y="622"/>
      <point x="201" y="613" type="curve"/>
    </contour>
    <contour>
      <point x="257" y="371" type="line"/>
      <point x="359" y="371" type="line"/>
      <point x="359" y="528" type="line"/>
      <point x="375" y="432" type="line"/>
      <point x="404" y="432" type="line"/>
      <point x="419" y="528" type="line"/>
      <point x="419" y="371" type="line"/>
      <point x="522" y="371" type="line"/>
      <point x="522" y="700" type="line"/>
      <point x="416" y="700" type="line"/>
      <point x="389" y="601" type="line"/>
      <point x="363" y="700" type="line"/>
      <point x="257" y="700" type="line"/>
    </contour>
  </outline>
</glyph>
<glyph name="trademark" format="2">
	<advance width="561"/>
	<unicode hex="2122"/>
	<outline>
		<contour>
			<point x="232" y="604" type="line"/>
			<point x="232" y="700" type="line"/>
			<point x="25" y="700" type="line"/>
			<point x="25" y="604" type="line"/>
			<point x="77" y="604" type="line"/>
			<point x="77" y="371" type="line"/>
			<point x="180" y="371" type="line"/>
			<point x="180" y="604" type="line"/>
		</contour>
		<contour>
			<point x="266" y="371" type="line"/>
			<point x="368" y="371" type="line"/>
			<point x="368" y="528" type="line"/>
			<point x="384" y="432" type="line"/>
			<point x="413" y="432" type="line"/>
			<point x="428" y="528" type="line"/>
			<point x="428" y="371" type="line"/>
			<point x="531" y="371" type="line"/>
			<point x="531" y="700" type="line"/>
			<point x="425" y="700" type="line"/>
			<point x="398" y="601" type="line"/>
			<point x="372" y="700" type="line"/>
			<point x="266" y="700" type="line"/>
		</contour>
	</outline>
</glyph>
<glyph name="uni2126" format="2">
  <advance width="461"/>
  <unicode hex="2126"/>
  <outline>
    <contour>
      <point x="20" y="0" type="line"/>
      <point x="221" y="0" type="line"/>
      <point x="221" y="170" type="line"/>
      <point x="217" y="172"/>
      <point x="207" y="192"/>
      <point x="207" y="337" type="curve" smooth="yes"/>
      <point x="207" y="544"/>
      <point x="213" y="544"/>
      <point x="228" y="544" type="curve" smooth="yes"/>
      <point x="243" y="544"/>
      <point x="250" y="545"/>
      <point x="250" y="337" type="curve" smooth="yes"/>
      <point x="250" y="242"/>
      <point x="240" y="173"/>
      <point x="233" y="170" type="curve"/>
      <point x="233" y="0" type="line"/>
      <point x="441" y="0" type="line"/>
      <point x="441" y="170" type="line"/>
      <point x="361" y="170" type="line"/>
      <point x="397" y="216"/>
      <point x="423" y="316"/>
      <point x="423" y="409" type="curve" smooth="yes"/>
      <point x="423" y="626"/>
      <point x="387" y="710"/>
      <point x="228" y="710" type="curve" smooth="yes"/>
      <point x="78" y="710"/>
      <point x="33" y="613"/>
      <point x="33" y="408" type="curve" smooth="yes"/>
      <point x="33" y="314"/>
      <point x="59" y="216"/>
      <point x="94" y="170" type="curve"/>
      <point x="20" y="170" type="line"/>
    </contour>
  </outline>
</glyph>
<glyph name="arrowdown" format="2">
	<advance width="566"/>
	<unicode hex="2193"/>
	<outline>
		<contour>
			<point x="205" y="566" type="line"/>
			<point x="205" y="400" type="line"/>
			<point x="133" y="483" type="line"/>
			<point x="20" y="370" type="line"/>
			<point x="283" y="110" type="line"/>
			<point x="546" y="370" type="line"/>
			<point x="433" y="483" type="line"/>
			<point x="361" y="400" type="line"/>
			<point x="361" y="566" type="line"/>
		</contour>
	</outline>
</glyph>
<glyph name="product" format="2">
  <advance width="429"/>
  <unicode hex="220F"/>
  <outline>
    <contour>
      <point x="20" y="-210" type="line"/>
      <point x="195" y="-210" type="line"/>
      <point x="195" y="514" type="line"/>
      <point x="234" y="514" type="line"/>
      <point x="234" y="-210" type="line"/>
      <point x="409" y="-210" type="line"/>
      <point x="409" y="700" type="line"/>
      <point x="20" y="700" type="line"/>
    </contour>
  </outline>
</glyph>
<glyph name="summation" format="2">
	<advance width="380"/>
	<unicode hex="2211"/>
	<outline>
		<contour>
			<point x="21" y="-210" type="line"/>
			<point x="359" y="-210" type="line"/>
			<point x="359" y="-42" type="line"/>
			<point x="199" y="-42" type="line"/>
			<point x="331" y="177" type="line"/>
			<point x="331" y="325" type="line"/>
			<point x="210" y="525" type="line"/>
			<point x="348" y="525" type="line"/>
			<point x="348" y="700" type="line"/>
			<point x="21" y="700" type="line"/>
			<point x="21" y="531" type="line"/>
			<point x="203" y="245" type="line"/>
			<point x="21" y="-44" type="line"/>
		</contour>
	</outline>
</glyph>
<glyph name="radical" format="2">
	<advance width="477"/>
	<unicode hex="221A"/>
	<outline>
		<contour>
			<point x="9" y="392" type="line"/>
			<point x="55" y="392" type="line"/>
			<point x="131" y="0" type="line"/>
			<point x="354" y="0" type="line"/>
			<point x="468" y="740" type="line"/>
			<point x="282" y="740" type="line"/>
			<point x="231" y="184" type="line"/>
			<point x="193" y="550" type="line"/>
			<point x="9" y="550" type="line"/>
		</contour>
	</outline>
</glyph>
<glyph name="infinity" format="2">
	<advance width="569"/>
	<unicode hex="221E"/>
	<outline>
		<contour>
			<point x="159" y="127" type="curve" smooth="yes"/>
			<point x="211" y="127"/>
			<point x="262" y="153"/>
			<point x="294" y="197" type="curve"/>
			<point x="325" y="158"/>
			<point x="351" y="133"/>
			<point x="418" y="133" type="curve" smooth="yes"/>
			<point x="468" y="133"/>
			<point x="550" y="175"/>
			<point x="550" y="331" type="curve" smooth="yes"/>
			<point x="550" y="458"/>
			<point x="492" y="520"/>
			<point x="403" y="520" type="curve" smooth="yes"/>
			<point x="361" y="520"/>
			<point x="311" y="502"/>
			<point x="275" y="449" type="curve"/>
			<point x="247" y="489"/>
			<point x="221" y="517"/>
			<point x="165" y="517" type="curve" smooth="yes"/>
			<point x="86" y="517"/>
			<point x="19" y="461"/>
			<point x="19" y="319" type="curve" smooth="yes"/>
			<point x="19" y="188"/>
			<point x="83" y="127"/>
		</contour>
		<contour>
			<point x="387" y="374" type="curve" smooth="yes"/>
			<point x="409" y="374"/>
			<point x="418" y="355"/>
			<point x="418" y="340" type="curve" smooth="yes"/>
			<point x="418" y="318"/>
			<point x="412" y="301"/>
			<point x="393" y="301" type="curve" smooth="yes"/>
			<point x="378" y="301"/>
			<point x="359" y="324"/>
			<point x="341" y="351" type="curve"/>
			<point x="359" y="366"/>
			<point x="376" y="374"/>
		</contour>
		<contour>
			<point x="179" y="274" type="curve" smooth="yes"/>
			<point x="157" y="274"/>
			<point x="151" y="302"/>
			<point x="151" y="313" type="curve" smooth="yes"/>
			<point x="151" y="336"/>
			<point x="161" y="347"/>
			<point x="169" y="347" type="curve" smooth="yes"/>
			<point x="186" y="347"/>
			<point x="198" y="324"/>
			<point x="222" y="293" type="curve"/>
			<point x="206" y="279"/>
			<point x="190" y="274"/>
		</contour>
	</outline>
</glyph>
<glyph name="notequal" format="2">
  <advance width="420"/>
  <unicode hex="2260"/>
  <outline>
    <contour>
      <point x="358" y="504" type="line"/>
      <point x="336" y="504" type="line"/>
      <point x="357" y="560" type="line"/>
      <point x="228" y="560" type="line"/>
      <point x="207" y="504" type="line"/>
      <point x="42" y="504" type="line"/>
      <point x="42" y="344" type="line"/>
      <point x="148" y="344" type="line"/>
      <point x="124" y="281" type="line"/>
      <point x="42" y="281" type="line"/>
      <point x="42" y="121" type="line"/>
      <point x="65" y="121" type="line"/>
      <point x="42" y="58" type="line"/>
      <point x="172" y="58" type="line"/>
      <point x="195" y="121" type="line"/>
      <point x="358" y="121" type="line"/>
      <point x="358" y="281" type="line"/>
      <point x="254" y="281" type="line"/>
      <point x="277" y="344" type="line"/>
      <point x="358" y="344" type="line"/>
    </contour>
  </outline>
</glyph>
<glyph name="greaterequal" format="2">
  <advance width="420"/>
  <unicode hex="2265"/>
  <outline>
    <contour>
      <point x="399" y="330" type="line"/>
      <point x="399" y="488" type="line"/>
      <point x="21" y="613" type="line"/>
      <point x="21" y="472" type="line"/>
      <point x="235" y="409" type="line"/>
      <point x="21" y="347" type="line"/>
      <point x="21" y="205" type="line"/>
    </contour>
    <contour>
      <point x="400" y="160" type="line"/>
      <point x="21" y="160" type="line"/>
      <point x="21" y="0" type="line"/>
      <point x="400" y="0" type="line"/>
    </contour>
  </outline>
</glyph>
<glyph name="triagdn" format="2">
	<advance width="500"/>
	<unicode hex="25BC"/>
	<outline>
		<contour>
			<point x="250" y="27" type="line"/>
			<point x="449" y="464" type="line"/>
			<point x="51" y="464" type="line"/>
		</contour>
	</outline>
</glyph>
<glyph name="uni25BD" format="2">
	<advance width="500"/>
	<unicode hex="25BD"/>
	<outline>
		<contour>
			<point x="250" y="27" type="line"/>
			<point x="449" y="464" type="line"/>
			<point x="51" y="464" type="line"/>
		</contour>
		<contour>
			<point x="250" y="191" type="line"/>
			<point x="156" y="396" type="line"/>
			<point x="343" y="396" type="line"/>
		</contour>
	</outline>
</glyph>
<glyph name="uni25C7" format="2">
	<advance width="500"/>
	<unicode hex="25C7"/>
	<outline>
		<contour>
			<point x="0" y="279" type="line"/>
			<point x="250" y="28" type="line"/>
			<point x="501" y="279" type="line"/>
			<point x="250" y="530" type="line"/>
		</contour>
		<contour>
			<point x="97" y="279" type="line"/>
			<point x="250" y="433" type="line"/>
			<point x="404" y="279" type="line"/>
			<point x="250" y="125" type="line"/>
		</contour>
	</outline>
</glyph>
<glyph name="circle" format="2">
	<advance width="500"/>
	<unicode hex="25CB"/>
	<outline>
		<contour>
			<point x="46" y="272" type="curve" smooth="yes"/>
			<point x="46" y="160"/>
			<point x="137" y="69"/>
			<point x="250" y="69" type="curve" smooth="yes"/>
			<point x="362" y="69"/>
			<point x="454" y="160"/>
			<point x="454" y="272" type="curve" smooth="yes"/>
			<point x="454" y="384"/>
			<point x="362" y="476"/>
			<point x="250" y="476" type="curve" smooth="yes"/>
			<point x="137" y="476"/>
			<point x="46" y="384"/>
		</contour>
		<contour>
			<point x="114" y="272" type="curve" smooth="yes"/>
			<point x="114" y="347"/>
			<point x="175" y="408"/>
			<point x="250" y="408" type="curve" smooth="yes"/>
			<point x="324" y="408"/>
			<point x="386" y="347"/>
			<point x="386" y="272" type="curve" smooth="yes"/>
			<point x="386" y="197"/>
			<point x="324" y="137"/>
			<point x="250" y="137" type="curve" smooth="yes"/>
			<point x="175" y="137"/>
			<point x="114" y="197"/>
		</contour>
	</outline>
</glyph>
<glyph name="uni2661" format="2">
	<advance width="800"/>
	<unicode hex="2661"/>
	<outline>
		<contour>
			<point x="379" y="0" type="curve"/>
			<point x="421" y="0" type="line"/>
			<point x="485" y="187"/>
			<point x="762" y="238"/>
			<point x="762" y="459" type="curve" smooth="yes"/>
			<point x="762" y="583"/>
			<point x="674" y="650"/>
			<point x="576" y="650" type="curve" smooth="yes"/>
			<point x="504" y="650"/>
			<point x="434" y="614"/>
			<point x="400" y="527" type="curve"/>
			<point x="366" y="614"/>
			<point x="296" y="650"/>
			<point x="224" y="650" type="curve" smooth="yes"/>
			<point x="126" y="650"/>
			<point x="38" y="583"/>
			<point x="38" y="459" type="curve" smooth="yes"/>
			<point x="38" y="238"/>
			<point x="315" y="187"/>
		</contour>
		<contour>
			<point x="401" y="173" type="curve"/>
			<point x="328" y="287"/>
			<point x="182" y="302"/>
			<point x="182" y="431" type="curve" smooth="yes"/>
			<point x="182" y="503"/>
			<point x="227" y="527"/>
			<point x="270" y="527" type="curve" smooth="yes"/>
			<point x="343" y="527"/>
			<point x="373" y="456"/>
			<point x="386" y="385" type="curve"/>
			<point x="414" y="385" type="line"/>
			<point x="427" y="456"/>
			<point x="457" y="527"/>
			<point x="530" y="527" type="curve" smooth="yes"/>
			<point x="573" y="527"/>
			<point x="618" y="503"/>
			<point x="618" y="431" type="curve" smooth="yes"/>
			<point x="618" y="302"/>
			<point x="472" y="287"/>
		</contour>
	</outline>
</glyph>
<glyph name="uni2780" format="2">
	<advance width="730"/>
	<unicode hex="2780"/>
	<outline>
		<contour>
			<point x="263" y="159" type="line"/>
			<point x="468" y="159" type="line"/>
			<point x="468" y="250" type="line"/>
			<point x="424" y="250" type="line"/>
			<point x="424" y="558" type="line"/>
			<point x="369" y="558" type="line"/>
			<point x="252" y="529" type="line"/>
			<point x="269" y="424" type="line"/>
			<point x="314" y="433" type="line"/>
			<point x="314" y="250" type="line"/>
			<point x="263" y="250" type="line"/>
		</contour>
		<contour>
			<point x="365" y="-10" type="curve" smooth="yes"/>
			<point x="584" y="-10"/>
			<point x="699" y="152"/>
			<point x="699" y="351" type="curve" smooth="yes"/>
			<point x="699" y="551"/>
			<point x="584" y="710"/>
			<point x="365" y="710" type="curve" smooth="yes"/>
			<point x="146" y="710"/>
			<point x="31" y="551"/>
			<point x="31" y="351" type="curve" smooth="yes"/>
			<point x="31" y="152"/>
			<point x="146" y="-10"/>
		</contour>
		<contour>
			<point x="365" y="663" type="curve" smooth="yes"/>
			<point x="558" y="663"/>
			<point x="648" y="534"/>
			<point x="648" y="351" type="curve" smooth="yes"/>
			<point x="648" y="168"/>
			<point x="558" y="39"/>
			<point x="365" y="39" type="curve" smooth="yes"/>
			<point x="175" y="39"/>
			<point x="81" y="168"/>
			<point x="81" y="351" type="curve" smooth="yes"/>
			<point x="81" y="534"/>
			<point x="175" y="663"/>
		</contour>
	</outline>
</glyph>
<glyph name="uni2781" format="2">
  <advance width="730"/>
  <unicode hex="2781"/>
  <outline>
    <contour>
      <point x="267" y="159" type="line"/>
      <point x="478" y="159" type="line"/>
      <point x="478" y="250" type="line"/>
      <point x="389" y="250" type="line"/>
      <point x="456" y="337"/>
      <point x="474" y="376"/>
      <point x="474" y="445" type="curve" smooth="yes"/>
      <point x="474" y="522"/>
      <point x="433" y="564"/>
      <point x="360" y="564" type="curve" smooth="yes"/>
      <point x="319" y="564"/>
      <point x="286" y="552"/>
      <point x="250" y="529" type="curve"/>
      <point x="290" y="425" type="line"/>
      <point x="304" y="435"/>
      <point x="315" y="438"/>
      <point x="330" y="438" type="curve" smooth="yes"/>
      <point x="350" y="438"/>
      <point x="360" y="425"/>
      <point x="360" y="407" type="curve" smooth="yes"/>
      <point x="360" y="361"/>
      <point x="320" y="305"/>
      <point x="267" y="242" type="curve"/>
    </contour>
    <contour>
      <point x="365" y="-10" type="curve" smooth="yes"/>
      <point x="584" y="-10"/>
      <point x="699" y="152"/>
      <point x="699" y="351" type="curve" smooth="yes"/>
      <point x="699" y="551"/>
      <point x="584" y="710"/>
      <point x="365" y="710" type="curve" smooth="yes"/>
      <point x="146" y="710"/>
      <point x="31" y="551"/>
      <point x="31" y="351" type="curve" smooth="yes"/>
      <point x="31" y="152"/>
      <point x="146" y="-10"/>
    </contour>
    <contour>
      <point x="365" y="663" type="curve" smooth="yes"/>
      <point x="558" y="663"/>
      <point x="648" y="534"/>
      <point x="648" y="351" type="curve" smooth="yes"/>
      <point x="648" y="168"/>
      <point x="558" y="39"/>
      <point x="365" y="39" type="curve" smooth="yes"/>
      <point x="175" y="39"/>
      <point x="81" y="168"/>
      <point x="81" y="351" type="curve" smooth="yes"/>
      <point x="81" y="534"/>
      <point x="175" y="663"/>
    </contour>
  </outline>
</glyph>
<glyph name="uni2784" format="2">
  <advance width="730"/>
  <unicode hex="2784"/>
  <outline>
    <contour>
      <point x="255" y="173" type="line"/>
      <point x="284" y="158"/>
      <point x="309" y="150"/>
      <point x="349" y="150" type="curve" smooth="yes"/>
      <point x="430" y="150"/>
      <point x="488" y="200"/>
      <point x="488" y="292" type="curve" smooth="yes"/>
      <point x="488" y="363"/>
      <point x="452" y="399"/>
      <point x="398" y="403" type="curve" smooth="yes"/>
      <point x="384" y="404" type="line"/>
      <point x="389" y="454" type="line"/>
      <point x="480" y="454" type="line"/>
      <point x="480" y="561" type="line"/>
      <point x="300" y="561" type="line"/>
      <point x="276" y="327" type="line"/>
      <point x="282" y="320" type="line"/>
      <point x="332" y="320" type="line" smooth="yes"/>
      <point x="362" y="320"/>
      <point x="376" y="310"/>
      <point x="376" y="287" type="curve" smooth="yes"/>
      <point x="376" y="269"/>
      <point x="366" y="254"/>
      <point x="332" y="254" type="curve" smooth="yes"/>
      <point x="308" y="254"/>
      <point x="290" y="259"/>
      <point x="275" y="265" type="curve"/>
    </contour>
    <contour>
      <point x="31" y="351" type="curve" smooth="yes"/>
      <point x="31" y="152"/>
      <point x="146" y="-10"/>
      <point x="365" y="-10" type="curve" smooth="yes"/>
      <point x="584" y="-10"/>
      <point x="699" y="152"/>
      <point x="699" y="351" type="curve" smooth="yes"/>
      <point x="699" y="551"/>
      <point x="584" y="710"/>
      <point x="365" y="710" type="curve" smooth="yes"/>
      <point x="146" y="710"/>
      <point x="31" y="551"/>
    </contour>
    <contour>
      <point x="81" y="351" type="curve" smooth="yes"/>
      <point x="81" y="534"/>
      <point x="175" y="663"/>
      <point x="365" y="663" type="curve" smooth="yes"/>
      <point x="558" y="663"/>
      <point x="648" y="534"/>
      <point x="648" y="351" type="curve" smooth="yes"/>
      <point x="648" y="168"/>
      <point x="558" y="39"/>
      <point x="365" y="39" type="curve" smooth="yes"/>
      <point x="175" y="39"/>
      <point x="81" y="168"/>
    </contour>
  </outline>
</glyph>
<glyph name="uni2788" format="2">
  <advance width="730"/>
  <unicode hex="2788"/>
  <outline>
    <contour>
      <point x="379" y="302" type="curve"/>
      <point x="376" y="261"/>
      <point x="360" y="249"/>
      <point x="325" y="249" type="curve" smooth="yes"/>
      <point x="300" y="249"/>
      <point x="284" y="261"/>
      <point x="284" y="261" type="curve"/>
      <point x="250" y="173" type="line"/>
      <point x="263" y="164"/>
      <point x="301" y="150"/>
      <point x="345" y="150" type="curve" smooth="yes"/>
      <point x="430" y="150"/>
      <point x="495" y="209"/>
      <point x="495" y="370" type="curve" smooth="yes"/>
      <point x="495" y="516"/>
      <point x="447" y="561"/>
      <point x="372" y="561" type="curve" smooth="yes"/>
      <point x="282" y="561"/>
      <point x="249" y="505"/>
      <point x="249" y="413" type="curve" smooth="yes"/>
      <point x="249" y="318"/>
      <point x="292" y="290"/>
      <point x="332" y="290" type="curve" smooth="yes"/>
      <point x="355" y="290"/>
      <point x="368" y="295"/>
    </contour>
    <contour>
      <point x="372" y="372" type="curve" smooth="yes"/>
      <point x="365" y="372"/>
      <point x="360" y="383"/>
      <point x="360" y="416" type="curve" smooth="yes"/>
      <point x="360" y="464"/>
      <point x="364" y="469"/>
      <point x="371" y="469" type="curve" smooth="yes"/>
      <point x="378" y="469"/>
      <point x="379" y="465"/>
      <point x="379" y="374" type="curve"/>
      <point x="377" y="373"/>
      <point x="375" y="372"/>
    </contour>
    <contour>
      <point x="365" y="-10" type="curve" smooth="yes"/>
      <point x="584" y="-10"/>
      <point x="699" y="152"/>
      <point x="699" y="351" type="curve" smooth="yes"/>
      <point x="699" y="551"/>
      <point x="584" y="710"/>
      <point x="365" y="710" type="curve" smooth="yes"/>
      <point x="146" y="710"/>
      <point x="31" y="551"/>
      <point x="31" y="351" type="curve" smooth="yes"/>
      <point x="31" y="152"/>
      <point x="146" y="-10"/>
    </contour>
    <contour>
      <point x="365" y="663" type="curve" smooth="yes"/>
      <point x="558" y="663"/>
      <point x="648" y="534"/>
      <point x="648" y="351" type="curve" smooth="yes"/>
      <point x="648" y="168"/>
      <point x="558" y="39"/>
      <point x="365" y="39" type="curve" smooth="yes"/>
      <point x="175" y="39"/>
      <point x="81" y="168"/>
      <point x="81" y="351" type="curve" smooth="yes"/>
      <point x="81" y="534"/>
      <point x="175" y="663"/>
    </contour>
  </outline>
</glyph>
<glyph name="uni278B" format="2">
  <advance width="730"/>
  <unicode hex="278B"/>
  <outline>
    <contour>
      <point x="365" y="-10" type="curve" smooth="yes"/>
      <point x="584" y="-10"/>
      <point x="699" y="152"/>
      <point x="699" y="351" type="curve" smooth="yes"/>
      <point x="699" y="551"/>
      <point x="584" y="710"/>
      <point x="365" y="710" type="curve" smooth="yes"/>
      <point x="146" y="710"/>
      <point x="31" y="551"/>
      <point x="31" y="351" type="curve" smooth="yes"/>
      <point x="31" y="152"/>
      <point x="146" y="-10"/>
    </contour>
    <contour>
      <point x="267" y="159" type="line"/>
      <point x="267" y="242" type="line"/>
      <point x="320" y="305"/>
      <point x="360" y="361"/>
      <point x="360" y="407" type="curve" smooth="yes"/>
      <point x="360" y="425"/>
      <point x="350" y="438"/>
      <point x="330" y="438" type="curve" smooth="yes"/>
      <point x="315" y="438"/>
      <point x="304" y="435"/>
      <point x="290" y="425" type="curve"/>
      <point x="250" y="529" type="line"/>
      <point x="286" y="552"/>
      <point x="319" y="564"/>
      <point x="360" y="564" type="curve" smooth="yes"/>
      <point x="433" y="564"/>
      <point x="474" y="522"/>
      <point x="474" y="445" type="curve" smooth="yes"/>
      <point x="474" y="376"/>
      <point x="456" y="337"/>
      <point x="389" y="250" type="curve"/>
      <point x="478" y="250" type="line"/>
      <point x="478" y="159" type="line"/>
    </contour>
  </outline>
</glyph>
<glyph name="uni278D" format="2">
  <advance width="730"/>
  <unicode hex="278D"/>
  <outline>
    <contour>
      <point x="365" y="-10" type="curve" smooth="yes"/>
      <point x="584" y="-10"/>
      <point x="699" y="152"/>
      <point x="699" y="351" type="curve" smooth="yes"/>
      <point x="699" y="551"/>
      <point x="584" y="710"/>
      <point x="365" y="710" type="curve" smooth="yes"/>
      <point x="146" y="710"/>
      <point x="31" y="551"/>
      <point x="31" y="351" type="curve" smooth="yes"/>
      <point x="31" y="152"/>
      <point x="146" y="-10"/>
    </contour>
    <contour>
      <point x="287" y="280" type="line"/>
      <point x="329" y="280" type="line"/>
      <point x="329" y="431" type="line"/>
    </contour>
    <contour>
      <point x="323" y="159" type="line"/>
      <point x="323" y="192" type="line"/>
      <point x="226" y="192" type="line"/>
      <point x="226" y="287" type="line"/>
      <point x="305" y="556" type="line"/>
      <point x="449" y="556" type="line"/>
      <point x="449" y="280" type="line"/>
      <point x="480" y="280" type="line"/>
      <point x="480" y="192" type="line"/>
      <point x="449" y="192" type="line"/>
      <point x="449" y="159" type="line"/>
    </contour>
  </outline>
</glyph>
<glyph name="uni278F" format="2">
  <advance width="730"/>
  <unicode hex="278F"/>
  <outline>
    <contour>
      <point x="365" y="-10" type="curve" smooth="yes"/>
      <point x="584" y="-10"/>
      <point x="699" y="152"/>
      <point x="699" y="351" type="curve" smooth="yes"/>
      <point x="699" y="551"/>
      <point x="584" y="710"/>
      <point x="365" y="710" type="curve" smooth="yes"/>
      <point x="146" y="710"/>
      <point x="31" y="551"/>
      <point x="31" y="351" type="curve" smooth="yes"/>
      <point x="31" y="152"/>
      <point x="146" y="-10"/>
    </contour>
    <contour>
      <point x="361" y="242" type="curve" smooth="yes"/>
      <point x="367" y="242"/>
      <point x="371" y="249"/>
      <point x="371" y="295" type="curve" smooth="yes"/>
      <point x="371" y="328"/>
      <point x="365" y="339"/>
      <point x="359" y="339" type="curve" smooth="yes"/>
      <point x="355" y="339"/>
      <point x="353" y="338"/>
      <point x="351" y="337" type="curve"/>
      <point x="351" y="246"/>
      <point x="354" y="242"/>
    </contour>
    <contour>
      <point x="359" y="150" type="curve" smooth="yes"/>
      <point x="284" y="150"/>
      <point x="236" y="195"/>
      <point x="236" y="341" type="curve" smooth="yes"/>
      <point x="236" y="502"/>
      <point x="300" y="561"/>
      <point x="385" y="561" type="curve" smooth="yes"/>
      <point x="429" y="561"/>
      <point x="468" y="547"/>
      <point x="481" y="538" type="curve"/>
      <point x="447" y="450" type="line"/>
      <point x="447" y="450"/>
      <point x="430" y="462"/>
      <point x="405" y="462" type="curve" smooth="yes"/>
      <point x="371" y="462"/>
      <point x="354" y="450"/>
      <point x="351" y="409" type="curve"/>
      <point x="362" y="416"/>
      <point x="374" y="421"/>
      <point x="398" y="421" type="curve" smooth="yes"/>
      <point x="439" y="421"/>
      <point x="482" y="393"/>
      <point x="482" y="298" type="curve" smooth="yes"/>
      <point x="482" y="206"/>
      <point x="449" y="150"/>
    </contour>
  </outline>
</glyph>
<glyph name="uni2790" format="2">
  <advance width="730"/>
  <unicode hex="2790"/>
  <outline>
    <contour>
      <point x="365" y="-10" type="curve" smooth="yes"/>
      <point x="584" y="-10"/>
      <point x="699" y="152"/>
      <point x="699" y="351" type="curve" smooth="yes"/>
      <point x="699" y="551"/>
      <point x="584" y="710"/>
      <point x="365" y="710" type="curve" smooth="yes"/>
      <point x="146" y="710"/>
      <point x="31" y="551"/>
      <point x="31" y="351" type="curve" smooth="yes"/>
      <point x="31" y="152"/>
      <point x="146" y="-10"/>
    </contour>
    <contour>
      <point x="279" y="159" type="line"/>
      <point x="279" y="222"/>
      <point x="287" y="285"/>
      <point x="317" y="359" type="curve" smooth="yes"/>
      <point x="361" y="467" type="line"/>
      <point x="255" y="467" type="line"/>
      <point x="255" y="558" type="line"/>
      <point x="477" y="558" type="line"/>
      <point x="477" y="485" type="line"/>
      <point x="431" y="345" type="line" smooth="yes"/>
      <point x="403" y="259"/>
      <point x="398" y="218"/>
      <point x="398" y="159" type="curve"/>
    </contour>
  </outline>
</glyph>
<glyph name="uni2791" format="2">
  <advance width="730"/>
  <unicode hex="2791"/>
  <outline>
    <contour>
      <point x="365" y="-10" type="curve" smooth="yes"/>
      <point x="584" y="-10"/>
      <point x="699" y="152"/>
      <point x="699" y="351" type="curve" smooth="yes"/>
      <point x="699" y="551"/>
      <point x="584" y="710"/>
      <point x="365" y="710" type="curve" smooth="yes"/>
      <point x="146" y="710"/>
      <point x="31" y="551"/>
      <point x="31" y="351" type="curve" smooth="yes"/>
      <point x="31" y="152"/>
      <point x="146" y="-10"/>
    </contour>
    <contour>
      <point x="375" y="239" type="curve" smooth="yes"/>
      <point x="384" y="239"/>
      <point x="389" y="247"/>
      <point x="389" y="262" type="curve" smooth="yes"/>
      <point x="389" y="278"/>
      <point x="379" y="290"/>
      <point x="365" y="302" type="curve"/>
      <point x="359" y="293"/>
      <point x="358" y="283"/>
      <point x="358" y="268" type="curve" smooth="yes"/>
      <point x="358" y="249"/>
      <point x="364" y="239"/>
    </contour>
    <contour>
      <point x="370" y="150" type="curve" smooth="yes"/>
      <point x="294" y="150"/>
      <point x="250" y="190"/>
      <point x="250" y="260" type="curve" smooth="yes"/>
      <point x="250" y="297"/>
      <point x="266" y="328"/>
      <point x="298" y="352" type="curve"/>
      <point x="274" y="374"/>
      <point x="255" y="403"/>
      <point x="255" y="449" type="curve" smooth="yes"/>
      <point x="255" y="521"/>
      <point x="298" y="561"/>
      <point x="376" y="561" type="curve" smooth="yes"/>
      <point x="443" y="561"/>
      <point x="485" y="523"/>
      <point x="485" y="462" type="curve" smooth="yes"/>
      <point x="485" y="430"/>
      <point x="470" y="400"/>
      <point x="440" y="373" type="curve"/>
      <point x="469" y="350"/>
      <point x="494" y="319"/>
      <point x="494" y="264" type="curve" smooth="yes"/>
      <point x="494" y="191"/>
      <point x="450" y="150"/>
    </contour>
    <contour>
      <point x="382" y="413" type="curve"/>
      <point x="386" y="420"/>
      <point x="387" y="429"/>
      <point x="387" y="444" type="curve" smooth="yes"/>
      <point x="387" y="461"/>
      <point x="383" y="469"/>
      <point x="373" y="469" type="curve" smooth="yes"/>
      <point x="363" y="469"/>
      <point x="358" y="462"/>
      <point x="358" y="450" type="curve" smooth="yes"/>
      <point x="358" y="435"/>
      <point x="368" y="424"/>
    </contour>
  </outline>
</glyph>
<glyph name="Euro.tosf" format="2">
	<advance width="420"/>
	<outline>
		<contour>
			<point x="54" y="275" type="curve" smooth="yes"/>
			<point x="54" y="80"/>
			<point x="140" y="-10"/>
			<point x="282" y="-10" type="curve" smooth="yes"/>
			<point x="329" y="-10"/>
			<point x="354" y="-8"/>
			<point x="406" y="12" type="curve"/>
			<point x="376" y="141" type="line"/>
			<point x="334" y="131"/>
			<point x="318" y="128"/>
			<point x="292" y="128" type="curve" smooth="yes"/>
			<point x="250" y="128"/>
			<point x="219" y="170"/>
			<point x="219" y="270" type="curve" smooth="yes"/>
			<point x="219" y="384"/>
			<point x="259" y="419"/>
			<point x="300" y="419" type="curve" smooth="yes"/>
			<point x="322" y="419"/>
			<point x="362" y="414"/>
			<point x="383" y="406" type="curve"/>
			<point x="416" y="535" type="line"/>
			<point x="379" y="550"/>
			<point x="341" y="558"/>
			<point x="289" y="558" type="curve" smooth="yes"/>
			<point x="159" y="558"/>
			<point x="54" y="489"/>
		</contour>
		<contour>
			<point x="373" y="288" type="line"/>
			<point x="373" y="369" type="line"/>
			<point x="14" y="369" type="line"/>
			<point x="14" y="288" type="line"/>
		</contour>
		<contour>
			<point x="373" y="175" type="line"/>
			<point x="373" y="256" type="line"/>
			<point x="14" y="256" type="line"/>
			<point x="14" y="175" type="line"/>
		</contour>
	</outline>
</glyph>
<glyph name="ampersand.sc" format="2">
	<advance width="476"/>
	<outline>
		<contour>
			<point x="309" y="-1" type="line"/>
			<point x="479" y="-1" type="line"/>
			<point x="247" y="388" type="line" smooth="yes"/>
			<point x="231" y="415"/>
			<point x="221" y="437"/>
			<point x="221" y="451" type="curve" smooth="yes"/>
			<point x="221" y="466"/>
			<point x="226" y="475"/>
			<point x="238" y="475" type="curve" smooth="yes"/>
			<point x="251" y="475"/>
			<point x="255" y="465"/>
			<point x="255" y="448" type="curve" smooth="yes"/>
			<point x="255" y="435"/>
			<point x="252" y="426"/>
			<point x="248" y="420" type="curve"/>
			<point x="300" y="332" type="line"/>
			<point x="358" y="358"/>
			<point x="394" y="389"/>
			<point x="394" y="479" type="curve" smooth="yes"/>
			<point x="394" y="581"/>
			<point x="338" y="631"/>
			<point x="238" y="631" type="curve" smooth="yes"/>
			<point x="125" y="631"/>
			<point x="61" y="563"/>
			<point x="61" y="456" type="curve" smooth="yes"/>
			<point x="61" y="401"/>
			<point x="90" y="350"/>
			<point x="119" y="303" type="curve" smooth="yes"/>
		</contour>
		<contour>
			<point x="193" y="-10" type="curve" smooth="yes"/>
			<point x="254" y="-10"/>
			<point x="288" y="8"/>
			<point x="323" y="37" type="curve"/>
			<point x="256" y="148" type="line"/>
			<point x="249" y="136"/>
			<point x="237" y="127"/>
			<point x="212" y="127" type="curve" smooth="yes"/>
			<point x="185" y="127"/>
			<point x="163" y="149"/>
			<point x="163" y="182" type="curve" smooth="yes"/>
			<point x="163" y="208"/>
			<point x="173" y="223"/>
			<point x="190" y="235" type="curve"/>
			<point x="124" y="350" type="line"/>
			<point x="41" y="304"/>
			<point x="11" y="240"/>
			<point x="11" y="165" type="curve" smooth="yes"/>
			<point x="11" y="58"/>
			<point x="84" y="-10"/>
		</contour>
		<contour>
			<point x="402" y="104" type="line"/>
			<point x="436" y="165"/>
			<point x="450" y="211"/>
			<point x="450" y="262" type="curve" smooth="yes"/>
			<point x="450" y="281"/>
			<point x="449" y="300"/>
			<point x="447" y="317" type="curve"/>
			<point x="324" y="317" type="line"/>
			<point x="325" y="309"/>
			<point x="326" y="300"/>
			<point x="326" y="288" type="curve" smooth="yes"/>
			<point x="326" y="275"/>
			<point x="324" y="267"/>
			<point x="317" y="255" type="curve"/>
		</contour>
	</outline>
</glyph>
<glyph name="b.superior" format="2">
  <advance width="269"/>
  <outline>
    <contour>
      <point x="19" y="379" type="line"/>
      <point x="46" y="369"/>
      <point x="90" y="362"/>
      <point x="124" y="362" type="curve" smooth="yes"/>
      <point x="223" y="362"/>
      <point x="259" y="409"/>
      <point x="259" y="538" type="curve" smooth="yes"/>
      <point x="259" y="643"/>
      <point x="232" y="689"/>
      <point x="171" y="689" type="curve" smooth="yes"/>
      <point x="157" y="689"/>
      <point x="139" y="683"/>
      <point x="128" y="675" type="curve"/>
      <point x="128" y="792" type="line"/>
      <point x="19" y="792" type="line"/>
    </contour>
    <contour>
      <point x="128" y="448" type="curve"/>
      <point x="128" y="589" type="line"/>
      <point x="129" y="591"/>
      <point x="132" y="592"/>
      <point x="134" y="592" type="curve" smooth="yes"/>
      <point x="141" y="592"/>
      <point x="142" y="583"/>
      <point x="142" y="526" type="curve" smooth="yes"/>
      <point x="142" y="458"/>
      <point x="141" y="446"/>
      <point x="133" y="446" type="curve" smooth="yes"/>
      <point x="131" y="446"/>
      <point x="129" y="447"/>
    </contour>
  </outline>
</glyph>
<glyph name="blacktriangle" format="2">
	<advance width="500"/>
	<outline>
		<contour>
			<point x="77" y="80" type="line"/>
			<point x="422" y="279" type="line"/>
			<point x="77" y="479" type="line"/>
		</contour>
	</outline>
</glyph>
<glyph name="braceleft.sc" format="2">
	<advance width="239"/>
	<outline>
		<contour>
			<point x="25" y="47" type="curve" smooth="yes"/>
			<point x="25" y="-67"/>
			<point x="82" y="-109"/>
			<point x="141" y="-109" type="curve" smooth="yes"/>
			<point x="231" y="-109" type="line"/>
			<point x="231" y="22" type="line"/>
			<point x="219" y="22" type="line" smooth="yes"/>
			<point x="199" y="22"/>
			<point x="191" y="37"/>
			<point x="191" y="66" type="curve" smooth="yes"/>
			<point x="191" y="105"/>
			<point x="210" y="144"/>
			<point x="210" y="190" type="curve" smooth="yes"/>
			<point x="210" y="233"/>
			<point x="199" y="280"/>
			<point x="157" y="313" type="curve"/>
			<point x="199" y="345"/>
			<point x="210" y="392"/>
			<point x="210" y="435" type="curve" smooth="yes"/>
			<point x="210" y="481"/>
			<point x="191" y="519"/>
			<point x="191" y="558" type="curve" smooth="yes"/>
			<point x="191" y="588"/>
			<point x="199" y="603"/>
			<point x="219" y="603" type="curve" smooth="yes"/>
			<point x="231" y="603" type="line"/>
			<point x="231" y="734" type="line"/>
			<point x="141" y="734" type="line" smooth="yes"/>
			<point x="82" y="734"/>
			<point x="25" y="692"/>
			<point x="25" y="578" type="curve" smooth="yes"/>
			<point x="25" y="500"/>
			<point x="52" y="460"/>
			<point x="52" y="424" type="curve" smooth="yes"/>
			<point x="52" y="395"/>
			<point x="48" y="382"/>
			<point x="28" y="382" type="curve" smooth="yes"/>
			<point x="14" y="382" type="line"/>
			<point x="14" y="243" type="line"/>
			<point x="28" y="243" type="line" smooth="yes"/>
			<point x="48" y="243"/>
			<point x="52" y="230"/>
			<point x="52" y="201" type="curve" smooth="yes"/>
			<point x="52" y="164"/>
			<point x="25" y="124"/>
		</contour>
	</outline>
</glyph>
<glyph name="braceright.sc" format="2">
  <advance width="239"/>
  <outline>
    <contour>
      <point x="8" y="22" type="line"/>
      <point x="8" y="-109" type="line"/>
      <point x="98" y="-109" type="line" smooth="yes"/>
      <point x="157" y="-109"/>
      <point x="214" y="-67"/>
      <point x="214" y="47" type="curve" smooth="yes"/>
      <point x="214" y="124"/>
      <point x="187" y="164"/>
      <point x="187" y="201" type="curve" smooth="yes"/>
      <point x="187" y="230"/>
      <point x="191" y="243"/>
      <point x="211" y="243" type="curve" smooth="yes"/>
      <point x="225" y="243" type="line"/>
      <point x="225" y="382" type="line"/>
      <point x="211" y="382" type="line" smooth="yes"/>
      <point x="191" y="382"/>
      <point x="187" y="395"/>
      <point x="187" y="424" type="curve" smooth="yes"/>
      <point x="187" y="460"/>
      <point x="214" y="500"/>
      <point x="214" y="578" type="curve" smooth="yes"/>
      <point x="214" y="692"/>
      <point x="157" y="734"/>
      <point x="98" y="734" type="curve" smooth="yes"/>
      <point x="8" y="734" type="line"/>
      <point x="8" y="603" type="line"/>
      <point x="20" y="603" type="line" smooth="yes"/>
      <point x="40" y="603"/>
      <point x="48" y="588"/>
      <point x="48" y="558" type="curve" smooth="yes"/>
      <point x="48" y="519"/>
      <point x="29" y="481"/>
      <point x="29" y="435" type="curve" smooth="yes"/>
      <point x="29" y="392"/>
      <point x="40" y="345"/>
      <point x="82" y="311" type="curve"/>
      <point x="40" y="280"/>
      <point x="29" y="233"/>
      <point x="29" y="190" type="curve" smooth="yes"/>
      <point x="29" y="144"/>
      <point x="48" y="105"/>
      <point x="48" y="66" type="curve" smooth="yes"/>
      <point x="48" y="37"/>
      <point x="40" y="22"/>
      <point x="20" y="22" type="curve" smooth="yes"/>
    </contour>
  </outline>
</glyph>
<glyph name="bracketleft.sc" format="2">
	<advance width="239"/>
	<outline>
		<contour>
			<point x="14" y="-125" type="line"/>
			<point x="231" y="-125" type="line"/>
			<point x="231" y="23" type="line"/>
			<point x="147" y="23" type="line"/>
			<point x="147" y="602" type="line"/>
			<point x="231" y="602" type="line"/>
			<point x="231" y="750" type="line"/>
			<point x="14" y="750" type="line"/>
		</contour>
	</outline>
</glyph>
<glyph name="bracketright.sc" format="2">
  <advance width="239"/>
  <outline>
    <contour>
      <point x="8" y="23" type="line"/>
      <point x="8" y="-125" type="line"/>
      <point x="225" y="-125" type="line"/>
      <point x="225" y="750" type="line"/>
      <point x="8" y="750" type="line"/>
      <point x="8" y="602" type="line"/>
      <point x="92" y="602" type="line"/>
      <point x="92" y="23" type="line"/>
    </contour>
  </outline>
</glyph>
<glyph name="c.superior" format="2">
  <advance width="222"/>
  <outline>
    <contour>
      <point x="122" y="362" type="curve" smooth="yes"/>
      <point x="155" y="362"/>
      <point x="197" y="369"/>
      <point x="212" y="377" type="curve"/>
      <point x="189" y="477" type="line"/>
      <point x="174" y="474"/>
      <point x="164" y="472"/>
      <point x="158" y="472" type="curve" smooth="yes"/>
      <point x="139" y="472"/>
      <point x="127" y="484"/>
      <point x="127" y="526" type="curve" smooth="yes"/>
      <point x="127" y="568"/>
      <point x="136" y="579"/>
      <point x="159" y="579" type="curve" smooth="yes"/>
      <point x="172" y="579"/>
      <point x="182" y="578"/>
      <point x="189" y="575" type="curve"/>
      <point x="207" y="680" type="line"/>
      <point x="191" y="685"/>
      <point x="155" y="689"/>
      <point x="124" y="689" type="curve" smooth="yes"/>
      <point x="49" y="689"/>
      <point x="10" y="633"/>
      <point x="10" y="527" type="curve" smooth="yes"/>
      <point x="10" y="418"/>
      <point x="48" y="362"/>
    </contour>
  </outline>
</glyph>
<glyph name="commasuperior" format="2">
	<advance width="130"/>
	<outline>
		<contour>
			<point x="25" y="433" type="line"/>
			<point x="28" y="410"/>
			<point x="28" y="391"/>
			<point x="28" y="383" type="curve" smooth="yes"/>
			<point x="28" y="356"/>
			<point x="18" y="323"/>
			<point x="3" y="290" type="curve"/>
			<point x="78" y="269" type="line"/>
			<point x="108" y="314"/>
			<point x="121" y="344"/>
			<point x="121" y="386" type="curve" smooth="yes"/>
			<point x="121" y="407"/>
			<point x="118" y="422"/>
			<point x="115" y="434" type="curve"/>
		</contour>
	</outline>
</glyph>
<glyph name="d.sc" format="2">
  <advance width="429"/>
  <anchor x="215" y="275" name="center"/>
  <anchor x="215" y="0" name="bottom"/>
  <anchor x="211" y="625" name="top"/>
  <outline>
    <contour>
      <point x="186" y="-9" type="curve" smooth="yes"/>
      <point x="351" y="-9"/>
      <point x="416" y="83"/>
      <point x="416" y="316" type="curve" smooth="yes"/>
      <point x="416" y="540"/>
      <point x="364" y="634"/>
      <point x="190" y="634" type="curve" smooth="yes"/>
      <point x="123" y="634"/>
      <point x="74" y="631"/>
      <point x="23" y="623" type="curve"/>
      <point x="23" y="0" type="line"/>
      <point x="68" y="-6"/>
      <point x="121" y="-9"/>
    </contour>
    <contour>
      <point x="208" y="149" type="curve" smooth="yes"/>
      <point x="198" y="149"/>
      <point x="194" y="150"/>
      <point x="189" y="151" type="curve"/>
      <point x="189" y="472" type="line"/>
      <point x="194" y="473"/>
      <point x="201" y="474"/>
      <point x="208" y="474" type="curve" smooth="yes"/>
      <point x="238" y="474"/>
      <point x="243" y="453"/>
      <point x="243" y="313" type="curve" smooth="yes"/>
      <point x="243" y="182"/>
      <point x="236" y="149"/>
    </contour>
  </outline>
</glyph>
<glyph name="dcroat.sc" format="2">
  <advance width="430"/>
  <outline>
    <contour>
      <point x="-3" y="235" type="line"/>
      <point x="23" y="235" type="line"/>
      <point x="23" y="0" type="line"/>
      <point x="92" y="-8"/>
      <point x="156" y="-9"/>
      <point x="197" y="-9" type="curve" smooth="yes"/>
      <point x="339" y="-9"/>
      <point x="416" y="63"/>
      <point x="416" y="316" type="curve" smooth="yes"/>
      <point x="416" y="522"/>
      <point x="359" y="634"/>
      <point x="190" y="634" type="curve" smooth="yes"/>
      <point x="142" y="634"/>
      <point x="95" y="633"/>
      <point x="23" y="623" type="curve"/>
      <point x="23" y="397" type="line"/>
      <point x="-3" y="397" type="line"/>
    </contour>
    <contour>
      <point x="189" y="151" type="curve"/>
      <point x="189" y="235" type="line"/>
      <point x="215" y="235" type="line"/>
      <point x="215" y="397" type="line"/>
      <point x="189" y="397" type="line"/>
      <point x="189" y="472" type="line"/>
      <point x="194" y="473"/>
      <point x="202" y="474"/>
      <point x="208" y="474" type="curve" smooth="yes"/>
      <point x="240" y="474"/>
      <point x="243" y="438"/>
      <point x="243" y="313" type="curve" smooth="yes"/>
      <point x="243" y="191"/>
      <point x="237" y="149"/>
      <point x="208" y="149" type="curve" smooth="yes"/>
      <point x="198" y="149"/>
      <point x="194" y="150"/>
    </contour>
  </outline>
</glyph>
<glyph name="dollarsuperior" format="2">
	<advance width="265"/>
	<outline>
		<contour>
			<point x="124" y="366" type="curve" smooth="yes"/>
			<point x="192" y="366"/>
			<point x="244" y="406"/>
			<point x="244" y="487" type="curve" smooth="yes"/>
			<point x="244" y="527"/>
			<point x="228" y="559"/>
			<point x="176" y="600" type="curve" smooth="yes"/>
			<point x="143" y="626"/>
			<point x="124" y="634"/>
			<point x="124" y="654" type="curve" smooth="yes"/>
			<point x="124" y="669"/>
			<point x="134" y="676"/>
			<point x="156" y="676" type="curve" smooth="yes"/>
			<point x="174" y="676"/>
			<point x="195" y="672"/>
			<point x="217" y="664" type="curve"/>
			<point x="236" y="754" type="line"/>
			<point x="219" y="765"/>
			<point x="178" y="774"/>
			<point x="141" y="774" type="curve" smooth="yes"/>
			<point x="68" y="774"/>
			<point x="25" y="729"/>
			<point x="25" y="655" type="curve" smooth="yes"/>
			<point x="25" y="609"/>
			<point x="44" y="574"/>
			<point x="90" y="537" type="curve" smooth="yes"/>
			<point x="133" y="504"/>
			<point x="146" y="495"/>
			<point x="146" y="480" type="curve" smooth="yes"/>
			<point x="146" y="468"/>
			<point x="135" y="460"/>
			<point x="113" y="460" type="curve" smooth="yes"/>
			<point x="94" y="460"/>
			<point x="71" y="466"/>
			<point x="40" y="478" type="curve"/>
			<point x="21" y="389" type="line"/>
			<point x="52" y="372"/>
			<point x="81" y="366"/>
		</contour>
		<contour>
			<point x="84" y="310" type="line"/>
			<point x="176" y="310" type="line"/>
			<point x="176" y="391" type="line"/>
			<point x="84" y="384" type="line"/>
		</contour>
		<contour>
			<point x="84" y="747" type="line"/>
			<point x="176" y="756" type="line"/>
			<point x="176" y="828" type="line"/>
			<point x="84" y="828" type="line"/>
		</contour>
	</outline>
</glyph>
<glyph name="exclamdown.case" format="2">
  <advance width="200"/>
  <outline>
    <contour>
      <point x="177" y="441" type="line"/>
      <point x="25" y="441" type="line"/>
      <point x="9" y="0" type="line"/>
      <point x="190" y="0" type="line"/>
    </contour>
    <contour>
      <point x="193" y="593" type="curve" smooth="yes"/>
      <point x="193" y="671"/>
      <point x="165" y="710"/>
      <point x="100" y="710" type="curve" smooth="yes"/>
      <point x="35" y="710"/>
      <point x="7" y="671"/>
      <point x="7" y="593" type="curve" smooth="yes"/>
      <point x="7" y="514"/>
      <point x="35" y="475"/>
      <point x="100" y="475" type="curve" smooth="yes"/>
      <point x="165" y="475"/>
      <point x="193" y="514"/>
    </contour>
  </outline>
</glyph>
<glyph name="f.superior" format="2">
	<advance width="191"/>
	<outline>
		<contour>
			<point x="42" y="370" type="line"/>
			<point x="152" y="370" type="line"/>
			<point x="152" y="586" type="line"/>
			<point x="181" y="586" type="line"/>
			<point x="181" y="672" type="line"/>
			<point x="153" y="672" type="line"/>
			<point x="153" y="675" type="line" smooth="yes"/>
			<point x="153" y="696"/>
			<point x="160" y="702"/>
			<point x="171" y="702" type="curve" smooth="yes"/>
			<point x="174" y="702"/>
			<point x="190" y="700"/>
			<point x="195" y="698" type="curve"/>
			<point x="212" y="781" type="line"/>
			<point x="191" y="790"/>
			<point x="168" y="797"/>
			<point x="134" y="797" type="curve" smooth="yes"/>
			<point x="75" y="797"/>
			<point x="42" y="755"/>
			<point x="42" y="680" type="curve" smooth="yes"/>
			<point x="42" y="672" type="line"/>
			<point x="17" y="668" type="line"/>
			<point x="17" y="586" type="line"/>
			<point x="42" y="586" type="line"/>
		</contour>
	</outline>
</glyph>
<glyph name="f_b.liga" format="2">
  <advance width="692"/>
  <outline>
    <contour>
      <point x="465" y="-10" type="curve" smooth="yes"/>
      <point x="624" y="-10"/>
      <point x="682" y="71"/>
      <point x="682" y="294" type="curve" smooth="yes"/>
      <point x="682" y="479"/>
      <point x="639" y="560"/>
      <point x="541" y="560" type="curve" smooth="yes"/>
      <point x="520" y="560"/>
      <point x="489" y="549"/>
      <point x="471" y="535" type="curve"/>
      <point x="471" y="730" type="line"/>
      <point x="434" y="743"/>
      <point x="373" y="750"/>
      <point x="308" y="750" type="curve" smooth="yes"/>
      <point x="146" y="750"/>
      <point x="48" y="665"/>
      <point x="48" y="544" type="curve" smooth="yes"/>
      <point x="48" y="529" type="line"/>
      <point x="5" y="522" type="line"/>
      <point x="5" y="379" type="line"/>
      <point x="48" y="379" type="line"/>
      <point x="48" y="0" type="line"/>
      <point x="219" y="0" type="line"/>
      <point x="219" y="379" type="line"/>
      <point x="264" y="379" type="line"/>
      <point x="264" y="529" type="line"/>
      <point x="220" y="529" type="line"/>
      <point x="220" y="532" type="line" smooth="yes"/>
      <point x="220" y="572"/>
      <point x="242" y="594"/>
      <point x="280" y="594" type="curve" smooth="yes"/>
      <point x="286" y="594"/>
      <point x="291" y="593"/>
      <point x="296" y="593" type="curve"/>
      <point x="296" y="19" type="line"/>
      <point x="345" y="2"/>
      <point x="414" y="-10"/>
    </contour>
    <contour>
      <point x="481" y="136" type="curve" smooth="yes"/>
      <point x="478" y="136"/>
      <point x="475" y="137"/>
      <point x="471" y="139" type="curve"/>
      <point x="471" y="384" type="line"/>
      <point x="475" y="388"/>
      <point x="478" y="390"/>
      <point x="482" y="390" type="curve" smooth="yes"/>
      <point x="494" y="390"/>
      <point x="496" y="372"/>
      <point x="496" y="273" type="curve" smooth="yes"/>
      <point x="496" y="156"/>
      <point x="494" y="136"/>
    </contour>
  </outline>
</glyph>
<glyph name="f_f.liga" format="2">
  <advance width="522"/>
  <outline>
    <contour>
      <point x="48" y="0" type="line"/>
      <point x="219" y="0" type="line"/>
      <point x="219" y="379" type="line"/>
      <point x="293" y="379" type="line"/>
      <point x="293" y="0" type="line"/>
      <point x="464" y="0" type="line"/>
      <point x="464" y="379" type="line"/>
      <point x="509" y="379" type="line"/>
      <point x="509" y="529" type="line"/>
      <point x="465" y="529" type="line"/>
      <point x="465" y="542" type="line" smooth="yes"/>
      <point x="465" y="577"/>
      <point x="475" y="589"/>
      <point x="496" y="589" type="curve" smooth="yes"/>
      <point x="505" y="589"/>
      <point x="514" y="587"/>
      <point x="532" y="581" type="curve"/>
      <point x="559" y="721" type="line"/>
      <point x="523" y="742"/>
      <point x="489" y="750"/>
      <point x="452" y="750" type="curve" smooth="yes"/>
      <point x="427" y="750"/>
      <point x="406" y="745"/>
      <point x="380" y="731" type="curve"/>
      <point x="343" y="745"/>
      <point x="320" y="750"/>
      <point x="276" y="750" type="curve" smooth="yes"/>
      <point x="142" y="750"/>
      <point x="48" y="665"/>
      <point x="48" y="544" type="curve" smooth="yes"/>
      <point x="48" y="529" type="line"/>
      <point x="5" y="522" type="line"/>
      <point x="5" y="379" type="line"/>
      <point x="48" y="379" type="line"/>
    </contour>
    <contour>
      <point x="220" y="529" type="line"/>
      <point x="220" y="544" type="line" smooth="yes"/>
      <point x="220" y="578"/>
      <point x="241" y="602"/>
      <point x="280" y="602" type="curve" smooth="yes"/>
      <point x="286" y="602"/>
      <point x="291" y="602"/>
      <point x="297" y="601" type="curve"/>
      <point x="294" y="583"/>
      <point x="293" y="564"/>
      <point x="293" y="544" type="curve" smooth="yes"/>
      <point x="293" y="529" type="line"/>
    </contour>
  </outline>
</glyph>
<glyph name="f_f_b.liga" format="2">
  <advance width="937"/>
  <outline>
    <contour>
      <point x="710" y="-10" type="curve" smooth="yes"/>
      <point x="869" y="-10"/>
      <point x="927" y="71"/>
      <point x="927" y="294" type="curve" smooth="yes"/>
      <point x="927" y="479"/>
      <point x="884" y="560"/>
      <point x="786" y="560" type="curve" smooth="yes"/>
      <point x="765" y="560"/>
      <point x="734" y="549"/>
      <point x="716" y="535" type="curve"/>
      <point x="716" y="730" type="line"/>
      <point x="679" y="743"/>
      <point x="618" y="750"/>
      <point x="553" y="750" type="curve" smooth="yes"/>
      <point x="506" y="750"/>
      <point x="464" y="743"/>
      <point x="429" y="730" type="curve"/>
      <point x="382" y="744"/>
      <point x="344" y="750"/>
      <point x="296" y="750" type="curve" smooth="yes"/>
      <point x="146" y="750"/>
      <point x="48" y="665"/>
      <point x="48" y="544" type="curve" smooth="yes"/>
      <point x="48" y="529" type="line"/>
      <point x="5" y="522" type="line"/>
      <point x="5" y="379" type="line"/>
      <point x="48" y="379" type="line"/>
      <point x="48" y="0" type="line"/>
      <point x="219" y="0" type="line"/>
      <point x="219" y="379" type="line"/>
      <point x="293" y="379" type="line"/>
      <point x="293" y="0" type="line"/>
      <point x="464" y="0" type="line"/>
      <point x="464" y="379" type="line"/>
      <point x="509" y="379" type="line"/>
      <point x="509" y="529" type="line"/>
      <point x="465" y="529" type="line"/>
      <point x="465" y="532" type="line" smooth="yes"/>
      <point x="465" y="572"/>
      <point x="487" y="594"/>
      <point x="525" y="594" type="curve" smooth="yes"/>
      <point x="531" y="594"/>
      <point x="536" y="593"/>
      <point x="541" y="593" type="curve"/>
      <point x="541" y="19" type="line"/>
      <point x="590" y="2"/>
      <point x="659" y="-10"/>
    </contour>
    <contour>
      <point x="220" y="529" type="line"/>
      <point x="220" y="544" type="line" smooth="yes"/>
      <point x="220" y="578"/>
      <point x="241" y="602"/>
      <point x="282" y="602" type="curve" smooth="yes"/>
      <point x="288" y="602"/>
      <point x="294" y="602"/>
      <point x="301" y="601" type="curve"/>
      <point x="296" y="583"/>
      <point x="293" y="564"/>
      <point x="293" y="544" type="curve" smooth="yes"/>
      <point x="293" y="529" type="line"/>
    </contour>
    <contour>
      <point x="726" y="136" type="curve" smooth="yes"/>
      <point x="723" y="136"/>
      <point x="720" y="137"/>
      <point x="716" y="139" type="curve"/>
      <point x="716" y="384" type="line"/>
      <point x="720" y="388"/>
      <point x="723" y="390"/>
      <point x="727" y="390" type="curve" smooth="yes"/>
      <point x="739" y="390"/>
      <point x="741" y="372"/>
      <point x="741" y="273" type="curve" smooth="yes"/>
      <point x="741" y="156"/>
      <point x="739" y="136"/>
    </contour>
  </outline>
</glyph>
<glyph name="f_f_h.liga" format="2">
  <advance width="938"/>
  <outline>
    <contour>
      <point x="48" y="0" type="line"/>
      <point x="219" y="0" type="line"/>
      <point x="219" y="379" type="line"/>
      <point x="293" y="379" type="line"/>
      <point x="293" y="0" type="line"/>
      <point x="464" y="0" type="line"/>
      <point x="464" y="379" type="line"/>
      <point x="509" y="379" type="line"/>
      <point x="509" y="529" type="line"/>
      <point x="465" y="529" type="line"/>
      <point x="465" y="532" type="line" smooth="yes"/>
      <point x="465" y="572"/>
      <point x="487" y="594"/>
      <point x="525" y="594" type="curve" smooth="yes"/>
      <point x="531" y="594"/>
      <point x="536" y="593"/>
      <point x="541" y="593" type="curve"/>
      <point x="541" y="0" type="line"/>
      <point x="716" y="0" type="line"/>
      <point x="716" y="380" type="line"/>
      <point x="722" y="385"/>
      <point x="726" y="387"/>
      <point x="733" y="387" type="curve" smooth="yes"/>
      <point x="737" y="387"/>
      <point x="745" y="385"/>
      <point x="745" y="371" type="curve" smooth="yes"/>
      <point x="745" y="0" type="line"/>
      <point x="921" y="0" type="line"/>
      <point x="921" y="421" type="line" smooth="yes"/>
      <point x="921" y="522"/>
      <point x="879" y="560"/>
      <point x="814" y="560" type="curve" smooth="yes"/>
      <point x="784" y="560"/>
      <point x="746" y="547"/>
      <point x="716" y="514" type="curve"/>
      <point x="716" y="730" type="line"/>
      <point x="679" y="743"/>
      <point x="618" y="750"/>
      <point x="553" y="750" type="curve" smooth="yes"/>
      <point x="506" y="750"/>
      <point x="464" y="743"/>
      <point x="429" y="730" type="curve"/>
      <point x="382" y="744"/>
      <point x="344" y="750"/>
      <point x="296" y="750" type="curve" smooth="yes"/>
      <point x="146" y="750"/>
      <point x="48" y="665"/>
      <point x="48" y="544" type="curve" smooth="yes"/>
      <point x="48" y="529" type="line"/>
      <point x="5" y="522" type="line"/>
      <point x="5" y="379" type="line"/>
      <point x="48" y="379" type="line"/>
    </contour>
    <contour>
      <point x="220" y="529" type="line"/>
      <point x="220" y="544" type="line" smooth="yes"/>
      <point x="220" y="578"/>
      <point x="241" y="602"/>
      <point x="282" y="602" type="curve" smooth="yes"/>
      <point x="288" y="602"/>
      <point x="294" y="602"/>
      <point x="301" y="601" type="curve"/>
      <point x="296" y="583"/>
      <point x="293" y="564"/>
      <point x="293" y="544" type="curve" smooth="yes"/>
      <point x="293" y="529" type="line"/>
    </contour>
  </outline>
</glyph>
<glyph name="f_f_i.liga" format="2">
  <advance width="740"/>
  <outline>
    <contour>
      <point x="48" y="0" type="line"/>
      <point x="219" y="0" type="line"/>
      <point x="219" y="379" type="line"/>
      <point x="293" y="379" type="line"/>
      <point x="293" y="0" type="line"/>
      <point x="464" y="0" type="line"/>
      <point x="464" y="379" type="line"/>
      <point x="542" y="379" type="line"/>
      <point x="542" y="0" type="line"/>
      <point x="717" y="0" type="line"/>
      <point x="717" y="529" type="line"/>
      <point x="465" y="529" type="line"/>
      <point x="465" y="532" type="line" smooth="yes"/>
      <point x="465" y="568"/>
      <point x="497" y="589"/>
      <point x="550" y="589" type="curve" smooth="yes"/>
      <point x="594" y="589"/>
      <point x="639" y="581"/>
      <point x="692" y="565" type="curve"/>
      <point x="738" y="712" type="line"/>
      <point x="684" y="736"/>
      <point x="608" y="750"/>
      <point x="544" y="750" type="curve" smooth="yes"/>
      <point x="500" y="750"/>
      <point x="461" y="743"/>
      <point x="427" y="730" type="curve"/>
      <point x="382" y="744"/>
      <point x="344" y="750"/>
      <point x="296" y="750" type="curve" smooth="yes"/>
      <point x="146" y="750"/>
      <point x="48" y="665"/>
      <point x="48" y="544" type="curve" smooth="yes"/>
      <point x="48" y="529" type="line"/>
      <point x="5" y="522" type="line"/>
      <point x="5" y="379" type="line"/>
      <point x="48" y="379" type="line"/>
    </contour>
    <contour>
      <point x="220" y="529" type="line"/>
      <point x="220" y="544" type="line" smooth="yes"/>
      <point x="220" y="578"/>
      <point x="241" y="602"/>
      <point x="282" y="602" type="curve" smooth="yes"/>
      <point x="289" y="602"/>
      <point x="294" y="602"/>
      <point x="301" y="601" type="curve"/>
      <point x="296" y="583"/>
      <point x="293" y="564"/>
      <point x="293" y="544" type="curve" smooth="yes"/>
      <point x="293" y="529" type="line"/>
    </contour>
  </outline>
</glyph>
<glyph name="f_f_j.liga" format="2">
  <advance width="730"/>
  <outline>
    <contour>
      <point x="692" y="565" type="curve"/>
      <point x="738" y="712" type="line"/>
      <point x="694" y="730"/>
      <point x="621" y="750"/>
      <point x="539" y="750" type="curve" smooth="yes"/>
      <point x="500" y="750"/>
      <point x="462" y="743"/>
      <point x="427" y="730" type="curve"/>
      <point x="382" y="744"/>
      <point x="344" y="750"/>
      <point x="296" y="750" type="curve" smooth="yes"/>
      <point x="146" y="750"/>
      <point x="48" y="665"/>
      <point x="48" y="544" type="curve" smooth="yes"/>
      <point x="48" y="529" type="line"/>
      <point x="5" y="522" type="line"/>
      <point x="5" y="379" type="line"/>
      <point x="48" y="379" type="line"/>
      <point x="48" y="0" type="line"/>
      <point x="219" y="0" type="line"/>
      <point x="219" y="379" type="line"/>
      <point x="293" y="379" type="line"/>
      <point x="293" y="0" type="line"/>
      <point x="464" y="0" type="line"/>
      <point x="464" y="379" type="line"/>
      <point x="532" y="379" type="line"/>
      <point x="532" y="21" type="line" smooth="yes"/>
      <point x="532" y="-21"/>
      <point x="525" y="-33"/>
      <point x="503" y="-33" type="curve" smooth="yes"/>
      <point x="493" y="-33"/>
      <point x="485" y="-31"/>
      <point x="474" y="-27" type="curve"/>
      <point x="449" y="-202" type="line"/>
      <point x="481" y="-214"/>
      <point x="507" y="-220"/>
      <point x="537" y="-220" type="curve" smooth="yes"/>
      <point x="662" y="-220"/>
      <point x="707" y="-146"/>
      <point x="707" y="5" type="curve" smooth="yes"/>
      <point x="707" y="529" type="line"/>
      <point x="465" y="529" type="line"/>
      <point x="465" y="532" type="line" smooth="yes"/>
      <point x="465" y="566"/>
      <point x="494" y="589"/>
      <point x="550" y="589" type="curve" smooth="yes"/>
      <point x="579" y="589"/>
      <point x="622" y="587"/>
    </contour>
    <contour>
      <point x="293" y="544" type="curve" smooth="yes"/>
      <point x="293" y="529" type="line"/>
      <point x="220" y="529" type="line"/>
      <point x="220" y="544" type="line" smooth="yes"/>
      <point x="220" y="578"/>
      <point x="241" y="602"/>
      <point x="282" y="602" type="curve" smooth="yes"/>
      <point x="288" y="602"/>
      <point x="294" y="602"/>
      <point x="301" y="601" type="curve"/>
      <point x="296" y="584"/>
      <point x="293" y="565"/>
    </contour>
  </outline>
</glyph>
<glyph name="f_f_k.liga" format="2">
  <advance width="922"/>
  <outline>
    <contour>
      <point x="866" y="-10" type="curve" smooth="yes"/>
      <point x="881" y="-10"/>
      <point x="895" y="-9"/>
      <point x="911" y="-5" type="curve"/>
      <point x="911" y="183" type="line"/>
      <point x="908" y="183"/>
      <point x="906" y="183"/>
      <point x="903" y="183" type="curve" smooth="yes"/>
      <point x="876" y="183"/>
      <point x="855" y="197"/>
      <point x="800" y="284" type="curve" smooth="yes"/>
      <point x="705" y="434" type="line"/>
      <point x="705" y="730" type="line"/>
      <point x="674" y="742"/>
      <point x="618" y="750"/>
      <point x="553" y="750" type="curve" smooth="yes"/>
      <point x="506" y="750"/>
      <point x="464" y="743"/>
      <point x="429" y="730" type="curve"/>
      <point x="382" y="744"/>
      <point x="344" y="750"/>
      <point x="296" y="750" type="curve" smooth="yes"/>
      <point x="146" y="750"/>
      <point x="48" y="665"/>
      <point x="48" y="544" type="curve" smooth="yes"/>
      <point x="48" y="529" type="line"/>
      <point x="5" y="522" type="line"/>
      <point x="5" y="379" type="line"/>
      <point x="48" y="379" type="line"/>
      <point x="48" y="0" type="line"/>
      <point x="219" y="0" type="line"/>
      <point x="219" y="379" type="line"/>
      <point x="293" y="379" type="line"/>
      <point x="293" y="0" type="line"/>
      <point x="464" y="0" type="line"/>
      <point x="464" y="379" type="line"/>
      <point x="509" y="379" type="line"/>
      <point x="509" y="529" type="line"/>
      <point x="465" y="529" type="line"/>
      <point x="465" y="532" type="line" smooth="yes"/>
      <point x="465" y="572"/>
      <point x="487" y="594"/>
      <point x="525" y="594" type="curve" smooth="yes"/>
      <point x="531" y="594"/>
      <point x="536" y="593"/>
      <point x="541" y="593" type="curve"/>
      <point x="541" y="0" type="line"/>
      <point x="705" y="0" type="line"/>
      <point x="705" y="152" type="line"/>
      <point x="753" y="69" type="line" smooth="yes"/>
      <point x="787" y="11"/>
      <point x="817" y="-10"/>
    </contour>
    <contour>
      <point x="220" y="529" type="line"/>
      <point x="220" y="544" type="line" smooth="yes"/>
      <point x="220" y="578"/>
      <point x="241" y="602"/>
      <point x="282" y="602" type="curve" smooth="yes"/>
      <point x="288" y="602"/>
      <point x="294" y="602"/>
      <point x="301" y="601" type="curve"/>
      <point x="296" y="583"/>
      <point x="293" y="564"/>
      <point x="293" y="544" type="curve" smooth="yes"/>
      <point x="293" y="529" type="line"/>
    </contour>
    <contour>
      <point x="792" y="212" type="line"/>
      <point x="868" y="323"/>
      <point x="919" y="454"/>
      <point x="925" y="549" type="curve"/>
      <point x="757" y="559" type="line"/>
      <point x="758" y="464"/>
      <point x="738" y="402"/>
      <point x="685" y="326" type="curve"/>
    </contour>
  </outline>
</glyph>
<glyph name="f_f_t.liga" format="2">
  <advance width="775"/>
  <outline>
    <contour>
      <point x="48" y="0" type="line"/>
      <point x="219" y="0" type="line"/>
      <point x="219" y="379" type="line"/>
      <point x="293" y="379" type="line"/>
      <point x="293" y="0" type="line"/>
      <point x="464" y="0" type="line"/>
      <point x="464" y="378" type="line"/>
      <point x="529" y="378" type="line"/>
      <point x="529" y="186" type="line" smooth="yes"/>
      <point x="529" y="54"/>
      <point x="574" y="-10"/>
      <point x="660" y="-10" type="curve" smooth="yes"/>
      <point x="691" y="-10"/>
      <point x="737" y="-7"/>
      <point x="779" y="15" type="curve"/>
      <point x="753" y="162" type="line"/>
      <point x="737" y="159"/>
      <point x="729" y="159"/>
      <point x="728" y="159" type="curve" smooth="yes"/>
      <point x="715" y="159"/>
      <point x="704" y="166"/>
      <point x="704" y="208" type="curve" smooth="yes"/>
      <point x="704" y="377" type="line"/>
      <point x="758" y="377" type="line"/>
      <point x="758" y="529" type="line"/>
      <point x="704" y="529" type="line"/>
      <point x="704" y="717" type="line"/>
      <point x="658" y="739"/>
      <point x="596" y="750"/>
      <point x="520" y="750" type="curve" smooth="yes"/>
      <point x="485" y="750"/>
      <point x="456" y="743"/>
      <point x="425" y="731" type="curve"/>
      <point x="380" y="745"/>
      <point x="343" y="750"/>
      <point x="296" y="750" type="curve" smooth="yes"/>
      <point x="146" y="750"/>
      <point x="48" y="665"/>
      <point x="48" y="544" type="curve" smooth="yes"/>
      <point x="48" y="529" type="line"/>
      <point x="5" y="522" type="line"/>
      <point x="5" y="379" type="line"/>
      <point x="48" y="379" type="line"/>
    </contour>
    <contour>
      <point x="465" y="529" type="line"/>
      <point x="465" y="532" type="line" smooth="yes"/>
      <point x="465" y="569"/>
      <point x="485" y="594"/>
      <point x="515" y="594" type="curve" smooth="yes"/>
      <point x="523" y="594"/>
      <point x="532" y="593"/>
      <point x="540" y="591" type="curve"/>
      <point x="529" y="529" type="line"/>
    </contour>
    <contour>
      <point x="220" y="529" type="line"/>
      <point x="220" y="544" type="line" smooth="yes"/>
      <point x="220" y="578"/>
      <point x="241" y="602"/>
      <point x="282" y="602" type="curve" smooth="yes"/>
      <point x="289" y="602"/>
      <point x="294" y="602"/>
      <point x="301" y="601" type="curve"/>
      <point x="296" y="583"/>
      <point x="293" y="564"/>
      <point x="293" y="544" type="curve" smooth="yes"/>
      <point x="293" y="529" type="line"/>
    </contour>
  </outline>
</glyph>
<glyph name="f_h.liga" format="2">
  <advance width="693"/>
  <outline>
    <contour>
      <point x="48" y="0" type="line"/>
      <point x="219" y="0" type="line"/>
      <point x="219" y="379" type="line"/>
      <point x="264" y="379" type="line"/>
      <point x="264" y="529" type="line"/>
      <point x="220" y="529" type="line"/>
      <point x="220" y="532" type="line" smooth="yes"/>
      <point x="220" y="572"/>
      <point x="242" y="594"/>
      <point x="280" y="594" type="curve" smooth="yes"/>
      <point x="286" y="594"/>
      <point x="291" y="593"/>
      <point x="296" y="593" type="curve"/>
      <point x="296" y="0" type="line"/>
      <point x="471" y="0" type="line"/>
      <point x="471" y="380" type="line"/>
      <point x="477" y="385"/>
      <point x="481" y="387"/>
      <point x="488" y="387" type="curve" smooth="yes"/>
      <point x="492" y="387"/>
      <point x="500" y="385"/>
      <point x="500" y="371" type="curve" smooth="yes"/>
      <point x="500" y="0" type="line"/>
      <point x="676" y="0" type="line"/>
      <point x="676" y="421" type="line" smooth="yes"/>
      <point x="676" y="522"/>
      <point x="634" y="560"/>
      <point x="569" y="560" type="curve" smooth="yes"/>
      <point x="539" y="560"/>
      <point x="501" y="547"/>
      <point x="471" y="514" type="curve"/>
      <point x="471" y="730" type="line"/>
      <point x="434" y="743"/>
      <point x="373" y="750"/>
      <point x="308" y="750" type="curve" smooth="yes"/>
      <point x="146" y="750"/>
      <point x="48" y="665"/>
      <point x="48" y="544" type="curve" smooth="yes"/>
      <point x="48" y="529" type="line"/>
      <point x="5" y="522" type="line"/>
      <point x="5" y="379" type="line"/>
      <point x="48" y="379" type="line"/>
    </contour>
  </outline>
</glyph>
<glyph name="f_j.liga" format="2">
  <advance width="485"/>
  <outline>
    <contour>
      <point x="292" y="-220" type="curve" smooth="yes"/>
      <point x="417" y="-220"/>
      <point x="462" y="-146"/>
      <point x="462" y="5" type="curve" smooth="yes"/>
      <point x="462" y="529" type="line"/>
      <point x="220" y="529" type="line"/>
      <point x="220" y="532" type="line" smooth="yes"/>
      <point x="220" y="566"/>
      <point x="249" y="589"/>
      <point x="305" y="589" type="curve" smooth="yes"/>
      <point x="334" y="589"/>
      <point x="377" y="587"/>
      <point x="447" y="565" type="curve"/>
      <point x="493" y="712" type="line"/>
      <point x="449" y="730"/>
      <point x="376" y="750"/>
      <point x="294" y="750" type="curve" smooth="yes"/>
      <point x="168" y="750"/>
      <point x="48" y="680"/>
      <point x="48" y="544" type="curve" smooth="yes"/>
      <point x="48" y="529" type="line"/>
      <point x="5" y="522" type="line"/>
      <point x="5" y="379" type="line"/>
      <point x="48" y="379" type="line"/>
      <point x="48" y="0" type="line"/>
      <point x="219" y="0" type="line"/>
      <point x="219" y="379" type="line"/>
      <point x="287" y="379" type="line"/>
      <point x="287" y="21" type="line" smooth="yes"/>
      <point x="287" y="-21"/>
      <point x="280" y="-33"/>
      <point x="258" y="-33" type="curve" smooth="yes"/>
      <point x="248" y="-33"/>
      <point x="241" y="-31"/>
      <point x="229" y="-27" type="curve"/>
      <point x="204" y="-202" type="line"/>
      <point x="236" y="-214"/>
      <point x="262" y="-220"/>
    </contour>
  </outline>
</glyph>
<glyph name="g.sc" format="2">
  <advance width="415"/>
  <anchor x="208" y="625" name="top"/>
  <anchor x="208" y="0" name="bottom"/>
  <outline>
    <contour>
      <point x="14" y="315" type="curve" smooth="yes"/>
      <point x="14" y="91"/>
      <point x="75" y="-9"/>
      <point x="210" y="-9" type="curve" smooth="yes"/>
      <point x="284" y="-9"/>
      <point x="340" y="8"/>
      <point x="394" y="45" type="curve"/>
      <point x="394" y="374" type="line"/>
      <point x="208" y="374" type="line"/>
      <point x="208" y="214" type="line"/>
      <point x="242" y="214" type="line"/>
      <point x="242" y="156" type="line"/>
      <point x="237" y="152"/>
      <point x="226" y="149"/>
      <point x="215" y="149" type="curve" smooth="yes"/>
      <point x="188" y="149"/>
      <point x="180" y="183"/>
      <point x="180" y="302" type="curve" smooth="yes"/>
      <point x="180" y="422"/>
      <point x="201" y="469"/>
      <point x="254" y="469" type="curve" smooth="yes"/>
      <point x="283" y="469"/>
      <point x="324" y="461"/>
      <point x="347" y="452" type="curve"/>
      <point x="376" y="608" type="line"/>
      <point x="347" y="622"/>
      <point x="277" y="634"/>
      <point x="233" y="634" type="curve" smooth="yes"/>
      <point x="81" y="634"/>
      <point x="14" y="533"/>
    </contour>
  </outline>
</glyph>
<glyph name="gravecomb.case" format="2">
	<advance width="0"/>
	<anchor x="-260" y="939" name="top"/>
	<anchor x="-214" y="700" name="_top"/>
	<outline>
		<contour>
			<point x="-285" y="745" type="line"/>
			<point x="-144" y="745" type="line"/>
			<point x="-194" y="939" type="line"/>
			<point x="-377" y="939" type="line"/>
		</contour>
	</outline>
</glyph>
<glyph name="h.superior" format="2">
  <advance width="275"/>
  <outline>
    <contour>
      <point x="19" y="370" type="line"/>
      <point x="129" y="370" type="line"/>
      <point x="129" y="578" type="line"/>
      <point x="133" y="581"/>
      <point x="136" y="582"/>
      <point x="140" y="582" type="curve" smooth="yes"/>
      <point x="142" y="582"/>
      <point x="148" y="581"/>
      <point x="148" y="573" type="curve" smooth="yes"/>
      <point x="148" y="370" type="line"/>
      <point x="258" y="370" type="line"/>
      <point x="258" y="599" type="line" smooth="yes"/>
      <point x="258" y="668"/>
      <point x="231" y="689"/>
      <point x="191" y="689" type="curve" smooth="yes"/>
      <point x="172" y="689"/>
      <point x="148" y="682"/>
      <point x="118" y="663" type="curve"/>
      <point x="118" y="792" type="line"/>
      <point x="19" y="792" type="line"/>
    </contour>
  </outline>
</glyph>
<glyph name="hbar.sc" format="2">
	<advance width="434"/>
	<outline>
		<contour>
			<point x="22" y="0" type="line"/>
			<point x="197" y="0" type="line"/>
			<point x="197" y="196" type="line"/>
			<point x="236" y="196" type="line"/>
			<point x="236" y="0" type="line"/>
			<point x="411" y="0" type="line"/>
			<point x="411" y="461" type="line"/>
			<point x="433" y="461" type="line"/>
			<point x="433" y="564" type="line"/>
			<point x="411" y="564" type="line"/>
			<point x="411" y="625" type="line"/>
			<point x="236" y="625" type="line"/>
			<point x="236" y="564" type="line"/>
			<point x="197" y="564" type="line"/>
			<point x="197" y="625" type="line"/>
			<point x="22" y="625" type="line"/>
			<point x="22" y="564" type="line"/>
			<point x="0" y="564" type="line"/>
			<point x="0" y="461" type="line"/>
			<point x="22" y="461" type="line"/>
		</contour>
		<contour>
			<point x="197" y="378" type="line"/>
			<point x="197" y="461" type="line"/>
			<point x="236" y="461" type="line"/>
			<point x="236" y="378" type="line"/>
		</contour>
	</outline>
</glyph>
<glyph name="i.sc.loclTRK" format="2">
  <advance width="212"/>
  <outline>
    <contour>
      <point x="107" y="644" type="curve" smooth="yes"/>
      <point x="171" y="644"/>
      <point x="205" y="681"/>
      <point x="205" y="754" type="curve" smooth="yes"/>
      <point x="205" y="829"/>
      <point x="169" y="865"/>
      <point x="107" y="865" type="curve" smooth="yes"/>
      <point x="44" y="865"/>
      <point x="8" y="829"/>
      <point x="8" y="754" type="curve" smooth="yes"/>
      <point x="8" y="680"/>
      <point x="44" y="644"/>
    </contour>
    <component base="i.sc"/>
  </outline>
</glyph>
<glyph name="i.superior" format="2">
	<advance width="153"/>
	<outline>
		<contour>
			<point x="76" y="693" type="curve" smooth="yes"/>
			<point x="116" y="693"/>
			<point x="137" y="714"/>
			<point x="137" y="757" type="curve" smooth="yes"/>
			<point x="137" y="800"/>
			<point x="115" y="820"/>
			<point x="76" y="820" type="curve" smooth="yes"/>
			<point x="38" y="820"/>
			<point x="16" y="800"/>
			<point x="16" y="757" type="curve" smooth="yes"/>
			<point x="16" y="714"/>
			<point x="38" y="693"/>
		</contour>
		<contour>
			<point x="19" y="370" type="line"/>
			<point x="134" y="370" type="line"/>
			<point x="134" y="683" type="line"/>
			<point x="19" y="683" type="line"/>
		</contour>
	</outline>
</glyph>
<glyph name="j.sc" format="2">
  <advance width="305"/>
  <anchor x="163" y="625" name="top"/>
  <anchor x="153" y="0" name="bottom"/>
  <outline>
    <contour>
      <point x="1" y="23" type="line"/>
      <point x="32" y="6"/>
      <point x="75" y="-9"/>
      <point x="134" y="-9" type="curve" smooth="yes"/>
      <point x="229" y="-9"/>
      <point x="284" y="55"/>
      <point x="284" y="178" type="curve" smooth="yes"/>
      <point x="284" y="625" type="line"/>
      <point x="41" y="625" type="line"/>
      <point x="41" y="455" type="line"/>
      <point x="118" y="455" type="line"/>
      <point x="118" y="250" type="line" smooth="yes"/>
      <point x="118" y="180"/>
      <point x="108" y="158"/>
      <point x="69" y="158" type="curve" smooth="yes"/>
      <point x="59" y="158"/>
      <point x="42" y="163"/>
      <point x="29" y="167" type="curve"/>
    </contour>
  </outline>
</glyph>
<glyph name="j.superior" format="2">
	<advance width="187"/>
	<outline>
		<contour>
			<point x="163" y="373" type="curve" smooth="yes"/>
			<point x="163" y="683" type="line"/>
			<point x="53" y="683" type="line"/>
			<point x="53" y="388" type="line"/>
			<point x="53" y="364"/>
			<point x="49" y="357"/>
			<point x="36" y="357" type="curve" smooth="yes"/>
			<point x="28" y="357"/>
			<point x="21" y="359"/>
			<point x="11" y="361" type="curve"/>
			<point x="-5" y="255" type="line"/>
			<point x="18" y="248"/>
			<point x="38" y="245"/>
			<point x="57" y="245" type="curve" smooth="yes"/>
			<point x="135" y="245"/>
			<point x="163" y="287"/>
		</contour>
		<contour>
			<point x="108" y="694" type="curve" smooth="yes"/>
			<point x="149" y="694"/>
			<point x="170" y="715"/>
			<point x="170" y="757" type="curve" smooth="yes"/>
			<point x="170" y="800"/>
			<point x="148" y="820"/>
			<point x="108" y="820" type="curve" smooth="yes"/>
			<point x="69" y="820"/>
			<point x="47" y="800"/>
			<point x="47" y="757" type="curve" smooth="yes"/>
			<point x="47" y="715"/>
			<point x="69" y="694"/>
		</contour>
	</outline>
</glyph>
<glyph name="l.sc" format="2">
  <advance width="337"/>
  <anchor x="169" y="275" name="center"/>
  <anchor x="107" y="625" name="top"/>
  <anchor x="219" y="625" name="topright"/>
  <anchor x="173" y="0" name="bottom"/>
  <outline>
    <contour>
      <point x="23" y="0" type="line"/>
      <point x="327" y="0" type="line"/>
      <point x="327" y="166" type="line"/>
      <point x="190" y="166" type="line"/>
      <point x="190" y="625" type="line"/>
      <point x="23" y="625" type="line"/>
    </contour>
  </outline>
</glyph>
<glyph name="ldot.sc" format="2">
  <advance width="351"/>
  <outline>
    <contour>
      <point x="280" y="284" type="curve" smooth="yes"/>
      <point x="317" y="284"/>
      <point x="341" y="307"/>
      <point x="341" y="361" type="curve" smooth="yes"/>
      <point x="341" y="416"/>
      <point x="317" y="439"/>
      <point x="280" y="439" type="curve" smooth="yes"/>
      <point x="244" y="439"/>
      <point x="220" y="416"/>
      <point x="220" y="361" type="curve" smooth="yes"/>
      <point x="220" y="307"/>
      <point x="244" y="284"/>
    </contour>
    <component base="l.sc"/>
  </outline>
</glyph>
<glyph name="lslash.sc" format="2">
	<advance width="358"/>
	<outline>
		<contour>
			<point x="0" y="191" type="line"/>
			<point x="35" y="207" type="line"/>
			<point x="35" y="0" type="line"/>
			<point x="348" y="0" type="line"/>
			<point x="348" y="159" type="line"/>
			<point x="211" y="159" type="line"/>
			<point x="211" y="288" type="line"/>
			<point x="303" y="331" type="line"/>
			<point x="303" y="482" type="line"/>
			<point x="211" y="439" type="line"/>
			<point x="211" y="625" type="line"/>
			<point x="35" y="625" type="line"/>
			<point x="35" y="358" type="line"/>
			<point x="0" y="342" type="line"/>
		</contour>
	</outline>
</glyph>
<glyph name="m.sc" format="2">
  <advance width="528"/>
  <outline>
    <contour>
      <point x="23" y="0" type="line"/>
      <point x="172" y="0" type="line"/>
      <point x="172" y="321" type="line"/>
      <point x="220" y="109" type="line"/>
      <point x="306" y="109" type="line"/>
      <point x="357" y="321" type="line"/>
      <point x="357" y="0" type="line"/>
      <point x="505" y="0" type="line"/>
      <point x="505" y="625" type="line"/>
      <point x="332" y="625" type="line"/>
      <point x="267" y="374" type="line"/>
      <point x="202" y="625" type="line"/>
      <point x="23" y="625" type="line"/>
    </contour>
  </outline>
</glyph>
<glyph name="m.superior" format="2">
  <advance width="404"/>
  <outline>
    <contour>
      <point x="19" y="370" type="line"/>
      <point x="129" y="370" type="line"/>
      <point x="129" y="578" type="line"/>
      <point x="132" y="580"/>
      <point x="136" y="582"/>
      <point x="140" y="582" type="curve" smooth="yes"/>
      <point x="142" y="582"/>
      <point x="148" y="581"/>
      <point x="148" y="573" type="curve" smooth="yes"/>
      <point x="148" y="370" type="line"/>
      <point x="258" y="370" type="line"/>
      <point x="258" y="575" type="line"/>
      <point x="258" y="576"/>
      <point x="258" y="577"/>
      <point x="258" y="578" type="curve"/>
      <point x="261" y="580"/>
      <point x="264" y="582"/>
      <point x="269" y="582" type="curve" smooth="yes"/>
      <point x="271" y="582"/>
      <point x="276" y="581"/>
      <point x="276" y="573" type="curve" smooth="yes"/>
      <point x="276" y="370" type="line"/>
      <point x="387" y="370" type="line"/>
      <point x="387" y="613" type="line" smooth="yes"/>
      <point x="387" y="662"/>
      <point x="365" y="689"/>
      <point x="319" y="689" type="curve" smooth="yes"/>
      <point x="296" y="689"/>
      <point x="273" y="684"/>
      <point x="246" y="662" type="curve"/>
      <point x="235" y="680"/>
      <point x="217" y="689"/>
      <point x="191" y="689" type="curve" smooth="yes"/>
      <point x="168" y="689"/>
      <point x="144" y="684"/>
      <point x="118" y="663" type="curve"/>
      <point x="118" y="683" type="line"/>
      <point x="19" y="683" type="line"/>
    </contour>
  </outline>
</glyph>
<glyph name="multiplysuperior" format="2">
	<advance width="265"/>
	<outline>
		<contour>
			<point x="94" y="462" type="line"/>
			<point x="132" y="500" type="line"/>
			<point x="170" y="462" type="line"/>
			<point x="234" y="527" type="line"/>
			<point x="196" y="564" type="line"/>
			<point x="234" y="602" type="line"/>
			<point x="170" y="666" type="line"/>
			<point x="132" y="629" type="line"/>
			<point x="94" y="666" type="line"/>
			<point x="30" y="602" type="line"/>
			<point x="68" y="564" type="line"/>
			<point x="30" y="527" type="line"/>
		</contour>
	</outline>
</glyph>
<glyph name="n.sc" format="2">
  <advance width="443"/>
  <anchor x="222" y="625" name="top"/>
  <anchor x="222" y="0" name="bottom"/>
  <outline>
    <contour>
      <point x="23" y="0" type="line"/>
      <point x="169" y="0" type="line"/>
      <point x="169" y="265" type="line"/>
      <point x="254" y="0" type="line"/>
      <point x="420" y="0" type="line"/>
      <point x="420" y="625" type="line"/>
      <point x="274" y="625" type="line"/>
      <point x="274" y="337" type="line"/>
      <point x="190" y="625" type="line"/>
      <point x="23" y="625" type="line"/>
    </contour>
  </outline>
</glyph>
<glyph name="o.sc" format="2">
  <advance width="421"/>
  <anchor x="211" y="275" name="center"/>
  <anchor x="294" y="7" name="ogonek"/>
  <anchor x="211" y="625" name="top"/>
  <anchor x="296" y="625" name="topright"/>
  <anchor x="20" y="625" name="topleft"/>
  <anchor x="210" y="0" name="bottom"/>
  <outline>
    <contour>
      <point x="211" y="151" type="curve" smooth="yes"/>
      <point x="186" y="151"/>
      <point x="184" y="175"/>
      <point x="184" y="312" type="curve" smooth="yes"/>
      <point x="184" y="449"/>
      <point x="187" y="474"/>
      <point x="211" y="474" type="curve" smooth="yes"/>
      <point x="236" y="474"/>
      <point x="238" y="452"/>
      <point x="238" y="314" type="curve" smooth="yes"/>
      <point x="238" y="174"/>
      <point x="235" y="151"/>
    </contour>
    <contour>
      <point x="210" y="-9" type="curve" smooth="yes"/>
      <point x="348" y="-9"/>
      <point x="407" y="70"/>
      <point x="407" y="314" type="curve" smooth="yes"/>
      <point x="407" y="557"/>
      <point x="349" y="634"/>
      <point x="211" y="634" type="curve" smooth="yes"/>
      <point x="74" y="634"/>
      <point x="14" y="556"/>
      <point x="14" y="311" type="curve" smooth="yes"/>
      <point x="14" y="67"/>
      <point x="73" y="-9"/>
    </contour>
  </outline>
</glyph>
<glyph name="oe.sc" format="2">
  <advance width="578"/>
  <outline>
    <contour>
      <point x="560" y="0" type="line"/>
      <point x="560" y="166" type="line"/>
      <point x="408" y="166" type="line"/>
      <point x="408" y="232" type="line"/>
      <point x="527" y="232" type="line"/>
      <point x="527" y="389" type="line"/>
      <point x="408" y="389" type="line"/>
      <point x="408" y="454" type="line"/>
      <point x="550" y="454" type="line"/>
      <point x="550" y="625" type="line"/>
      <point x="360" y="625" type="line"/>
      <point x="318" y="632"/>
      <point x="277" y="634"/>
      <point x="240" y="634" type="curve" smooth="yes"/>
      <point x="71" y="634"/>
      <point x="14" y="520"/>
      <point x="14" y="316" type="curve" smooth="yes"/>
      <point x="14" y="62"/>
      <point x="90" y="-9"/>
      <point x="232" y="-9" type="curve" smooth="yes"/>
      <point x="276" y="-9"/>
      <point x="340" y="-8"/>
      <point x="407" y="0" type="curve"/>
    </contour>
    <contour>
      <point x="241" y="152" type="line"/>
      <point x="236" y="151"/>
      <point x="226" y="149"/>
      <point x="220" y="149" type="curve" smooth="yes"/>
      <point x="193" y="149"/>
      <point x="186" y="190"/>
      <point x="186" y="313" type="curve" smooth="yes"/>
      <point x="186" y="438"/>
      <point x="190" y="474"/>
      <point x="222" y="474" type="curve" smooth="yes"/>
      <point x="230" y="474"/>
      <point x="231" y="473"/>
      <point x="241" y="471" type="curve"/>
    </contour>
  </outline>
</glyph>
<glyph name="one.lf" format="2">
	<advance width="291"/>
	<outline>
		<contour>
			<point x="273" y="0" type="line"/>
			<point x="273" y="700" type="line"/>
			<point x="184" y="700" type="line"/>
			<point x="-2" y="650" type="line"/>
			<point x="48" y="471" type="line"/>
			<point x="97" y="480" type="line"/>
			<point x="97" y="0" type="line"/>
		</contour>
	</outline>
</glyph>
<glyph name="one.osf" format="2">
	<advance width="300"/>
	<outline>
		<contour>
			<point x="272" y="0" type="line"/>
			<point x="272" y="550" type="line"/>
			<point x="183" y="550" type="line"/>
			<point x="-3" y="500" type="line"/>
			<point x="47" y="321" type="line"/>
			<point x="96" y="330" type="line"/>
			<point x="96" y="0" type="line"/>
		</contour>
	</outline>
</glyph>
<glyph name="p.superior" format="2">
  <advance width="272"/>
  <outline>
    <contour>
      <point x="19" y="250" type="line"/>
      <point x="130" y="250" type="line"/>
      <point x="130" y="365" type="line"/>
      <point x="136" y="364"/>
      <point x="147" y="362"/>
      <point x="153" y="362" type="curve" smooth="yes"/>
      <point x="218" y="362"/>
      <point x="262" y="417"/>
      <point x="262" y="533" type="curve" smooth="yes"/>
      <point x="262" y="642"/>
      <point x="231" y="689"/>
      <point x="177" y="689" type="curve" smooth="yes"/>
      <point x="154" y="689"/>
      <point x="139" y="682"/>
      <point x="127" y="674" type="curve"/>
      <point x="119" y="683" type="line"/>
      <point x="19" y="683" type="line"/>
    </contour>
    <contour>
      <point x="136" y="448" type="curve" smooth="yes"/>
      <point x="134" y="448"/>
      <point x="131" y="450"/>
      <point x="130" y="451" type="curve"/>
      <point x="130" y="593" type="line"/>
      <point x="131" y="594"/>
      <point x="135" y="595"/>
      <point x="136" y="595" type="curve" smooth="yes"/>
      <point x="143" y="595"/>
      <point x="144" y="581"/>
      <point x="144" y="516" type="curve" smooth="yes"/>
      <point x="144" y="462"/>
      <point x="143" y="448"/>
    </contour>
  </outline>
</glyph>
<glyph name="periodsuperior" format="2">
  <advance width="120"/>
  <outline>
    <contour>
      <point x="7" y="433" type="curve" smooth="yes"/>
      <point x="7" y="388"/>
      <point x="23" y="366"/>
      <point x="60" y="366" type="curve" smooth="yes"/>
      <point x="97" y="366"/>
      <point x="113" y="388"/>
      <point x="113" y="433" type="curve" smooth="yes"/>
      <point x="113" y="478"/>
      <point x="97" y="500"/>
      <point x="60" y="500" type="curve" smooth="yes"/>
      <point x="23" y="500"/>
      <point x="7" y="478"/>
    </contour>
  </outline>
</glyph>
<glyph name="q.sc" format="2">
  <advance width="421"/>
  <outline>
    <contour>
      <point x="330" y="54" type="curve"/>
      <point x="210" y="12" type="line"/>
      <point x="225" y="-90"/>
      <point x="253" y="-141"/>
      <point x="335" y="-141" type="curve" smooth="yes"/>
      <point x="360" y="-141"/>
      <point x="385" y="-135"/>
      <point x="403" y="-129" type="curve"/>
      <point x="385" y="38" type="line"/>
      <point x="379" y="35"/>
      <point x="370" y="33"/>
      <point x="361" y="33" type="curve" smooth="yes"/>
      <point x="345" y="33"/>
      <point x="339" y="45"/>
    </contour>
    <contour>
      <point x="211" y="151" type="curve" smooth="yes"/>
      <point x="186" y="151"/>
      <point x="184" y="175"/>
      <point x="184" y="312" type="curve" smooth="yes"/>
      <point x="184" y="449"/>
      <point x="187" y="474"/>
      <point x="211" y="474" type="curve" smooth="yes"/>
      <point x="236" y="474"/>
      <point x="238" y="452"/>
      <point x="238" y="314" type="curve" smooth="yes"/>
      <point x="238" y="174"/>
      <point x="235" y="151"/>
    </contour>
    <contour>
      <point x="210" y="-9" type="curve" smooth="yes"/>
      <point x="348" y="-9"/>
      <point x="407" y="70"/>
      <point x="407" y="314" type="curve" smooth="yes"/>
      <point x="407" y="557"/>
      <point x="349" y="634"/>
      <point x="211" y="634" type="curve" smooth="yes"/>
      <point x="74" y="634"/>
      <point x="14" y="556"/>
      <point x="14" y="311" type="curve" smooth="yes"/>
      <point x="14" y="67"/>
      <point x="73" y="-9"/>
    </contour>
  </outline>
</glyph>
